<ttFont>
    <TTGlyph name="A" xMin="1" yMin="-100" xMax="658" yMax="820">
      <contour>
        <pt x="156" y="481" on="1"/>
        <pt x="85" y="481" on="0"/>
        <pt x="85" y="349" on="1"/>
        <pt x="85" y="342" on="1"/>
        <pt x="85" y="329" on="0"/>
        <pt x="79" y="329" on="1"/>
        <pt x="64" y="329" on="0"/>
        <pt x="49" y="401" on="0"/>
        <pt x="49" y="426" on="1"/>
        <pt x="49" y="467" on="0"/>
        <pt x="86" y="531" on="0"/>
        <pt x="125" y="531" on="1"/>
        <pt x="202" y="531" on="0"/>
        <pt x="273" y="441" on="1"/>
        <pt x="333" y="511" on="0"/>
        <pt x="470" y="654" on="0"/>
        <pt x="508" y="690" on="1"/>
        <pt x="546" y="727" on="1"/>
        <pt x="608" y="820" on="0"/>
        <pt x="648" y="820" on="1"/>
        <pt x="658" y="820" on="0"/>
        <pt x="658" y="811" on="1"/>
        <pt x="658" y="805" on="0"/>
        <pt x="654" y="797" on="1"/>
        <pt x="566" y="624" on="0"/>
        <pt x="493" y="407" on="1"/>
        <pt x="401" y="131" on="0"/>
        <pt x="401" y="-16" on="1"/>
        <pt x="401" y="-62" on="0"/>
        <pt x="412" y="-83" on="1"/>
        <pt x="416" y="-88" on="0"/>
        <pt x="416" y="-93" on="1"/>
        <pt x="416" y="-100" on="0"/>
        <pt x="404" y="-100" on="1"/>
        <pt x="377" y="-100" on="0"/>
        <pt x="341" y="-73" on="0"/>
        <pt x="326" y="-29" on="0"/>
        <pt x="320" y="6" on="0"/>
        <pt x="320" y="24" on="1"/>
        <pt x="320" y="54" on="0"/>
        <pt x="342" y="172" on="0"/>
        <pt x="342" y="199" on="1"/>
        <pt x="342" y="239" on="0"/>
        <pt x="307" y="348" on="0"/>
        <pt x="278" y="393" on="1"/>
        <pt x="246" y="349" on="0"/>
        <pt x="193" y="261" on="0"/>
        <pt x="182" y="240" on="1"/>
        <pt x="172" y="218" on="1"/>
        <pt x="136" y="144" on="0"/>
        <pt x="66" y="22" on="0"/>
        <pt x="49" y="-2" on="1"/>
        <pt x="32" y="-25" on="1"/>
        <pt x="21" y="-38" on="0"/>
        <pt x="12" y="-38" on="1"/>
        <pt x="1" y="-38" on="0"/>
        <pt x="1" y="-15" on="1"/>
        <pt x="4" y="126" on="0"/>
        <pt x="257" y="422" on="1"/>
        <pt x="208" y="481" on="0"/>
      </contour>
      <contour>
        <pt x="499" y="638" on="1"/>
        <pt x="389" y="542" on="0"/>
        <pt x="293" y="413" on="1"/>
        <pt x="335" y="349" on="0"/>
        <pt x="358" y="267" on="1"/>
        <pt x="361" y="258" on="0"/>
        <pt x="363" y="258" on="1"/>
        <pt x="368" y="267" on="1"/>
        <pt x="393" y="352" on="0"/>
        <pt x="464" y="535" on="0"/>
        <pt x="487" y="584" on="1"/>
        <pt x="510" y="632" on="1"/>
        <pt x="513" y="638" on="0"/>
        <pt x="513" y="642" on="0"/>
        <pt x="510" y="642" on="1"/>
      </contour>
    </TTGlyph>
    <TTGlyph name="AE" xMin="1" yMin="-100" xMax="1032" yMax="820">
      <contour>
        <pt x="760" y="414" on="1"/>
        <pt x="698" y="411" on="0"/>
        <pt x="622" y="411" on="1"/>
        <pt x="610" y="411" on="1"/>
        <pt x="469" y="155" on="0"/>
        <pt x="442" y="64" on="1"/>
        <pt x="438" y="52" on="0"/>
        <pt x="438" y="42" on="1"/>
        <pt x="438" y="12" on="0"/>
        <pt x="491" y="12" on="1"/>
        <pt x="513" y="12" on="0"/>
        <pt x="565" y="29" on="0"/>
        <pt x="640" y="72" on="0"/>
        <pt x="734" y="166" on="0"/>
        <pt x="783" y="233" on="1"/>
        <pt x="789" y="244" on="0"/>
        <pt x="801" y="244" on="1"/>
        <pt x="809" y="244" on="0"/>
        <pt x="809" y="236" on="1"/>
        <pt x="809" y="234" on="0"/>
        <pt x="807" y="228" on="1"/>
        <pt x="759" y="105" on="0"/>
        <pt x="685" y="8" on="1"/>
        <pt x="679" y="-6" on="0"/>
        <pt x="655" y="-10" on="1"/>
        <pt x="573" y="-14" on="0"/>
        <pt x="482" y="-14" on="1"/>
        <pt x="427" y="-14" on="0"/>
        <pt x="401" y="-13" on="1"/>
        <pt x="401" y="-62" on="0"/>
        <pt x="412" y="-83" on="1"/>
        <pt x="416" y="-88" on="0"/>
        <pt x="416" y="-93" on="1"/>
        <pt x="416" y="-100" on="0"/>
        <pt x="404" y="-100" on="1"/>
        <pt x="377" y="-100" on="0"/>
        <pt x="341" y="-73" on="0"/>
        <pt x="326" y="-29" on="0"/>
        <pt x="320" y="6" on="0"/>
        <pt x="320" y="24" on="1"/>
        <pt x="320" y="54" on="0"/>
        <pt x="342" y="172" on="0"/>
        <pt x="342" y="199" on="1"/>
        <pt x="342" y="239" on="0"/>
        <pt x="307" y="348" on="0"/>
        <pt x="278" y="393" on="1"/>
        <pt x="246" y="349" on="0"/>
        <pt x="193" y="261" on="0"/>
        <pt x="182" y="240" on="1"/>
        <pt x="172" y="218" on="1"/>
        <pt x="136" y="144" on="0"/>
        <pt x="66" y="22" on="0"/>
        <pt x="49" y="-2" on="1"/>
        <pt x="32" y="-25" on="1"/>
        <pt x="21" y="-38" on="0"/>
        <pt x="12" y="-38" on="1"/>
        <pt x="1" y="-38" on="0"/>
        <pt x="1" y="-15" on="1"/>
        <pt x="4" y="126" on="0"/>
        <pt x="257" y="422" on="1"/>
        <pt x="208" y="481" on="0"/>
        <pt x="156" y="481" on="1"/>
        <pt x="85" y="481" on="0"/>
        <pt x="85" y="349" on="1"/>
        <pt x="85" y="342" on="1"/>
        <pt x="85" y="329" on="0"/>
        <pt x="79" y="329" on="1"/>
        <pt x="64" y="329" on="0"/>
        <pt x="49" y="401" on="0"/>
        <pt x="49" y="426" on="1"/>
        <pt x="49" y="467" on="0"/>
        <pt x="86" y="531" on="0"/>
        <pt x="125" y="531" on="1"/>
        <pt x="202" y="531" on="0"/>
        <pt x="273" y="441" on="1"/>
        <pt x="333" y="511" on="0"/>
        <pt x="470" y="654" on="0"/>
        <pt x="508" y="690" on="1"/>
        <pt x="546" y="727" on="1"/>
        <pt x="608" y="820" on="0"/>
        <pt x="648" y="820" on="1"/>
        <pt x="658" y="820" on="0"/>
        <pt x="658" y="811" on="1"/>
        <pt x="658" y="805" on="0"/>
        <pt x="654" y="797" on="1"/>
        <pt x="566" y="624" on="0"/>
        <pt x="493" y="407" on="1"/>
        <pt x="473" y="347" on="0"/>
        <pt x="464" y="316" on="1"/>
        <pt x="507" y="389" on="0"/>
        <pt x="606" y="549" on="0"/>
        <pt x="634" y="592" on="1"/>
        <pt x="661" y="636" on="1"/>
        <pt x="696" y="692" on="0"/>
        <pt x="696" y="720" on="1"/>
        <pt x="696" y="726" on="0"/>
        <pt x="691" y="740" on="0"/>
        <pt x="691" y="742" on="1"/>
        <pt x="691" y="753" on="0"/>
        <pt x="705" y="753" on="1"/>
        <pt x="789" y="759" on="0"/>
        <pt x="885" y="759" on="1"/>
        <pt x="967" y="759" on="0"/>
        <pt x="1017" y="754" on="1"/>
        <pt x="1032" y="754" on="0"/>
        <pt x="1032" y="741" on="1"/>
        <pt x="1032" y="738" on="0"/>
        <pt x="1029" y="730" on="1"/>
        <pt x="996" y="647" on="0"/>
        <pt x="962" y="600" on="1"/>
        <pt x="957" y="595" on="0"/>
        <pt x="951" y="595" on="1"/>
        <pt x="942" y="595" on="0"/>
        <pt x="942" y="608" on="1"/>
        <pt x="947" y="627" on="0"/>
        <pt x="947" y="649" on="1"/>
        <pt x="947" y="731" on="0"/>
        <pt x="865" y="731" on="1"/>
        <pt x="861" y="731" on="1"/>
        <pt x="810" y="731" on="0"/>
        <pt x="788" y="703" on="1"/>
        <pt x="737" y="640" on="0"/>
        <pt x="652" y="486" on="1"/>
        <pt x="642" y="469" on="0"/>
        <pt x="627" y="442" on="1"/>
        <pt x="674" y="443" on="0"/>
        <pt x="777" y="443" on="1"/>
        <pt x="787" y="443" on="0"/>
        <pt x="787" y="431" on="0"/>
        <pt x="770" y="415" on="0"/>
      </contour>
      <contour>
        <pt x="499" y="638" on="1"/>
        <pt x="389" y="542" on="0"/>
        <pt x="293" y="413" on="1"/>
        <pt x="335" y="349" on="0"/>
        <pt x="358" y="267" on="1"/>
        <pt x="361" y="258" on="0"/>
        <pt x="363" y="258" on="1"/>
        <pt x="368" y="267" on="1"/>
        <pt x="393" y="352" on="0"/>
        <pt x="464" y="535" on="0"/>
        <pt x="487" y="584" on="1"/>
        <pt x="510" y="632" on="1"/>
        <pt x="513" y="638" on="0"/>
        <pt x="513" y="642" on="0"/>
        <pt x="510" y="642" on="1"/>
      </contour>
    </TTGlyph>
    <TTGlyph name="Aacute" xMin="1" yMin="-100" xMax="775" yMax="951">
      <contour>
        <pt x="156" y="481" on="1"/>
        <pt x="85" y="481" on="0"/>
        <pt x="85" y="349" on="1"/>
        <pt x="85" y="342" on="1"/>
        <pt x="85" y="329" on="0"/>
        <pt x="79" y="329" on="1"/>
        <pt x="64" y="329" on="0"/>
        <pt x="49" y="401" on="0"/>
        <pt x="49" y="426" on="1"/>
        <pt x="49" y="467" on="0"/>
        <pt x="86" y="531" on="0"/>
        <pt x="125" y="531" on="1"/>
        <pt x="202" y="531" on="0"/>
        <pt x="273" y="441" on="1"/>
        <pt x="333" y="511" on="0"/>
        <pt x="470" y="654" on="0"/>
        <pt x="508" y="690" on="1"/>
        <pt x="546" y="727" on="1"/>
        <pt x="608" y="820" on="0"/>
        <pt x="648" y="820" on="1"/>
        <pt x="658" y="820" on="0"/>
        <pt x="658" y="811" on="1"/>
        <pt x="658" y="805" on="0"/>
        <pt x="654" y="797" on="1"/>
        <pt x="566" y="624" on="0"/>
        <pt x="493" y="407" on="1"/>
        <pt x="401" y="131" on="0"/>
        <pt x="401" y="-16" on="1"/>
        <pt x="401" y="-62" on="0"/>
        <pt x="412" y="-83" on="1"/>
        <pt x="416" y="-88" on="0"/>
        <pt x="416" y="-93" on="1"/>
        <pt x="416" y="-100" on="0"/>
        <pt x="404" y="-100" on="1"/>
        <pt x="377" y="-100" on="0"/>
        <pt x="341" y="-73" on="0"/>
        <pt x="326" y="-29" on="0"/>
        <pt x="320" y="6" on="0"/>
        <pt x="320" y="24" on="1"/>
        <pt x="320" y="54" on="0"/>
        <pt x="342" y="172" on="0"/>
        <pt x="342" y="199" on="1"/>
        <pt x="342" y="239" on="0"/>
        <pt x="307" y="348" on="0"/>
        <pt x="278" y="393" on="1"/>
        <pt x="246" y="349" on="0"/>
        <pt x="193" y="261" on="0"/>
        <pt x="182" y="240" on="1"/>
        <pt x="172" y="218" on="1"/>
        <pt x="136" y="144" on="0"/>
        <pt x="66" y="22" on="0"/>
        <pt x="49" y="-2" on="1"/>
        <pt x="32" y="-25" on="1"/>
        <pt x="21" y="-38" on="0"/>
        <pt x="12" y="-38" on="1"/>
        <pt x="1" y="-38" on="0"/>
        <pt x="1" y="-15" on="1"/>
        <pt x="4" y="126" on="0"/>
        <pt x="257" y="422" on="1"/>
        <pt x="208" y="481" on="0"/>
      </contour>
      <contour>
        <pt x="499" y="638" on="1"/>
        <pt x="389" y="542" on="0"/>
        <pt x="293" y="413" on="1"/>
        <pt x="335" y="349" on="0"/>
        <pt x="358" y="267" on="1"/>
        <pt x="361" y="258" on="0"/>
        <pt x="363" y="258" on="1"/>
        <pt x="368" y="267" on="1"/>
        <pt x="393" y="352" on="0"/>
        <pt x="464" y="535" on="0"/>
        <pt x="487" y="584" on="1"/>
        <pt x="510" y="632" on="1"/>
        <pt x="513" y="638" on="0"/>
        <pt x="513" y="642" on="0"/>
        <pt x="510" y="642" on="1"/>
      </contour>
      <contour>
        <pt x="771" y="936" on="1"/>
        <pt x="744" y="905" on="0"/>
        <pt x="669" y="858" on="0"/>
        <pt x="646" y="850" on="1"/>
        <pt x="622" y="842" on="1"/>
        <pt x="611" y="842" on="0"/>
        <pt x="611" y="846" on="1"/>
        <pt x="611" y="849" on="0"/>
        <pt x="615" y="855" on="1"/>
        <pt x="625" y="863" on="0"/>
        <pt x="665" y="907" on="0"/>
        <pt x="680" y="924" on="1"/>
        <pt x="695" y="942" on="1"/>
        <pt x="701" y="951" on="0"/>
        <pt x="714" y="951" on="1"/>
        <pt x="763" y="951" on="1"/>
        <pt x="775" y="951" on="0"/>
        <pt x="775" y="944" on="1"/>
        <pt x="775" y="940" on="0"/>
      </contour>
    </TTGlyph>
    <TTGlyph name="Acircumflex" xMin="1" yMin="-100" xMax="744" yMax="941">
      <contour>
        <pt x="156" y="481" on="1"/>
        <pt x="85" y="481" on="0"/>
        <pt x="85" y="349" on="1"/>
        <pt x="85" y="342" on="1"/>
        <pt x="85" y="329" on="0"/>
        <pt x="79" y="329" on="1"/>
        <pt x="64" y="329" on="0"/>
        <pt x="49" y="401" on="0"/>
        <pt x="49" y="426" on="1"/>
        <pt x="49" y="467" on="0"/>
        <pt x="86" y="531" on="0"/>
        <pt x="125" y="531" on="1"/>
        <pt x="202" y="531" on="0"/>
        <pt x="273" y="441" on="1"/>
        <pt x="333" y="511" on="0"/>
        <pt x="470" y="654" on="0"/>
        <pt x="508" y="690" on="1"/>
        <pt x="546" y="727" on="1"/>
        <pt x="608" y="820" on="0"/>
        <pt x="648" y="820" on="1"/>
        <pt x="658" y="820" on="0"/>
        <pt x="658" y="811" on="1"/>
        <pt x="658" y="805" on="0"/>
        <pt x="654" y="797" on="1"/>
        <pt x="566" y="624" on="0"/>
        <pt x="493" y="407" on="1"/>
        <pt x="401" y="131" on="0"/>
        <pt x="401" y="-16" on="1"/>
        <pt x="401" y="-62" on="0"/>
        <pt x="412" y="-83" on="1"/>
        <pt x="416" y="-88" on="0"/>
        <pt x="416" y="-93" on="1"/>
        <pt x="416" y="-100" on="0"/>
        <pt x="404" y="-100" on="1"/>
        <pt x="377" y="-100" on="0"/>
        <pt x="341" y="-73" on="0"/>
        <pt x="326" y="-29" on="0"/>
        <pt x="320" y="6" on="0"/>
        <pt x="320" y="24" on="1"/>
        <pt x="320" y="54" on="0"/>
        <pt x="342" y="172" on="0"/>
        <pt x="342" y="199" on="1"/>
        <pt x="342" y="239" on="0"/>
        <pt x="307" y="348" on="0"/>
        <pt x="278" y="393" on="1"/>
        <pt x="246" y="349" on="0"/>
        <pt x="193" y="261" on="0"/>
        <pt x="182" y="240" on="1"/>
        <pt x="172" y="218" on="1"/>
        <pt x="136" y="144" on="0"/>
        <pt x="66" y="22" on="0"/>
        <pt x="49" y="-2" on="1"/>
        <pt x="32" y="-25" on="1"/>
        <pt x="21" y="-38" on="0"/>
        <pt x="12" y="-38" on="1"/>
        <pt x="1" y="-38" on="0"/>
        <pt x="1" y="-15" on="1"/>
        <pt x="4" y="126" on="0"/>
        <pt x="257" y="422" on="1"/>
        <pt x="208" y="481" on="0"/>
      </contour>
      <contour>
        <pt x="499" y="638" on="1"/>
        <pt x="389" y="542" on="0"/>
        <pt x="293" y="413" on="1"/>
        <pt x="335" y="349" on="0"/>
        <pt x="358" y="267" on="1"/>
        <pt x="361" y="258" on="0"/>
        <pt x="363" y="258" on="1"/>
        <pt x="368" y="267" on="1"/>
        <pt x="393" y="352" on="0"/>
        <pt x="464" y="535" on="0"/>
        <pt x="487" y="584" on="1"/>
        <pt x="510" y="632" on="1"/>
        <pt x="513" y="638" on="0"/>
        <pt x="513" y="642" on="0"/>
        <pt x="510" y="642" on="1"/>
      </contour>
      <contour>
        <pt x="676" y="908" on="1"/>
        <pt x="675" y="912" on="0"/>
        <pt x="673" y="912" on="1"/>
        <pt x="667" y="908" on="1"/>
        <pt x="634" y="875" on="0"/>
        <pt x="548" y="832" on="0"/>
        <pt x="531" y="832" on="1"/>
        <pt x="524" y="832" on="0"/>
        <pt x="524" y="836" on="1"/>
        <pt x="528" y="845" on="1"/>
        <pt x="538" y="853" on="0"/>
        <pt x="578" y="896" on="0"/>
        <pt x="593" y="914" on="1"/>
        <pt x="608" y="932" on="1"/>
        <pt x="614" y="941" on="0"/>
        <pt x="627" y="941" on="1"/>
        <pt x="736" y="941" on="1"/>
        <pt x="744" y="941" on="0"/>
        <pt x="744" y="934" on="1"/>
        <pt x="744" y="933" on="0"/>
        <pt x="740" y="903" on="0"/>
        <pt x="736" y="856" on="0"/>
        <pt x="736" y="836" on="1"/>
        <pt x="736" y="826" on="0"/>
        <pt x="730" y="826" on="1"/>
        <pt x="715" y="826" on="0"/>
        <pt x="681" y="885" on="0"/>
      </contour>
    </TTGlyph>
    <TTGlyph name="Adieresis" xMin="1" yMin="-100" xMax="770" yMax="944">
      <contour>
        <pt x="156" y="481" on="1"/>
        <pt x="85" y="481" on="0"/>
        <pt x="85" y="349" on="1"/>
        <pt x="85" y="342" on="1"/>
        <pt x="85" y="329" on="0"/>
        <pt x="79" y="329" on="1"/>
        <pt x="64" y="329" on="0"/>
        <pt x="49" y="401" on="0"/>
        <pt x="49" y="426" on="1"/>
        <pt x="49" y="467" on="0"/>
        <pt x="86" y="531" on="0"/>
        <pt x="125" y="531" on="1"/>
        <pt x="202" y="531" on="0"/>
        <pt x="273" y="441" on="1"/>
        <pt x="333" y="511" on="0"/>
        <pt x="470" y="654" on="0"/>
        <pt x="508" y="690" on="1"/>
        <pt x="546" y="727" on="1"/>
        <pt x="608" y="820" on="0"/>
        <pt x="648" y="820" on="1"/>
        <pt x="658" y="820" on="0"/>
        <pt x="658" y="811" on="1"/>
        <pt x="658" y="805" on="0"/>
        <pt x="654" y="797" on="1"/>
        <pt x="566" y="624" on="0"/>
        <pt x="493" y="407" on="1"/>
        <pt x="401" y="131" on="0"/>
        <pt x="401" y="-16" on="1"/>
        <pt x="401" y="-62" on="0"/>
        <pt x="412" y="-83" on="1"/>
        <pt x="416" y="-88" on="0"/>
        <pt x="416" y="-93" on="1"/>
        <pt x="416" y="-100" on="0"/>
        <pt x="404" y="-100" on="1"/>
        <pt x="377" y="-100" on="0"/>
        <pt x="341" y="-73" on="0"/>
        <pt x="326" y="-29" on="0"/>
        <pt x="320" y="6" on="0"/>
        <pt x="320" y="24" on="1"/>
        <pt x="320" y="54" on="0"/>
        <pt x="342" y="172" on="0"/>
        <pt x="342" y="199" on="1"/>
        <pt x="342" y="239" on="0"/>
        <pt x="307" y="348" on="0"/>
        <pt x="278" y="393" on="1"/>
        <pt x="246" y="349" on="0"/>
        <pt x="193" y="261" on="0"/>
        <pt x="182" y="240" on="1"/>
        <pt x="172" y="218" on="1"/>
        <pt x="136" y="144" on="0"/>
        <pt x="66" y="22" on="0"/>
        <pt x="49" y="-2" on="1"/>
        <pt x="32" y="-25" on="1"/>
        <pt x="21" y="-38" on="0"/>
        <pt x="12" y="-38" on="1"/>
        <pt x="1" y="-38" on="0"/>
        <pt x="1" y="-15" on="1"/>
        <pt x="4" y="126" on="0"/>
        <pt x="257" y="422" on="1"/>
        <pt x="208" y="481" on="0"/>
      </contour>
      <contour>
        <pt x="499" y="638" on="1"/>
        <pt x="389" y="542" on="0"/>
        <pt x="293" y="413" on="1"/>
        <pt x="335" y="349" on="0"/>
        <pt x="358" y="267" on="1"/>
        <pt x="361" y="258" on="0"/>
        <pt x="363" y="258" on="1"/>
        <pt x="368" y="267" on="1"/>
        <pt x="393" y="352" on="0"/>
        <pt x="464" y="535" on="0"/>
        <pt x="487" y="584" on="1"/>
        <pt x="510" y="632" on="1"/>
        <pt x="513" y="638" on="0"/>
        <pt x="513" y="642" on="0"/>
        <pt x="510" y="642" on="1"/>
      </contour>
      <contour>
        <pt x="548" y="846" on="1"/>
        <pt x="523" y="846" on="0"/>
        <pt x="523" y="874" on="1"/>
        <pt x="523" y="899" on="0"/>
        <pt x="563" y="944" on="0"/>
        <pt x="584" y="944" on="1"/>
        <pt x="609" y="944" on="0"/>
        <pt x="609" y="917" on="1"/>
        <pt x="609" y="892" on="0"/>
        <pt x="571" y="846" on="0"/>
      </contour>
      <contour>
        <pt x="709" y="846" on="1"/>
        <pt x="684" y="846" on="0"/>
        <pt x="684" y="874" on="1"/>
        <pt x="684" y="900" on="0"/>
        <pt x="724" y="944" on="0"/>
        <pt x="746" y="944" on="1"/>
        <pt x="770" y="944" on="0"/>
        <pt x="770" y="916" on="1"/>
        <pt x="770" y="891" on="0"/>
        <pt x="732" y="846" on="0"/>
      </contour>
    </TTGlyph>
    <TTGlyph name="Agrave" xMin="1" yMin="-100" xMax="676" yMax="966">
      <contour>
        <pt x="156" y="481" on="1"/>
        <pt x="85" y="481" on="0"/>
        <pt x="85" y="349" on="1"/>
        <pt x="85" y="342" on="1"/>
        <pt x="85" y="329" on="0"/>
        <pt x="79" y="329" on="1"/>
        <pt x="64" y="329" on="0"/>
        <pt x="49" y="401" on="0"/>
        <pt x="49" y="426" on="1"/>
        <pt x="49" y="467" on="0"/>
        <pt x="86" y="531" on="0"/>
        <pt x="125" y="531" on="1"/>
        <pt x="202" y="531" on="0"/>
        <pt x="273" y="441" on="1"/>
        <pt x="333" y="511" on="0"/>
        <pt x="470" y="654" on="0"/>
        <pt x="508" y="690" on="1"/>
        <pt x="546" y="727" on="1"/>
        <pt x="608" y="820" on="0"/>
        <pt x="648" y="820" on="1"/>
        <pt x="658" y="820" on="0"/>
        <pt x="658" y="811" on="1"/>
        <pt x="658" y="805" on="0"/>
        <pt x="654" y="797" on="1"/>
        <pt x="566" y="624" on="0"/>
        <pt x="493" y="407" on="1"/>
        <pt x="401" y="131" on="0"/>
        <pt x="401" y="-16" on="1"/>
        <pt x="401" y="-62" on="0"/>
        <pt x="412" y="-83" on="1"/>
        <pt x="416" y="-88" on="0"/>
        <pt x="416" y="-93" on="1"/>
        <pt x="416" y="-100" on="0"/>
        <pt x="404" y="-100" on="1"/>
        <pt x="377" y="-100" on="0"/>
        <pt x="341" y="-73" on="0"/>
        <pt x="326" y="-29" on="0"/>
        <pt x="320" y="6" on="0"/>
        <pt x="320" y="24" on="1"/>
        <pt x="320" y="54" on="0"/>
        <pt x="342" y="172" on="0"/>
        <pt x="342" y="199" on="1"/>
        <pt x="342" y="239" on="0"/>
        <pt x="307" y="348" on="0"/>
        <pt x="278" y="393" on="1"/>
        <pt x="246" y="349" on="0"/>
        <pt x="193" y="261" on="0"/>
        <pt x="182" y="240" on="1"/>
        <pt x="172" y="218" on="1"/>
        <pt x="136" y="144" on="0"/>
        <pt x="66" y="22" on="0"/>
        <pt x="49" y="-2" on="1"/>
        <pt x="32" y="-25" on="1"/>
        <pt x="21" y="-38" on="0"/>
        <pt x="12" y="-38" on="1"/>
        <pt x="1" y="-38" on="0"/>
        <pt x="1" y="-15" on="1"/>
        <pt x="4" y="126" on="0"/>
        <pt x="257" y="422" on="1"/>
        <pt x="208" y="481" on="0"/>
      </contour>
      <contour>
        <pt x="499" y="638" on="1"/>
        <pt x="389" y="542" on="0"/>
        <pt x="293" y="413" on="1"/>
        <pt x="335" y="349" on="0"/>
        <pt x="358" y="267" on="1"/>
        <pt x="361" y="258" on="0"/>
        <pt x="363" y="258" on="1"/>
        <pt x="368" y="267" on="1"/>
        <pt x="393" y="352" on="0"/>
        <pt x="464" y="535" on="0"/>
        <pt x="487" y="584" on="1"/>
        <pt x="510" y="632" on="1"/>
        <pt x="513" y="638" on="0"/>
        <pt x="513" y="642" on="0"/>
        <pt x="510" y="642" on="1"/>
      </contour>
      <contour>
        <pt x="676" y="857" on="1"/>
        <pt x="676" y="851" on="0"/>
        <pt x="671" y="851" on="1"/>
        <pt x="667" y="851" on="0"/>
        <pt x="658" y="857" on="1"/>
        <pt x="640" y="869" on="0"/>
        <pt x="610" y="919" on="0"/>
        <pt x="604" y="938" on="1"/>
        <pt x="598" y="956" on="1"/>
        <pt x="598" y="966" on="0"/>
        <pt x="606" y="966" on="1"/>
        <pt x="660" y="966" on="1"/>
        <pt x="671" y="966" on="0"/>
        <pt x="671" y="955" on="1"/>
        <pt x="671" y="933" on="1"/>
        <pt x="671" y="891" on="0"/>
      </contour>
    </TTGlyph>
    <TTGlyph name="Aring" xMin="1" yMin="-100" xMax="732" yMax="966">
      <contour>
        <pt x="156" y="481" on="1"/>
        <pt x="85" y="481" on="0"/>
        <pt x="85" y="349" on="1"/>
        <pt x="85" y="342" on="1"/>
        <pt x="85" y="329" on="0"/>
        <pt x="79" y="329" on="1"/>
        <pt x="64" y="329" on="0"/>
        <pt x="49" y="401" on="0"/>
        <pt x="49" y="426" on="1"/>
        <pt x="49" y="467" on="0"/>
        <pt x="86" y="531" on="0"/>
        <pt x="125" y="531" on="1"/>
        <pt x="202" y="531" on="0"/>
        <pt x="273" y="441" on="1"/>
        <pt x="333" y="511" on="0"/>
        <pt x="470" y="654" on="0"/>
        <pt x="508" y="690" on="1"/>
        <pt x="546" y="727" on="1"/>
        <pt x="608" y="820" on="0"/>
        <pt x="648" y="820" on="1"/>
        <pt x="658" y="820" on="0"/>
        <pt x="658" y="811" on="1"/>
        <pt x="658" y="805" on="0"/>
        <pt x="654" y="797" on="1"/>
        <pt x="566" y="624" on="0"/>
        <pt x="493" y="407" on="1"/>
        <pt x="401" y="131" on="0"/>
        <pt x="401" y="-16" on="1"/>
        <pt x="401" y="-62" on="0"/>
        <pt x="412" y="-83" on="1"/>
        <pt x="416" y="-88" on="0"/>
        <pt x="416" y="-93" on="1"/>
        <pt x="416" y="-100" on="0"/>
        <pt x="404" y="-100" on="1"/>
        <pt x="377" y="-100" on="0"/>
        <pt x="341" y="-73" on="0"/>
        <pt x="326" y="-29" on="0"/>
        <pt x="320" y="6" on="0"/>
        <pt x="320" y="24" on="1"/>
        <pt x="320" y="54" on="0"/>
        <pt x="342" y="172" on="0"/>
        <pt x="342" y="199" on="1"/>
        <pt x="342" y="239" on="0"/>
        <pt x="307" y="348" on="0"/>
        <pt x="278" y="393" on="1"/>
        <pt x="246" y="349" on="0"/>
        <pt x="193" y="261" on="0"/>
        <pt x="182" y="240" on="1"/>
        <pt x="172" y="218" on="1"/>
        <pt x="136" y="144" on="0"/>
        <pt x="66" y="22" on="0"/>
        <pt x="49" y="-2" on="1"/>
        <pt x="32" y="-25" on="1"/>
        <pt x="21" y="-38" on="0"/>
        <pt x="12" y="-38" on="1"/>
        <pt x="1" y="-38" on="0"/>
        <pt x="1" y="-15" on="1"/>
        <pt x="4" y="126" on="0"/>
        <pt x="257" y="422" on="1"/>
        <pt x="208" y="481" on="0"/>
      </contour>
      <contour>
        <pt x="499" y="638" on="1"/>
        <pt x="389" y="542" on="0"/>
        <pt x="293" y="413" on="1"/>
        <pt x="335" y="349" on="0"/>
        <pt x="358" y="267" on="1"/>
        <pt x="361" y="258" on="0"/>
        <pt x="363" y="258" on="1"/>
        <pt x="368" y="267" on="1"/>
        <pt x="393" y="352" on="0"/>
        <pt x="464" y="535" on="0"/>
        <pt x="487" y="584" on="1"/>
        <pt x="510" y="632" on="1"/>
        <pt x="513" y="638" on="0"/>
        <pt x="513" y="642" on="0"/>
        <pt x="510" y="642" on="1"/>
      </contour>
      <contour>
        <pt x="652" y="842" on="1"/>
        <pt x="636" y="842" on="0"/>
        <pt x="618" y="863" on="0"/>
        <pt x="618" y="880" on="1"/>
        <pt x="618" y="911" on="0"/>
        <pt x="672" y="966" on="0"/>
        <pt x="697" y="966" on="1"/>
        <pt x="713" y="966" on="0"/>
        <pt x="732" y="945" on="0"/>
        <pt x="732" y="928" on="1"/>
        <pt x="732" y="898" on="0"/>
        <pt x="680" y="842" on="0"/>
      </contour>
      <contour>
        <pt x="685" y="933" on="1"/>
        <pt x="673" y="933" on="0"/>
        <pt x="650" y="907" on="0"/>
        <pt x="650" y="892" on="1"/>
        <pt x="650" y="875" on="0"/>
        <pt x="664" y="875" on="1"/>
        <pt x="676" y="876" on="0"/>
        <pt x="700" y="902" on="0"/>
        <pt x="700" y="916" on="1"/>
        <pt x="700" y="933" on="0"/>
      </contour>
    </TTGlyph>
    <TTGlyph name="Atilde" xMin="1" yMin="-100" xMax="801" yMax="937">
      <contour>
        <pt x="799" y="926" on="1"/>
        <pt x="754" y="847" on="0"/>
        <pt x="697" y="847" on="1"/>
        <pt x="672" y="847" on="0"/>
        <pt x="604" y="892" on="0"/>
        <pt x="578" y="892" on="1"/>
        <pt x="555" y="888" on="1"/>
        <pt x="547" y="886" on="0"/>
        <pt x="545" y="886" on="1"/>
        <pt x="538" y="886" on="0"/>
        <pt x="538" y="893" on="1"/>
        <pt x="540" y="902" on="1"/>
        <pt x="565" y="935" on="0"/>
        <pt x="621" y="935" on="1"/>
        <pt x="642" y="935" on="0"/>
        <pt x="708" y="917" on="0"/>
        <pt x="725" y="917" on="1"/>
        <pt x="760" y="917" on="0"/>
        <pt x="785" y="937" on="1"/>
        <pt x="791" y="937" on="1"/>
        <pt x="801" y="937" on="0"/>
        <pt x="801" y="932" on="1"/>
        <pt x="801" y="930" on="0"/>
      </contour>
      <contour>
        <pt x="156" y="481" on="1"/>
        <pt x="85" y="481" on="0"/>
        <pt x="85" y="349" on="1"/>
        <pt x="85" y="342" on="1"/>
        <pt x="85" y="329" on="0"/>
        <pt x="79" y="329" on="1"/>
        <pt x="64" y="329" on="0"/>
        <pt x="49" y="401" on="0"/>
        <pt x="49" y="426" on="1"/>
        <pt x="49" y="467" on="0"/>
        <pt x="86" y="531" on="0"/>
        <pt x="125" y="531" on="1"/>
        <pt x="202" y="531" on="0"/>
        <pt x="273" y="441" on="1"/>
        <pt x="333" y="511" on="0"/>
        <pt x="470" y="654" on="0"/>
        <pt x="508" y="690" on="1"/>
        <pt x="546" y="727" on="1"/>
        <pt x="608" y="820" on="0"/>
        <pt x="648" y="820" on="1"/>
        <pt x="658" y="820" on="0"/>
        <pt x="658" y="811" on="1"/>
        <pt x="658" y="805" on="0"/>
        <pt x="654" y="797" on="1"/>
        <pt x="566" y="624" on="0"/>
        <pt x="493" y="407" on="1"/>
        <pt x="401" y="131" on="0"/>
        <pt x="401" y="-16" on="1"/>
        <pt x="401" y="-62" on="0"/>
        <pt x="412" y="-83" on="1"/>
        <pt x="416" y="-88" on="0"/>
        <pt x="416" y="-93" on="1"/>
        <pt x="416" y="-100" on="0"/>
        <pt x="404" y="-100" on="1"/>
        <pt x="377" y="-100" on="0"/>
        <pt x="341" y="-73" on="0"/>
        <pt x="326" y="-29" on="0"/>
        <pt x="320" y="6" on="0"/>
        <pt x="320" y="24" on="1"/>
        <pt x="320" y="54" on="0"/>
        <pt x="342" y="172" on="0"/>
        <pt x="342" y="199" on="1"/>
        <pt x="342" y="239" on="0"/>
        <pt x="307" y="348" on="0"/>
        <pt x="278" y="393" on="1"/>
        <pt x="246" y="349" on="0"/>
        <pt x="193" y="261" on="0"/>
        <pt x="182" y="240" on="1"/>
        <pt x="172" y="218" on="1"/>
        <pt x="136" y="144" on="0"/>
        <pt x="66" y="22" on="0"/>
        <pt x="49" y="-2" on="1"/>
        <pt x="32" y="-25" on="1"/>
        <pt x="21" y="-38" on="0"/>
        <pt x="12" y="-38" on="1"/>
        <pt x="1" y="-38" on="0"/>
        <pt x="1" y="-15" on="1"/>
        <pt x="4" y="126" on="0"/>
        <pt x="257" y="422" on="1"/>
        <pt x="208" y="481" on="0"/>
      </contour>
      <contour>
        <pt x="499" y="638" on="1"/>
        <pt x="389" y="542" on="0"/>
        <pt x="293" y="413" on="1"/>
        <pt x="335" y="349" on="0"/>
        <pt x="358" y="267" on="1"/>
        <pt x="361" y="258" on="0"/>
        <pt x="363" y="258" on="1"/>
        <pt x="368" y="267" on="1"/>
        <pt x="393" y="352" on="0"/>
        <pt x="464" y="535" on="0"/>
        <pt x="487" y="584" on="1"/>
        <pt x="510" y="632" on="1"/>
        <pt x="513" y="638" on="0"/>
        <pt x="513" y="642" on="0"/>
        <pt x="510" y="642" on="1"/>
      </contour>
    </TTGlyph>
    <TTGlyph name="B" xMin="-66" yMin="-46" xMax="597" yMax="774">
      <contour>
        <pt x="185" y="-27" on="1"/>
        <pt x="130" y="-27" on="0"/>
        <pt x="74" y="27" on="0"/>
        <pt x="74" y="75" on="1"/>
        <pt x="76" y="97" on="1"/>
        <pt x="76" y="105" on="0"/>
        <pt x="72" y="105" on="1"/>
        <pt x="66" y="101" on="1"/>
        <pt x="42" y="61" on="0"/>
        <pt x="-10" y="-6" on="0"/>
        <pt x="-24" y="-20" on="1"/>
        <pt x="-38" y="-33" on="1"/>
        <pt x="-52" y="-46" on="0"/>
        <pt x="-66" y="-46" on="0"/>
        <pt x="-66" y="-34" on="1"/>
        <pt x="-66" y="-18" on="0"/>
        <pt x="-56" y="5" on="1"/>
        <pt x="-41" y="38" on="0"/>
        <pt x="12" y="149" on="0"/>
        <pt x="171" y="432" on="0"/>
        <pt x="246" y="540" on="1"/>
        <pt x="322" y="650" on="0"/>
        <pt x="364" y="690" on="1"/>
        <pt x="379" y="705" on="0"/>
        <pt x="387" y="705" on="1"/>
        <pt x="392" y="705" on="0"/>
        <pt x="392" y="697" on="1"/>
        <pt x="392" y="695" on="0"/>
        <pt x="390" y="683" on="1"/>
        <pt x="381" y="643" on="0"/>
        <pt x="319" y="536" on="1"/>
        <pt x="195" y="334" on="0"/>
        <pt x="139" y="208" on="1"/>
        <pt x="102" y="137" on="0"/>
        <pt x="102" y="77" on="1"/>
        <pt x="102" y="43" on="0"/>
        <pt x="138" y="0" on="0"/>
        <pt x="170" y="0" on="1"/>
        <pt x="216" y="0" on="0"/>
        <pt x="303" y="74" on="0"/>
        <pt x="361" y="178" on="0"/>
        <pt x="397" y="286" on="0"/>
        <pt x="397" y="323" on="1"/>
        <pt x="397" y="412" on="0"/>
        <pt x="315" y="431" on="1"/>
        <pt x="314" y="435" on="0"/>
        <pt x="314" y="439" on="1"/>
        <pt x="314" y="451" on="0"/>
        <pt x="328" y="453" on="1"/>
        <pt x="405" y="453" on="0"/>
        <pt x="525" y="568" on="0"/>
        <pt x="525" y="643" on="1"/>
        <pt x="525" y="685" on="0"/>
        <pt x="463" y="750" on="0"/>
        <pt x="379" y="750" on="1"/>
        <pt x="288" y="750" on="0"/>
        <pt x="176" y="650" on="0"/>
        <pt x="176" y="586" on="1"/>
        <pt x="176" y="568" on="0"/>
        <pt x="183" y="553" on="1"/>
        <pt x="187" y="545" on="0"/>
        <pt x="187" y="540" on="1"/>
        <pt x="187" y="534" on="0"/>
        <pt x="181" y="534" on="1"/>
        <pt x="176" y="534" on="0"/>
        <pt x="172" y="536" on="1"/>
        <pt x="165" y="539" on="0"/>
        <pt x="145" y="549" on="0"/>
        <pt x="112" y="589" on="0"/>
        <pt x="112" y="613" on="1"/>
        <pt x="112" y="679" on="0"/>
        <pt x="274" y="774" on="0"/>
        <pt x="389" y="774" on="1"/>
        <pt x="401" y="774" on="0"/>
        <pt x="432" y="772" on="0"/>
        <pt x="502" y="756" on="0"/>
        <pt x="555" y="729" on="0"/>
        <pt x="597" y="671" on="0"/>
        <pt x="597" y="632" on="1"/>
        <pt x="597" y="591" on="0"/>
        <pt x="558" y="522" on="0"/>
        <pt x="493" y="475" on="0"/>
        <pt x="422" y="445" on="0"/>
        <pt x="384" y="437" on="1"/>
        <pt x="377" y="434" on="0"/>
        <pt x="377" y="431" on="1"/>
        <pt x="377" y="429" on="0"/>
        <pt x="383" y="426" on="1"/>
        <pt x="386" y="424" on="0"/>
        <pt x="398" y="418" on="0"/>
        <pt x="427" y="392" on="0"/>
        <pt x="450" y="361" on="0"/>
        <pt x="468" y="307" on="0"/>
        <pt x="468" y="277" on="1"/>
        <pt x="468" y="162" on="0"/>
        <pt x="297" y="-27" on="0"/>
      </contour>
    </TTGlyph>
    <TTGlyph name="C" xMin="28" yMin="-28" xMax="665" yMax="780">
      <contour>
        <pt x="464" y="240" on="1"/>
        <pt x="438" y="196" on="0"/>
        <pt x="365" y="107" on="0"/>
        <pt x="273" y="24" on="0"/>
        <pt x="163" y="-28" on="0"/>
        <pt x="111" y="-28" on="1"/>
        <pt x="28" y="-28" on="0"/>
        <pt x="28" y="96" on="1"/>
        <pt x="28" y="253" on="0"/>
        <pt x="211" y="597" on="0"/>
        <pt x="353" y="706" on="1"/>
        <pt x="362" y="713" on="0"/>
        <pt x="393" y="732" on="0"/>
        <pt x="478" y="765" on="0"/>
        <pt x="513" y="765" on="1"/>
        <pt x="540" y="765" on="0"/>
        <pt x="560" y="757" on="1"/>
        <pt x="562" y="756" on="0"/>
        <pt x="565" y="756" on="1"/>
        <pt x="572" y="756" on="0"/>
        <pt x="576" y="763" on="1"/>
        <pt x="597" y="780" on="0"/>
        <pt x="643" y="780" on="1"/>
        <pt x="651" y="780" on="1"/>
        <pt x="665" y="780" on="0"/>
        <pt x="665" y="766" on="1"/>
        <pt x="665" y="744" on="0"/>
        <pt x="600" y="648" on="0"/>
        <pt x="544" y="582" on="0"/>
        <pt x="522" y="558" on="1"/>
        <pt x="485" y="519" on="0"/>
        <pt x="470" y="519" on="1"/>
        <pt x="463" y="519" on="0"/>
        <pt x="463" y="529" on="1"/>
        <pt x="463" y="564" on="0"/>
        <pt x="520" y="666" on="1"/>
        <pt x="521" y="668" on="0"/>
        <pt x="539" y="696" on="0"/>
        <pt x="547" y="715" on="0"/>
        <pt x="547" y="723" on="1"/>
        <pt x="547" y="740" on="0"/>
        <pt x="520" y="740" on="1"/>
        <pt x="498" y="740" on="0"/>
        <pt x="445" y="712" on="0"/>
        <pt x="430" y="698" on="1"/>
        <pt x="414" y="684" on="1"/>
        <pt x="308" y="586" on="0"/>
        <pt x="137" y="265" on="0"/>
        <pt x="137" y="134" on="1"/>
        <pt x="137" y="39" on="0"/>
        <pt x="197" y="39" on="1"/>
        <pt x="205" y="39" on="0"/>
        <pt x="226" y="43" on="0"/>
        <pt x="277" y="66" on="0"/>
        <pt x="326" y="107" on="0"/>
        <pt x="391" y="192" on="0"/>
        <pt x="420" y="249" on="1"/>
        <pt x="428" y="265" on="0"/>
        <pt x="454" y="324" on="0"/>
        <pt x="469" y="352" on="0"/>
        <pt x="474" y="352" on="1"/>
        <pt x="481" y="352" on="0"/>
        <pt x="489" y="327" on="0"/>
        <pt x="489" y="318" on="1"/>
        <pt x="489" y="281" on="0"/>
      </contour>
    </TTGlyph>
    <TTGlyph name="Ccedilla" xMin="28" yMin="-128" xMax="665" yMax="780">
      <contour>
        <pt x="464" y="240" on="1"/>
        <pt x="412" y="152" on="0"/>
        <pt x="241" y="-7" on="0"/>
        <pt x="152" y="-24" on="1"/>
        <pt x="135" y="-33" on="0"/>
        <pt x="135" y="-47" on="1"/>
        <pt x="135" y="-52" on="0"/>
        <pt x="145" y="-73" on="0"/>
        <pt x="145" y="-81" on="1"/>
        <pt x="145" y="-101" on="0"/>
        <pt x="113" y="-128" on="0"/>
        <pt x="91" y="-128" on="1"/>
        <pt x="60" y="-128" on="0"/>
        <pt x="56" y="-110" on="1"/>
        <pt x="56" y="-103" on="0"/>
        <pt x="63" y="-103" on="1"/>
        <pt x="66" y="-103" on="0"/>
        <pt x="80" y="-107" on="0"/>
        <pt x="84" y="-107" on="1"/>
        <pt x="94" y="-107" on="0"/>
        <pt x="112" y="-94" on="0"/>
        <pt x="112" y="-83" on="1"/>
        <pt x="112" y="-77" on="0"/>
        <pt x="101" y="-62" on="0"/>
        <pt x="101" y="-57" on="1"/>
        <pt x="101" y="-51" on="0"/>
        <pt x="110" y="-38" on="0"/>
        <pt x="115" y="-34" on="1"/>
        <pt x="120" y="-31" on="1"/>
        <pt x="122" y="-29" on="0"/>
        <pt x="122" y="-27" on="1"/>
        <pt x="120" y="-27" on="0"/>
        <pt x="113" y="-28" on="0"/>
        <pt x="111" y="-28" on="1"/>
        <pt x="28" y="-28" on="0"/>
        <pt x="28" y="96" on="1"/>
        <pt x="28" y="253" on="0"/>
        <pt x="211" y="597" on="0"/>
        <pt x="353" y="706" on="1"/>
        <pt x="362" y="713" on="0"/>
        <pt x="393" y="732" on="0"/>
        <pt x="478" y="765" on="0"/>
        <pt x="513" y="765" on="1"/>
        <pt x="540" y="765" on="0"/>
        <pt x="560" y="757" on="1"/>
        <pt x="562" y="756" on="0"/>
        <pt x="565" y="756" on="1"/>
        <pt x="572" y="756" on="0"/>
        <pt x="576" y="763" on="1"/>
        <pt x="597" y="780" on="0"/>
        <pt x="643" y="780" on="1"/>
        <pt x="651" y="780" on="1"/>
        <pt x="665" y="780" on="0"/>
        <pt x="665" y="766" on="1"/>
        <pt x="665" y="744" on="0"/>
        <pt x="600" y="648" on="0"/>
        <pt x="544" y="582" on="0"/>
        <pt x="522" y="558" on="1"/>
        <pt x="485" y="519" on="0"/>
        <pt x="470" y="519" on="1"/>
        <pt x="463" y="519" on="0"/>
        <pt x="463" y="529" on="1"/>
        <pt x="463" y="564" on="0"/>
        <pt x="520" y="666" on="1"/>
        <pt x="521" y="668" on="0"/>
        <pt x="539" y="696" on="0"/>
        <pt x="547" y="715" on="0"/>
        <pt x="547" y="723" on="1"/>
        <pt x="547" y="740" on="0"/>
        <pt x="520" y="740" on="1"/>
        <pt x="498" y="740" on="0"/>
        <pt x="445" y="712" on="0"/>
        <pt x="430" y="698" on="1"/>
        <pt x="414" y="684" on="1"/>
        <pt x="308" y="586" on="0"/>
        <pt x="137" y="265" on="0"/>
        <pt x="137" y="134" on="1"/>
        <pt x="137" y="39" on="0"/>
        <pt x="197" y="39" on="1"/>
        <pt x="205" y="39" on="0"/>
        <pt x="226" y="43" on="0"/>
        <pt x="277" y="66" on="0"/>
        <pt x="326" y="107" on="0"/>
        <pt x="391" y="192" on="0"/>
        <pt x="420" y="249" on="1"/>
        <pt x="428" y="265" on="0"/>
        <pt x="454" y="324" on="0"/>
        <pt x="469" y="352" on="0"/>
        <pt x="474" y="352" on="1"/>
        <pt x="481" y="352" on="0"/>
        <pt x="489" y="327" on="0"/>
        <pt x="489" y="318" on="1"/>
        <pt x="489" y="281" on="0"/>
      </contour>
    </TTGlyph>
    <TTGlyph name="D" xMin="-49" yMin="-24" xMax="561" yMax="774">
      <contour>
        <pt x="278" y="774" on="1"/>
        <pt x="408" y="774" on="0"/>
        <pt x="561" y="612" on="0"/>
        <pt x="561" y="473" on="1"/>
        <pt x="561" y="389" on="0"/>
        <pt x="479" y="212" on="0"/>
        <pt x="343" y="68" on="0"/>
        <pt x="147" y="-24" on="0"/>
        <pt x="42" y="-24" on="1"/>
        <pt x="22" y="-24" on="0"/>
        <pt x="-16" y="-21" on="0"/>
        <pt x="-24" y="-20" on="1"/>
        <pt x="-33" y="-18" on="1"/>
        <pt x="-49" y="-14" on="0"/>
        <pt x="-49" y="-2" on="1"/>
        <pt x="-46" y="8" on="1"/>
        <pt x="-36" y="32" on="0"/>
        <pt x="1" y="116" on="0"/>
        <pt x="136" y="362" on="0"/>
        <pt x="213" y="477" on="1"/>
        <pt x="285" y="585" on="0"/>
        <pt x="327" y="627" on="1"/>
        <pt x="341" y="642" on="0"/>
        <pt x="350" y="642" on="1"/>
        <pt x="357" y="642" on="0"/>
        <pt x="357" y="630" on="1"/>
        <pt x="357" y="622" on="0"/>
        <pt x="356" y="620" on="1"/>
        <pt x="347" y="581" on="0"/>
        <pt x="292" y="473" on="1"/>
        <pt x="110" y="151" on="0"/>
        <pt x="64" y="25" on="1"/>
        <pt x="63" y="22" on="0"/>
        <pt x="63" y="18" on="1"/>
        <pt x="63" y="8" on="0"/>
        <pt x="71" y="7" on="1"/>
        <pt x="77" y="6" on="0"/>
        <pt x="89" y="6" on="1"/>
        <pt x="177" y="6" on="0"/>
        <pt x="364" y="176" on="0"/>
        <pt x="486" y="431" on="0"/>
        <pt x="486" y="546" on="1"/>
        <pt x="486" y="630" on="0"/>
        <pt x="390" y="743" on="0"/>
        <pt x="308" y="743" on="1"/>
        <pt x="266" y="743" on="0"/>
        <pt x="211" y="697" on="0"/>
        <pt x="211" y="653" on="1"/>
        <pt x="211" y="618" on="0"/>
        <pt x="232" y="581" on="1"/>
        <pt x="234" y="575" on="0"/>
        <pt x="234" y="569" on="1"/>
        <pt x="234" y="561" on="0"/>
        <pt x="228" y="561" on="1"/>
        <pt x="225" y="561" on="0"/>
        <pt x="219" y="564" on="1"/>
        <pt x="196" y="576" on="0"/>
        <pt x="140" y="652" on="0"/>
        <pt x="140" y="693" on="1"/>
        <pt x="140" y="725" on="0"/>
        <pt x="188" y="763" on="0"/>
        <pt x="244" y="774" on="0"/>
      </contour>
    </TTGlyph>
    <TTGlyph name="E" xMin="-45" yMin="-14" xMax="685" yMax="759">
      <contour>
        <pt x="413" y="414" on="1"/>
        <pt x="351" y="411" on="0"/>
        <pt x="275" y="411" on="1"/>
        <pt x="263" y="411" on="1"/>
        <pt x="122" y="155" on="0"/>
        <pt x="95" y="64" on="1"/>
        <pt x="91" y="52" on="0"/>
        <pt x="91" y="42" on="1"/>
        <pt x="91" y="12" on="0"/>
        <pt x="144" y="12" on="1"/>
        <pt x="166" y="12" on="0"/>
        <pt x="218" y="29" on="0"/>
        <pt x="293" y="72" on="0"/>
        <pt x="387" y="166" on="0"/>
        <pt x="436" y="233" on="1"/>
        <pt x="442" y="244" on="0"/>
        <pt x="454" y="244" on="1"/>
        <pt x="462" y="244" on="0"/>
        <pt x="462" y="236" on="1"/>
        <pt x="462" y="234" on="0"/>
        <pt x="460" y="228" on="1"/>
        <pt x="412" y="105" on="0"/>
        <pt x="338" y="8" on="1"/>
        <pt x="332" y="-6" on="0"/>
        <pt x="308" y="-10" on="1"/>
        <pt x="226" y="-14" on="0"/>
        <pt x="135" y="-14" on="1"/>
        <pt x="31" y="-14" on="0"/>
        <pt x="-33" y="-7" on="1"/>
        <pt x="-45" y="-6" on="0"/>
        <pt x="-45" y="7" on="1"/>
        <pt x="-45" y="15" on="0"/>
        <pt x="-41" y="23" on="1"/>
        <pt x="16" y="151" on="0"/>
        <pt x="174" y="412" on="1"/>
        <pt x="129" y="413" on="1"/>
        <pt x="116" y="413" on="0"/>
        <pt x="116" y="429" on="0"/>
        <pt x="133" y="442" on="0"/>
        <pt x="142" y="442" on="1"/>
        <pt x="193" y="442" on="1"/>
        <pt x="314" y="636" on="1"/>
        <pt x="329" y="663" on="0"/>
        <pt x="329" y="685" on="1"/>
        <pt x="329" y="700" on="0"/>
        <pt x="316" y="722" on="0"/>
        <pt x="309" y="726" on="1"/>
        <pt x="302" y="730" on="1"/>
        <pt x="293" y="735" on="0"/>
        <pt x="293" y="741" on="1"/>
        <pt x="293" y="745" on="0"/>
        <pt x="300" y="751" on="0"/>
        <pt x="304" y="752" on="1"/>
        <pt x="308" y="753" on="1"/>
        <pt x="411" y="759" on="0"/>
        <pt x="522" y="759" on="1"/>
        <pt x="614" y="759" on="0"/>
        <pt x="670" y="754" on="1"/>
        <pt x="685" y="754" on="0"/>
        <pt x="685" y="741" on="1"/>
        <pt x="685" y="738" on="0"/>
        <pt x="682" y="730" on="1"/>
        <pt x="649" y="647" on="0"/>
        <pt x="615" y="600" on="1"/>
        <pt x="610" y="595" on="0"/>
        <pt x="604" y="595" on="1"/>
        <pt x="595" y="595" on="0"/>
        <pt x="595" y="608" on="1"/>
        <pt x="600" y="627" on="0"/>
        <pt x="600" y="649" on="1"/>
        <pt x="600" y="731" on="0"/>
        <pt x="518" y="731" on="1"/>
        <pt x="514" y="731" on="1"/>
        <pt x="463" y="731" on="0"/>
        <pt x="441" y="703" on="1"/>
        <pt x="390" y="640" on="0"/>
        <pt x="305" y="486" on="1"/>
        <pt x="295" y="469" on="0"/>
        <pt x="280" y="443" on="1"/>
        <pt x="430" y="443" on="1"/>
        <pt x="440" y="443" on="0"/>
        <pt x="440" y="431" on="0"/>
        <pt x="423" y="415" on="0"/>
      </contour>
    </TTGlyph>
    <TTGlyph name="Eacute" xMin="-45" yMin="-14" xMax="685" yMax="916">
      <contour>
        <pt x="413" y="414" on="1"/>
        <pt x="351" y="411" on="0"/>
        <pt x="275" y="411" on="1"/>
        <pt x="263" y="411" on="1"/>
        <pt x="122" y="155" on="0"/>
        <pt x="95" y="64" on="1"/>
        <pt x="91" y="52" on="0"/>
        <pt x="91" y="42" on="1"/>
        <pt x="91" y="12" on="0"/>
        <pt x="144" y="12" on="1"/>
        <pt x="166" y="12" on="0"/>
        <pt x="218" y="29" on="0"/>
        <pt x="293" y="72" on="0"/>
        <pt x="387" y="166" on="0"/>
        <pt x="436" y="233" on="1"/>
        <pt x="442" y="244" on="0"/>
        <pt x="454" y="244" on="1"/>
        <pt x="462" y="244" on="0"/>
        <pt x="462" y="236" on="1"/>
        <pt x="462" y="234" on="0"/>
        <pt x="460" y="228" on="1"/>
        <pt x="412" y="105" on="0"/>
        <pt x="338" y="8" on="1"/>
        <pt x="332" y="-6" on="0"/>
        <pt x="308" y="-10" on="1"/>
        <pt x="226" y="-14" on="0"/>
        <pt x="135" y="-14" on="1"/>
        <pt x="31" y="-14" on="0"/>
        <pt x="-33" y="-7" on="1"/>
        <pt x="-45" y="-6" on="0"/>
        <pt x="-45" y="7" on="1"/>
        <pt x="-45" y="15" on="0"/>
        <pt x="-41" y="23" on="1"/>
        <pt x="16" y="151" on="0"/>
        <pt x="174" y="412" on="1"/>
        <pt x="129" y="413" on="1"/>
        <pt x="116" y="413" on="0"/>
        <pt x="116" y="429" on="0"/>
        <pt x="133" y="442" on="0"/>
        <pt x="142" y="442" on="1"/>
        <pt x="193" y="442" on="1"/>
        <pt x="314" y="636" on="1"/>
        <pt x="329" y="663" on="0"/>
        <pt x="329" y="685" on="1"/>
        <pt x="329" y="700" on="0"/>
        <pt x="316" y="722" on="0"/>
        <pt x="309" y="726" on="1"/>
        <pt x="302" y="730" on="1"/>
        <pt x="293" y="735" on="0"/>
        <pt x="293" y="741" on="1"/>
        <pt x="293" y="745" on="0"/>
        <pt x="300" y="751" on="0"/>
        <pt x="304" y="752" on="1"/>
        <pt x="308" y="753" on="1"/>
        <pt x="411" y="759" on="0"/>
        <pt x="522" y="759" on="1"/>
        <pt x="614" y="759" on="0"/>
        <pt x="670" y="754" on="1"/>
        <pt x="685" y="754" on="0"/>
        <pt x="685" y="741" on="1"/>
        <pt x="685" y="738" on="0"/>
        <pt x="682" y="730" on="1"/>
        <pt x="649" y="647" on="0"/>
        <pt x="615" y="600" on="1"/>
        <pt x="610" y="595" on="0"/>
        <pt x="604" y="595" on="1"/>
        <pt x="595" y="595" on="0"/>
        <pt x="595" y="608" on="1"/>
        <pt x="600" y="627" on="0"/>
        <pt x="600" y="649" on="1"/>
        <pt x="600" y="731" on="0"/>
        <pt x="518" y="731" on="1"/>
        <pt x="514" y="731" on="1"/>
        <pt x="463" y="731" on="0"/>
        <pt x="441" y="703" on="1"/>
        <pt x="390" y="640" on="0"/>
        <pt x="305" y="486" on="1"/>
        <pt x="295" y="469" on="0"/>
        <pt x="280" y="443" on="1"/>
        <pt x="430" y="443" on="1"/>
        <pt x="440" y="443" on="0"/>
        <pt x="440" y="431" on="0"/>
        <pt x="423" y="415" on="0"/>
      </contour>
      <contour>
        <pt x="652" y="901" on="1"/>
        <pt x="625" y="870" on="0"/>
        <pt x="550" y="823" on="0"/>
        <pt x="526" y="815" on="1"/>
        <pt x="503" y="807" on="1"/>
        <pt x="492" y="807" on="0"/>
        <pt x="492" y="811" on="1"/>
        <pt x="492" y="814" on="0"/>
        <pt x="496" y="820" on="1"/>
        <pt x="506" y="828" on="0"/>
        <pt x="546" y="871" on="0"/>
        <pt x="561" y="889" on="1"/>
        <pt x="576" y="907" on="1"/>
        <pt x="582" y="916" on="0"/>
        <pt x="595" y="916" on="1"/>
        <pt x="644" y="916" on="1"/>
        <pt x="656" y="916" on="0"/>
        <pt x="656" y="909" on="1"/>
        <pt x="656" y="905" on="0"/>
      </contour>
    </TTGlyph>
    <TTGlyph name="Ecircumflex" xMin="-45" yMin="-14" xMax="685" yMax="903">
      <contour>
        <pt x="413" y="414" on="1"/>
        <pt x="351" y="411" on="0"/>
        <pt x="275" y="411" on="1"/>
        <pt x="263" y="411" on="1"/>
        <pt x="122" y="155" on="0"/>
        <pt x="95" y="64" on="1"/>
        <pt x="91" y="52" on="0"/>
        <pt x="91" y="42" on="1"/>
        <pt x="91" y="12" on="0"/>
        <pt x="144" y="12" on="1"/>
        <pt x="166" y="12" on="0"/>
        <pt x="218" y="29" on="0"/>
        <pt x="293" y="72" on="0"/>
        <pt x="387" y="166" on="0"/>
        <pt x="436" y="233" on="1"/>
        <pt x="442" y="244" on="0"/>
        <pt x="454" y="244" on="1"/>
        <pt x="462" y="244" on="0"/>
        <pt x="462" y="236" on="1"/>
        <pt x="462" y="234" on="0"/>
        <pt x="460" y="228" on="1"/>
        <pt x="412" y="105" on="0"/>
        <pt x="338" y="8" on="1"/>
        <pt x="332" y="-6" on="0"/>
        <pt x="308" y="-10" on="1"/>
        <pt x="226" y="-14" on="0"/>
        <pt x="135" y="-14" on="1"/>
        <pt x="31" y="-14" on="0"/>
        <pt x="-33" y="-7" on="1"/>
        <pt x="-45" y="-6" on="0"/>
        <pt x="-45" y="7" on="1"/>
        <pt x="-45" y="15" on="0"/>
        <pt x="-41" y="23" on="1"/>
        <pt x="16" y="151" on="0"/>
        <pt x="174" y="412" on="1"/>
        <pt x="129" y="413" on="1"/>
        <pt x="116" y="413" on="0"/>
        <pt x="116" y="429" on="0"/>
        <pt x="133" y="442" on="0"/>
        <pt x="142" y="442" on="1"/>
        <pt x="193" y="442" on="1"/>
        <pt x="314" y="636" on="1"/>
        <pt x="329" y="663" on="0"/>
        <pt x="329" y="685" on="1"/>
        <pt x="329" y="700" on="0"/>
        <pt x="316" y="722" on="0"/>
        <pt x="309" y="726" on="1"/>
        <pt x="302" y="730" on="1"/>
        <pt x="293" y="735" on="0"/>
        <pt x="293" y="741" on="1"/>
        <pt x="293" y="745" on="0"/>
        <pt x="300" y="751" on="0"/>
        <pt x="304" y="752" on="1"/>
        <pt x="308" y="753" on="1"/>
        <pt x="411" y="759" on="0"/>
        <pt x="522" y="759" on="1"/>
        <pt x="614" y="759" on="0"/>
        <pt x="670" y="754" on="1"/>
        <pt x="685" y="754" on="0"/>
        <pt x="685" y="741" on="1"/>
        <pt x="685" y="738" on="0"/>
        <pt x="682" y="730" on="1"/>
        <pt x="649" y="647" on="0"/>
        <pt x="615" y="600" on="1"/>
        <pt x="610" y="595" on="0"/>
        <pt x="604" y="595" on="1"/>
        <pt x="595" y="595" on="0"/>
        <pt x="595" y="608" on="1"/>
        <pt x="600" y="627" on="0"/>
        <pt x="600" y="649" on="1"/>
        <pt x="600" y="731" on="0"/>
        <pt x="518" y="731" on="1"/>
        <pt x="514" y="731" on="1"/>
        <pt x="463" y="731" on="0"/>
        <pt x="441" y="703" on="1"/>
        <pt x="390" y="640" on="0"/>
        <pt x="305" y="486" on="1"/>
        <pt x="295" y="469" on="0"/>
        <pt x="280" y="443" on="1"/>
        <pt x="430" y="443" on="1"/>
        <pt x="440" y="443" on="0"/>
        <pt x="440" y="431" on="0"/>
        <pt x="423" y="415" on="0"/>
      </contour>
      <contour>
        <pt x="561" y="870" on="1"/>
        <pt x="560" y="874" on="0"/>
        <pt x="558" y="874" on="1"/>
        <pt x="552" y="870" on="1"/>
        <pt x="519" y="837" on="0"/>
        <pt x="433" y="794" on="0"/>
        <pt x="416" y="794" on="1"/>
        <pt x="409" y="794" on="0"/>
        <pt x="409" y="798" on="1"/>
        <pt x="413" y="807" on="1"/>
        <pt x="423" y="815" on="0"/>
        <pt x="463" y="858" on="0"/>
        <pt x="478" y="876" on="1"/>
        <pt x="493" y="894" on="1"/>
        <pt x="499" y="903" on="0"/>
        <pt x="512" y="903" on="1"/>
        <pt x="621" y="903" on="1"/>
        <pt x="629" y="903" on="0"/>
        <pt x="629" y="896" on="1"/>
        <pt x="629" y="895" on="0"/>
        <pt x="625" y="865" on="0"/>
        <pt x="621" y="818" on="0"/>
        <pt x="621" y="798" on="1"/>
        <pt x="621" y="788" on="0"/>
        <pt x="615" y="788" on="1"/>
        <pt x="600" y="788" on="0"/>
        <pt x="566" y="847" on="0"/>
      </contour>
    </TTGlyph>
    <TTGlyph name="Edieresis" xMin="-45" yMin="-14" xMax="685" yMax="897">
      <contour>
        <pt x="413" y="414" on="1"/>
        <pt x="351" y="411" on="0"/>
        <pt x="275" y="411" on="1"/>
        <pt x="263" y="411" on="1"/>
        <pt x="122" y="155" on="0"/>
        <pt x="95" y="64" on="1"/>
        <pt x="91" y="52" on="0"/>
        <pt x="91" y="42" on="1"/>
        <pt x="91" y="12" on="0"/>
        <pt x="144" y="12" on="1"/>
        <pt x="166" y="12" on="0"/>
        <pt x="218" y="29" on="0"/>
        <pt x="293" y="72" on="0"/>
        <pt x="387" y="166" on="0"/>
        <pt x="436" y="233" on="1"/>
        <pt x="442" y="244" on="0"/>
        <pt x="454" y="244" on="1"/>
        <pt x="462" y="244" on="0"/>
        <pt x="462" y="236" on="1"/>
        <pt x="462" y="234" on="0"/>
        <pt x="460" y="228" on="1"/>
        <pt x="412" y="105" on="0"/>
        <pt x="338" y="8" on="1"/>
        <pt x="332" y="-6" on="0"/>
        <pt x="308" y="-10" on="1"/>
        <pt x="226" y="-14" on="0"/>
        <pt x="135" y="-14" on="1"/>
        <pt x="31" y="-14" on="0"/>
        <pt x="-33" y="-7" on="1"/>
        <pt x="-45" y="-6" on="0"/>
        <pt x="-45" y="7" on="1"/>
        <pt x="-45" y="15" on="0"/>
        <pt x="-41" y="23" on="1"/>
        <pt x="16" y="151" on="0"/>
        <pt x="174" y="412" on="1"/>
        <pt x="129" y="413" on="1"/>
        <pt x="116" y="413" on="0"/>
        <pt x="116" y="429" on="0"/>
        <pt x="133" y="442" on="0"/>
        <pt x="142" y="442" on="1"/>
        <pt x="193" y="442" on="1"/>
        <pt x="314" y="636" on="1"/>
        <pt x="329" y="663" on="0"/>
        <pt x="329" y="685" on="1"/>
        <pt x="329" y="700" on="0"/>
        <pt x="316" y="722" on="0"/>
        <pt x="309" y="726" on="1"/>
        <pt x="302" y="730" on="1"/>
        <pt x="293" y="735" on="0"/>
        <pt x="293" y="741" on="1"/>
        <pt x="293" y="745" on="0"/>
        <pt x="300" y="751" on="0"/>
        <pt x="304" y="752" on="1"/>
        <pt x="308" y="753" on="1"/>
        <pt x="411" y="759" on="0"/>
        <pt x="522" y="759" on="1"/>
        <pt x="614" y="759" on="0"/>
        <pt x="670" y="754" on="1"/>
        <pt x="685" y="754" on="0"/>
        <pt x="685" y="741" on="1"/>
        <pt x="685" y="738" on="0"/>
        <pt x="682" y="730" on="1"/>
        <pt x="649" y="647" on="0"/>
        <pt x="615" y="600" on="1"/>
        <pt x="610" y="595" on="0"/>
        <pt x="604" y="595" on="1"/>
        <pt x="595" y="595" on="0"/>
        <pt x="595" y="608" on="1"/>
        <pt x="600" y="627" on="0"/>
        <pt x="600" y="649" on="1"/>
        <pt x="600" y="731" on="0"/>
        <pt x="518" y="731" on="1"/>
        <pt x="514" y="731" on="1"/>
        <pt x="463" y="731" on="0"/>
        <pt x="441" y="703" on="1"/>
        <pt x="390" y="640" on="0"/>
        <pt x="305" y="486" on="1"/>
        <pt x="295" y="469" on="0"/>
        <pt x="280" y="443" on="1"/>
        <pt x="430" y="443" on="1"/>
        <pt x="440" y="443" on="0"/>
        <pt x="440" y="431" on="0"/>
        <pt x="423" y="415" on="0"/>
      </contour>
      <contour>
        <pt x="430" y="799" on="1"/>
        <pt x="405" y="799" on="0"/>
        <pt x="405" y="827" on="1"/>
        <pt x="405" y="852" on="0"/>
        <pt x="445" y="897" on="0"/>
        <pt x="466" y="897" on="1"/>
        <pt x="491" y="897" on="0"/>
        <pt x="491" y="870" on="1"/>
        <pt x="491" y="845" on="0"/>
        <pt x="453" y="799" on="0"/>
      </contour>
      <contour>
        <pt x="591" y="799" on="1"/>
        <pt x="566" y="799" on="0"/>
        <pt x="566" y="827" on="1"/>
        <pt x="566" y="853" on="0"/>
        <pt x="606" y="897" on="0"/>
        <pt x="628" y="897" on="1"/>
        <pt x="652" y="897" on="0"/>
        <pt x="652" y="869" on="1"/>
        <pt x="652" y="844" on="0"/>
        <pt x="614" y="799" on="0"/>
      </contour>
    </TTGlyph>
    <TTGlyph name="Egrave" xMin="-45" yMin="-14" xMax="685" yMax="911">
      <contour>
        <pt x="413" y="414" on="1"/>
        <pt x="351" y="411" on="0"/>
        <pt x="275" y="411" on="1"/>
        <pt x="263" y="411" on="1"/>
        <pt x="122" y="155" on="0"/>
        <pt x="95" y="64" on="1"/>
        <pt x="91" y="52" on="0"/>
        <pt x="91" y="42" on="1"/>
        <pt x="91" y="12" on="0"/>
        <pt x="144" y="12" on="1"/>
        <pt x="166" y="12" on="0"/>
        <pt x="218" y="29" on="0"/>
        <pt x="293" y="72" on="0"/>
        <pt x="387" y="166" on="0"/>
        <pt x="436" y="233" on="1"/>
        <pt x="442" y="244" on="0"/>
        <pt x="454" y="244" on="1"/>
        <pt x="462" y="244" on="0"/>
        <pt x="462" y="236" on="1"/>
        <pt x="462" y="234" on="0"/>
        <pt x="460" y="228" on="1"/>
        <pt x="412" y="105" on="0"/>
        <pt x="338" y="8" on="1"/>
        <pt x="332" y="-6" on="0"/>
        <pt x="308" y="-10" on="1"/>
        <pt x="226" y="-14" on="0"/>
        <pt x="135" y="-14" on="1"/>
        <pt x="31" y="-14" on="0"/>
        <pt x="-33" y="-7" on="1"/>
        <pt x="-45" y="-6" on="0"/>
        <pt x="-45" y="7" on="1"/>
        <pt x="-45" y="15" on="0"/>
        <pt x="-41" y="23" on="1"/>
        <pt x="16" y="151" on="0"/>
        <pt x="174" y="412" on="1"/>
        <pt x="129" y="413" on="1"/>
        <pt x="116" y="413" on="0"/>
        <pt x="116" y="429" on="0"/>
        <pt x="133" y="442" on="0"/>
        <pt x="142" y="442" on="1"/>
        <pt x="193" y="442" on="1"/>
        <pt x="314" y="636" on="1"/>
        <pt x="329" y="663" on="0"/>
        <pt x="329" y="685" on="1"/>
        <pt x="329" y="700" on="0"/>
        <pt x="316" y="722" on="0"/>
        <pt x="309" y="726" on="1"/>
        <pt x="302" y="730" on="1"/>
        <pt x="293" y="735" on="0"/>
        <pt x="293" y="741" on="1"/>
        <pt x="293" y="745" on="0"/>
        <pt x="300" y="751" on="0"/>
        <pt x="304" y="752" on="1"/>
        <pt x="308" y="753" on="1"/>
        <pt x="411" y="759" on="0"/>
        <pt x="522" y="759" on="1"/>
        <pt x="614" y="759" on="0"/>
        <pt x="670" y="754" on="1"/>
        <pt x="685" y="754" on="0"/>
        <pt x="685" y="741" on="1"/>
        <pt x="685" y="738" on="0"/>
        <pt x="682" y="730" on="1"/>
        <pt x="649" y="647" on="0"/>
        <pt x="615" y="600" on="1"/>
        <pt x="610" y="595" on="0"/>
        <pt x="604" y="595" on="1"/>
        <pt x="595" y="595" on="0"/>
        <pt x="595" y="608" on="1"/>
        <pt x="600" y="627" on="0"/>
        <pt x="600" y="649" on="1"/>
        <pt x="600" y="731" on="0"/>
        <pt x="518" y="731" on="1"/>
        <pt x="514" y="731" on="1"/>
        <pt x="463" y="731" on="0"/>
        <pt x="441" y="703" on="1"/>
        <pt x="390" y="640" on="0"/>
        <pt x="305" y="486" on="1"/>
        <pt x="295" y="469" on="0"/>
        <pt x="280" y="443" on="1"/>
        <pt x="430" y="443" on="1"/>
        <pt x="440" y="443" on="0"/>
        <pt x="440" y="431" on="0"/>
        <pt x="423" y="415" on="0"/>
      </contour>
      <contour>
        <pt x="584" y="802" on="1"/>
        <pt x="584" y="796" on="0"/>
        <pt x="579" y="796" on="1"/>
        <pt x="575" y="796" on="0"/>
        <pt x="566" y="802" on="1"/>
        <pt x="548" y="814" on="0"/>
        <pt x="518" y="864" on="0"/>
        <pt x="512" y="882" on="1"/>
        <pt x="506" y="901" on="1"/>
        <pt x="506" y="911" on="0"/>
        <pt x="514" y="911" on="1"/>
        <pt x="568" y="911" on="1"/>
        <pt x="579" y="911" on="0"/>
        <pt x="579" y="900" on="1"/>
        <pt x="579" y="878" on="1"/>
        <pt x="579" y="836" on="0"/>
      </contour>
    </TTGlyph>
    <TTGlyph name="Eth" xMin="-49" yMin="-24" xMax="561" yMax="774">
      <contour>
        <pt x="304" y="306" on="1"/>
        <pt x="200" y="306" on="1"/>
        <pt x="96" y="112" on="0"/>
        <pt x="64" y="25" on="1"/>
        <pt x="63" y="22" on="0"/>
        <pt x="63" y="18" on="1"/>
        <pt x="63" y="8" on="0"/>
        <pt x="71" y="7" on="1"/>
        <pt x="77" y="6" on="0"/>
        <pt x="89" y="6" on="1"/>
        <pt x="177" y="6" on="0"/>
        <pt x="364" y="176" on="0"/>
        <pt x="486" y="431" on="0"/>
        <pt x="486" y="546" on="1"/>
        <pt x="486" y="630" on="0"/>
        <pt x="390" y="743" on="0"/>
        <pt x="308" y="743" on="1"/>
        <pt x="266" y="743" on="0"/>
        <pt x="211" y="697" on="0"/>
        <pt x="211" y="653" on="1"/>
        <pt x="211" y="618" on="0"/>
        <pt x="232" y="581" on="1"/>
        <pt x="234" y="575" on="0"/>
        <pt x="234" y="569" on="1"/>
        <pt x="234" y="561" on="0"/>
        <pt x="228" y="561" on="1"/>
        <pt x="225" y="561" on="0"/>
        <pt x="219" y="564" on="1"/>
        <pt x="196" y="576" on="0"/>
        <pt x="140" y="652" on="0"/>
        <pt x="140" y="693" on="1"/>
        <pt x="140" y="725" on="0"/>
        <pt x="188" y="763" on="0"/>
        <pt x="244" y="774" on="0"/>
        <pt x="278" y="774" on="1"/>
        <pt x="408" y="774" on="0"/>
        <pt x="561" y="612" on="0"/>
        <pt x="561" y="473" on="1"/>
        <pt x="561" y="389" on="0"/>
        <pt x="479" y="212" on="0"/>
        <pt x="343" y="68" on="0"/>
        <pt x="147" y="-24" on="0"/>
        <pt x="42" y="-24" on="1"/>
        <pt x="22" y="-24" on="0"/>
        <pt x="-16" y="-21" on="0"/>
        <pt x="-24" y="-20" on="1"/>
        <pt x="-33" y="-18" on="1"/>
        <pt x="-49" y="-14" on="0"/>
        <pt x="-49" y="-2" on="1"/>
        <pt x="-46" y="8" on="1"/>
        <pt x="4" y="132" on="0"/>
        <pt x="105" y="306" on="1"/>
        <pt x="36" y="306" on="1"/>
        <pt x="19" y="306" on="0"/>
        <pt x="19" y="316" on="1"/>
        <pt x="19" y="324" on="0"/>
        <pt x="44" y="351" on="0"/>
        <pt x="55" y="351" on="1"/>
        <pt x="132" y="351" on="1"/>
        <pt x="249" y="541" on="0"/>
        <pt x="327" y="627" on="1"/>
        <pt x="341" y="642" on="0"/>
        <pt x="350" y="642" on="1"/>
        <pt x="357" y="642" on="0"/>
        <pt x="357" y="630" on="1"/>
        <pt x="357" y="622" on="0"/>
        <pt x="356" y="620" on="1"/>
        <pt x="347" y="581" on="0"/>
        <pt x="292" y="473" on="1"/>
        <pt x="262" y="420" on="0"/>
        <pt x="224" y="351" on="1"/>
        <pt x="322" y="351" on="1"/>
        <pt x="339" y="351" on="0"/>
        <pt x="339" y="342" on="1"/>
        <pt x="339" y="332" on="0"/>
        <pt x="316" y="308" on="0"/>
      </contour>
    </TTGlyph>
    <TTGlyph name="Euro" xMin="116" yMin="-21" xMax="742" yMax="767">
      <contour>
        <pt x="484" y="449" on="1"/>
        <pt x="432" y="448" on="0"/>
        <pt x="332" y="448" on="1"/>
        <pt x="311" y="405" on="1"/>
        <pt x="336" y="405" on="0"/>
        <pt x="433" y="406" on="0"/>
        <pt x="457" y="406" on="1"/>
        <pt x="465" y="406" on="0"/>
        <pt x="467" y="404" on="1"/>
        <pt x="468" y="403" on="0"/>
        <pt x="468" y="400" on="1"/>
        <pt x="468" y="394" on="0"/>
        <pt x="452" y="379" on="0"/>
        <pt x="442" y="377" on="1"/>
        <pt x="392" y="376" on="0"/>
        <pt x="297" y="376" on="1"/>
        <pt x="231" y="230" on="0"/>
        <pt x="231" y="131" on="1"/>
        <pt x="231" y="76" on="0"/>
        <pt x="281" y="7" on="0"/>
        <pt x="330" y="7" on="1"/>
        <pt x="394" y="7" on="0"/>
        <pt x="449" y="61" on="1"/>
        <pt x="462" y="74" on="0"/>
        <pt x="469" y="74" on="1"/>
        <pt x="474" y="74" on="0"/>
        <pt x="474" y="66" on="1"/>
        <pt x="474" y="26" on="0"/>
        <pt x="440" y="9" on="1"/>
        <pt x="381" y="-21" on="0"/>
        <pt x="304" y="-21" on="1"/>
        <pt x="214" y="-21" on="0"/>
        <pt x="129" y="82" on="0"/>
        <pt x="129" y="160" on="1"/>
        <pt x="129" y="254" on="0"/>
        <pt x="183" y="376" on="1"/>
        <pt x="129" y="376" on="1"/>
        <pt x="116" y="376" on="0"/>
        <pt x="116" y="383" on="1"/>
        <pt x="116" y="392" on="0"/>
        <pt x="133" y="405" on="0"/>
        <pt x="141" y="405" on="1"/>
        <pt x="196" y="405" on="1"/>
        <pt x="219" y="448" on="1"/>
        <pt x="171" y="448" on="1"/>
        <pt x="158" y="448" on="0"/>
        <pt x="158" y="455" on="1"/>
        <pt x="158" y="464" on="0"/>
        <pt x="175" y="477" on="0"/>
        <pt x="183" y="477" on="1"/>
        <pt x="236" y="477" on="1"/>
        <pt x="313" y="603" on="0"/>
        <pt x="523" y="767" on="0"/>
        <pt x="630" y="767" on="1"/>
        <pt x="716" y="767" on="0"/>
        <pt x="738" y="732" on="1"/>
        <pt x="742" y="726" on="0"/>
        <pt x="742" y="718" on="1"/>
        <pt x="742" y="701" on="0"/>
        <pt x="729" y="682" on="1"/>
        <pt x="724" y="674" on="0"/>
        <pt x="718" y="674" on="1"/>
        <pt x="715" y="674" on="0"/>
        <pt x="710" y="679" on="0"/>
        <pt x="709" y="682" on="1"/>
        <pt x="708" y="684" on="1"/>
        <pt x="686" y="740" on="0"/>
        <pt x="634" y="740" on="1"/>
        <pt x="566" y="740" on="0"/>
        <pt x="413" y="592" on="0"/>
        <pt x="348" y="477" on="1"/>
        <pt x="374" y="477" on="0"/>
        <pt x="474" y="478" on="0"/>
        <pt x="499" y="478" on="1"/>
        <pt x="507" y="478" on="0"/>
        <pt x="509" y="476" on="1"/>
        <pt x="510" y="475" on="0"/>
        <pt x="510" y="472" on="1"/>
        <pt x="510" y="466" on="0"/>
        <pt x="494" y="451" on="0"/>
      </contour>
    </TTGlyph>
    <TTGlyph name="F" xMin="-113" yMin="-161" xMax="669" yMax="759">
      <contour>
        <pt x="412" y="414" on="1"/>
        <pt x="257" y="414" on="1"/>
        <pt x="200" y="306" on="0"/>
        <pt x="125" y="147" on="1"/>
        <pt x="122" y="138" on="0"/>
        <pt x="109" y="107" on="0"/>
        <pt x="66" y="22" on="0"/>
        <pt x="19" y="-52" on="0"/>
        <pt x="-51" y="-133" on="0"/>
        <pt x="-87" y="-155" on="1"/>
        <pt x="-96" y="-161" on="0"/>
        <pt x="-103" y="-161" on="1"/>
        <pt x="-113" y="-161" on="0"/>
        <pt x="-113" y="-148" on="1"/>
        <pt x="-113" y="-140" on="0"/>
        <pt x="-107" y="-116" on="0"/>
        <pt x="-104" y="-108" on="1"/>
        <pt x="-101" y="-101" on="1"/>
        <pt x="-53" y="17" on="0"/>
        <pt x="173" y="413" on="1"/>
        <pt x="131" y="413" on="1"/>
        <pt x="116" y="413" on="0"/>
        <pt x="116" y="422" on="1"/>
        <pt x="116" y="429" on="0"/>
        <pt x="131" y="442" on="0"/>
        <pt x="139" y="442" on="1"/>
        <pt x="190" y="442" on="1"/>
        <pt x="289" y="611" on="1"/>
        <pt x="313" y="655" on="0"/>
        <pt x="313" y="687" on="1"/>
        <pt x="313" y="703" on="0"/>
        <pt x="301" y="724" on="0"/>
        <pt x="296" y="727" on="1"/>
        <pt x="290" y="730" on="1"/>
        <pt x="281" y="735" on="0"/>
        <pt x="281" y="741" on="1"/>
        <pt x="281" y="746" on="0"/>
        <pt x="292" y="753" on="0"/>
        <pt x="296" y="753" on="1"/>
        <pt x="397" y="759" on="0"/>
        <pt x="506" y="759" on="1"/>
        <pt x="597" y="759" on="0"/>
        <pt x="653" y="754" on="1"/>
        <pt x="669" y="754" on="0"/>
        <pt x="669" y="741" on="1"/>
        <pt x="669" y="736" on="0"/>
        <pt x="666" y="730" on="1"/>
        <pt x="631" y="648" on="0"/>
        <pt x="599" y="600" on="1"/>
        <pt x="596" y="595" on="0"/>
        <pt x="587" y="595" on="1"/>
        <pt x="579" y="595" on="0"/>
        <pt x="579" y="607" on="1"/>
        <pt x="586" y="628" on="0"/>
        <pt x="586" y="653" on="1"/>
        <pt x="586" y="731" on="0"/>
        <pt x="506" y="731" on="1"/>
        <pt x="450" y="731" on="0"/>
        <pt x="429" y="703" on="1"/>
        <pt x="376" y="636" on="0"/>
        <pt x="272" y="442" on="1"/>
        <pt x="299" y="442" on="0"/>
        <pt x="404" y="443" on="0"/>
        <pt x="429" y="443" on="1"/>
        <pt x="437" y="443" on="0"/>
        <pt x="439" y="441" on="1"/>
        <pt x="440" y="440" on="0"/>
        <pt x="440" y="438" on="1"/>
        <pt x="440" y="431" on="0"/>
        <pt x="423" y="415" on="0"/>
      </contour>
    </TTGlyph>
    <TTGlyph name="G" xMin="1" yMin="-47" xMax="670" yMax="775">
      <contour>
        <pt x="505" y="351" on="1"/>
        <pt x="331" y="50" on="0"/>
        <pt x="326" y="-33" on="1"/>
        <pt x="326" y="-47" on="0"/>
        <pt x="317" y="-47" on="1"/>
        <pt x="302" y="-47" on="0"/>
        <pt x="278" y="6" on="0"/>
        <pt x="278" y="32" on="1"/>
        <pt x="278" y="67" on="0"/>
        <pt x="308" y="153" on="0"/>
        <pt x="324" y="178" on="1"/>
        <pt x="339" y="203" on="1"/>
        <pt x="342" y="207" on="0"/>
        <pt x="342" y="210" on="1"/>
        <pt x="342" y="212" on="0"/>
        <pt x="340" y="212" on="1"/>
        <pt x="334" y="209" on="1"/>
        <pt x="258" y="116" on="0"/>
        <pt x="131" y="1" on="0"/>
        <pt x="68" y="-31" on="0"/>
        <pt x="48" y="-31" on="1"/>
        <pt x="1" y="-31" on="0"/>
        <pt x="1" y="57" on="1"/>
        <pt x="1" y="130" on="0"/>
        <pt x="57" y="319" on="0"/>
        <pt x="159" y="507" on="0"/>
        <pt x="285" y="666" on="0"/>
        <pt x="441" y="765" on="0"/>
        <pt x="516" y="765" on="1"/>
        <pt x="532" y="765" on="0"/>
        <pt x="557" y="760" on="0"/>
        <pt x="571" y="756" on="0"/>
        <pt x="572" y="756" on="1"/>
        <pt x="579" y="756" on="0"/>
        <pt x="584" y="763" on="1"/>
        <pt x="606" y="775" on="0"/>
        <pt x="640" y="775" on="1"/>
        <pt x="670" y="775" on="0"/>
        <pt x="670" y="760" on="1"/>
        <pt x="670" y="734" on="0"/>
        <pt x="555" y="554" on="0"/>
        <pt x="536" y="554" on="1"/>
        <pt x="528" y="554" on="0"/>
        <pt x="528" y="586" on="0"/>
        <pt x="542" y="648" on="0"/>
        <pt x="557" y="695" on="0"/>
        <pt x="557" y="694" on="1"/>
        <pt x="559" y="702" on="0"/>
        <pt x="559" y="706" on="1"/>
        <pt x="559" y="722" on="0"/>
        <pt x="532" y="738" on="0"/>
        <pt x="516" y="738" on="1"/>
        <pt x="442" y="738" on="0"/>
        <pt x="249" y="505" on="0"/>
        <pt x="116" y="202" on="0"/>
        <pt x="116" y="104" on="1"/>
        <pt x="116" y="61" on="0"/>
        <pt x="137" y="61" on="1"/>
        <pt x="161" y="61" on="0"/>
        <pt x="222" y="122" on="1"/>
        <pt x="333" y="233" on="0"/>
        <pt x="391" y="329" on="1"/>
        <pt x="416" y="366" on="0"/>
        <pt x="416" y="400" on="1"/>
        <pt x="416" y="418" on="0"/>
        <pt x="402" y="437" on="0"/>
        <pt x="402" y="441" on="1"/>
        <pt x="402" y="451" on="0"/>
        <pt x="416" y="452" on="1"/>
        <pt x="446" y="455" on="0"/>
        <pt x="483" y="455" on="1"/>
        <pt x="525" y="455" on="0"/>
        <pt x="554" y="450" on="1"/>
        <pt x="562" y="449" on="0"/>
        <pt x="562" y="442" on="1"/>
        <pt x="562" y="436" on="0"/>
        <pt x="555" y="428" on="1"/>
        <pt x="533" y="399" on="0"/>
      </contour>
    </TTGlyph>
    <TTGlyph name="H" xMin="1" yMin="-40" xMax="855" yMax="778">
      <contour>
        <pt x="845" y="748" on="1"/>
        <pt x="773" y="683" on="0"/>
        <pt x="574" y="365" on="0"/>
        <pt x="459" y="139" on="0"/>
        <pt x="425" y="65" on="1"/>
        <pt x="378" y="-40" on="0"/>
        <pt x="354" y="-40" on="1"/>
        <pt x="338" y="-40" on="0"/>
        <pt x="338" y="4" on="1"/>
        <pt x="338" y="36" on="0"/>
        <pt x="364" y="126" on="0"/>
        <pt x="378" y="155" on="1"/>
        <pt x="391" y="184" on="1"/>
        <pt x="425" y="255" on="0"/>
        <pt x="425" y="335" on="1"/>
        <pt x="425" y="444" on="0"/>
        <pt x="371" y="520" on="1"/>
        <pt x="274" y="316" on="0"/>
        <pt x="159" y="130" on="1"/>
        <pt x="148" y="112" on="0"/>
        <pt x="120" y="70" on="0"/>
        <pt x="72" y="5" on="0"/>
        <pt x="26" y="-37" on="0"/>
        <pt x="10" y="-37" on="1"/>
        <pt x="1" y="-37" on="0"/>
        <pt x="1" y="-26" on="1"/>
        <pt x="2" y="-17" on="1"/>
        <pt x="6" y="21" on="0"/>
        <pt x="128" y="235" on="1"/>
        <pt x="318" y="571" on="1"/>
        <pt x="280" y="595" on="0"/>
        <pt x="233" y="595" on="1"/>
        <pt x="187" y="595" on="0"/>
        <pt x="134" y="539" on="0"/>
        <pt x="134" y="492" on="1"/>
        <pt x="134" y="472" on="0"/>
        <pt x="139" y="454" on="1"/>
        <pt x="142" y="445" on="0"/>
        <pt x="142" y="440" on="1"/>
        <pt x="142" y="431" on="0"/>
        <pt x="135" y="431" on="1"/>
        <pt x="118" y="431" on="0"/>
        <pt x="74" y="517" on="0"/>
        <pt x="74" y="547" on="1"/>
        <pt x="74" y="589" on="0"/>
        <pt x="133" y="636" on="0"/>
        <pt x="182" y="636" on="1"/>
        <pt x="266" y="636" on="0"/>
        <pt x="331" y="593" on="1"/>
        <pt x="430" y="768" on="1"/>
        <pt x="440" y="778" on="0"/>
        <pt x="446" y="778" on="1"/>
        <pt x="456" y="778" on="0"/>
        <pt x="456" y="760" on="1"/>
        <pt x="456" y="707" on="0"/>
        <pt x="383" y="547" on="1"/>
        <pt x="458" y="458" on="0"/>
        <pt x="458" y="312" on="1"/>
        <pt x="460" y="302" on="0"/>
        <pt x="466" y="302" on="0"/>
        <pt x="469" y="310" on="1"/>
        <pt x="529" y="419" on="0"/>
        <pt x="572" y="506" on="1"/>
        <pt x="630" y="623" on="0"/>
        <pt x="769" y="770" on="0"/>
        <pt x="840" y="770" on="1"/>
        <pt x="855" y="770" on="0"/>
        <pt x="855" y="764" on="1"/>
        <pt x="855" y="761" on="0"/>
      </contour>
    </TTGlyph>
    <TTGlyph name="I" xMin="-79" yMin="-44" xMax="533" yMax="770">
      <contour>
        <pt x="522" y="740" on="1"/>
        <pt x="485" y="711" on="0"/>
        <pt x="380" y="538" on="0"/>
        <pt x="253" y="288" on="0"/>
        <pt x="251" y="284" on="1"/>
        <pt x="244" y="272" on="0"/>
        <pt x="208" y="204" on="0"/>
        <pt x="187" y="165" on="0"/>
        <pt x="146" y="98" on="0"/>
        <pt x="114" y="56" on="0"/>
        <pt x="68" y="5" on="0"/>
        <pt x="25" y="-24" on="0"/>
        <pt x="-29" y="-44" on="0"/>
        <pt x="-56" y="-44" on="1"/>
        <pt x="-79" y="-44" on="0"/>
        <pt x="-79" y="-35" on="1"/>
        <pt x="-79" y="-32" on="0"/>
        <pt x="-73" y="-26" on="0"/>
        <pt x="-70" y="-24" on="1"/>
        <pt x="-67" y="-23" on="1"/>
        <pt x="-24" y="4" on="0"/>
        <pt x="102" y="182" on="0"/>
        <pt x="144" y="258" on="1"/>
        <pt x="185" y="333" on="1"/>
        <pt x="231" y="421" on="0"/>
        <pt x="320" y="568" on="0"/>
        <pt x="381" y="650" on="0"/>
        <pt x="428" y="707" on="0"/>
        <pt x="440" y="717" on="1"/>
        <pt x="451" y="727" on="1"/>
        <pt x="454" y="730" on="0"/>
        <pt x="454" y="733" on="1"/>
        <pt x="454" y="742" on="0"/>
        <pt x="424" y="742" on="1"/>
        <pt x="392" y="742" on="0"/>
        <pt x="332" y="710" on="0"/>
        <pt x="291" y="664" on="0"/>
        <pt x="259" y="617" on="0"/>
        <pt x="252" y="601" on="1"/>
        <pt x="244" y="585" on="1"/>
        <pt x="240" y="569" on="0"/>
        <pt x="233" y="569" on="1"/>
        <pt x="216" y="569" on="0"/>
        <pt x="216" y="613" on="1"/>
        <pt x="216" y="667" on="0"/>
        <pt x="287" y="741" on="0"/>
        <pt x="386" y="770" on="0"/>
        <pt x="444" y="770" on="1"/>
        <pt x="479" y="770" on="0"/>
        <pt x="521" y="764" on="1"/>
        <pt x="533" y="762" on="0"/>
        <pt x="533" y="748" on="0"/>
      </contour>
    </TTGlyph>
    <TTGlyph name="Iacute" xMin="-79" yMin="-44" xMax="569" yMax="903">
      <contour>
        <pt x="522" y="740" on="1"/>
        <pt x="485" y="711" on="0"/>
        <pt x="380" y="538" on="0"/>
        <pt x="253" y="288" on="0"/>
        <pt x="251" y="284" on="1"/>
        <pt x="244" y="272" on="0"/>
        <pt x="208" y="204" on="0"/>
        <pt x="187" y="165" on="0"/>
        <pt x="146" y="98" on="0"/>
        <pt x="114" y="56" on="0"/>
        <pt x="68" y="5" on="0"/>
        <pt x="25" y="-24" on="0"/>
        <pt x="-29" y="-44" on="0"/>
        <pt x="-56" y="-44" on="1"/>
        <pt x="-79" y="-44" on="0"/>
        <pt x="-79" y="-35" on="1"/>
        <pt x="-79" y="-32" on="0"/>
        <pt x="-73" y="-26" on="0"/>
        <pt x="-70" y="-24" on="1"/>
        <pt x="-67" y="-23" on="1"/>
        <pt x="-24" y="4" on="0"/>
        <pt x="102" y="182" on="0"/>
        <pt x="144" y="258" on="1"/>
        <pt x="185" y="333" on="1"/>
        <pt x="231" y="421" on="0"/>
        <pt x="320" y="568" on="0"/>
        <pt x="381" y="650" on="0"/>
        <pt x="428" y="707" on="0"/>
        <pt x="440" y="717" on="1"/>
        <pt x="451" y="727" on="1"/>
        <pt x="454" y="730" on="0"/>
        <pt x="454" y="733" on="1"/>
        <pt x="454" y="742" on="0"/>
        <pt x="424" y="742" on="1"/>
        <pt x="392" y="742" on="0"/>
        <pt x="332" y="710" on="0"/>
        <pt x="291" y="664" on="0"/>
        <pt x="259" y="617" on="0"/>
        <pt x="252" y="601" on="1"/>
        <pt x="244" y="585" on="1"/>
        <pt x="240" y="569" on="0"/>
        <pt x="233" y="569" on="1"/>
        <pt x="216" y="569" on="0"/>
        <pt x="216" y="613" on="1"/>
        <pt x="216" y="667" on="0"/>
        <pt x="287" y="741" on="0"/>
        <pt x="386" y="770" on="0"/>
        <pt x="444" y="770" on="1"/>
        <pt x="479" y="770" on="0"/>
        <pt x="521" y="764" on="1"/>
        <pt x="533" y="762" on="0"/>
        <pt x="533" y="748" on="0"/>
      </contour>
      <contour>
        <pt x="565" y="888" on="1"/>
        <pt x="538" y="857" on="0"/>
        <pt x="463" y="810" on="0"/>
        <pt x="440" y="802" on="1"/>
        <pt x="416" y="794" on="1"/>
        <pt x="405" y="794" on="0"/>
        <pt x="405" y="798" on="1"/>
        <pt x="405" y="801" on="0"/>
        <pt x="409" y="807" on="1"/>
        <pt x="419" y="815" on="0"/>
        <pt x="459" y="858" on="0"/>
        <pt x="474" y="876" on="1"/>
        <pt x="489" y="894" on="1"/>
        <pt x="495" y="903" on="0"/>
        <pt x="508" y="903" on="1"/>
        <pt x="557" y="903" on="1"/>
        <pt x="569" y="903" on="0"/>
        <pt x="569" y="896" on="1"/>
        <pt x="569" y="892" on="0"/>
      </contour>
    </TTGlyph>
    <TTGlyph name="Icircumflex" xMin="-79" yMin="-44" xMax="554" yMax="909">
      <contour>
        <pt x="522" y="740" on="1"/>
        <pt x="485" y="711" on="0"/>
        <pt x="380" y="538" on="0"/>
        <pt x="253" y="288" on="0"/>
        <pt x="251" y="284" on="1"/>
        <pt x="244" y="272" on="0"/>
        <pt x="208" y="204" on="0"/>
        <pt x="187" y="165" on="0"/>
        <pt x="146" y="98" on="0"/>
        <pt x="114" y="56" on="0"/>
        <pt x="68" y="5" on="0"/>
        <pt x="25" y="-24" on="0"/>
        <pt x="-29" y="-44" on="0"/>
        <pt x="-56" y="-44" on="1"/>
        <pt x="-79" y="-44" on="0"/>
        <pt x="-79" y="-35" on="1"/>
        <pt x="-79" y="-32" on="0"/>
        <pt x="-73" y="-26" on="0"/>
        <pt x="-70" y="-24" on="1"/>
        <pt x="-67" y="-23" on="1"/>
        <pt x="-24" y="4" on="0"/>
        <pt x="102" y="182" on="0"/>
        <pt x="144" y="258" on="1"/>
        <pt x="185" y="333" on="1"/>
        <pt x="231" y="421" on="0"/>
        <pt x="320" y="568" on="0"/>
        <pt x="381" y="650" on="0"/>
        <pt x="428" y="707" on="0"/>
        <pt x="440" y="717" on="1"/>
        <pt x="451" y="727" on="1"/>
        <pt x="454" y="730" on="0"/>
        <pt x="454" y="733" on="1"/>
        <pt x="454" y="742" on="0"/>
        <pt x="424" y="742" on="1"/>
        <pt x="392" y="742" on="0"/>
        <pt x="332" y="710" on="0"/>
        <pt x="291" y="664" on="0"/>
        <pt x="259" y="617" on="0"/>
        <pt x="252" y="601" on="1"/>
        <pt x="244" y="585" on="1"/>
        <pt x="240" y="569" on="0"/>
        <pt x="233" y="569" on="1"/>
        <pt x="216" y="569" on="0"/>
        <pt x="216" y="613" on="1"/>
        <pt x="216" y="667" on="0"/>
        <pt x="287" y="741" on="0"/>
        <pt x="386" y="770" on="0"/>
        <pt x="444" y="770" on="1"/>
        <pt x="479" y="770" on="0"/>
        <pt x="521" y="764" on="1"/>
        <pt x="533" y="762" on="0"/>
        <pt x="533" y="748" on="0"/>
      </contour>
      <contour>
        <pt x="486" y="876" on="1"/>
        <pt x="485" y="880" on="0"/>
        <pt x="483" y="880" on="1"/>
        <pt x="477" y="876" on="1"/>
        <pt x="444" y="843" on="0"/>
        <pt x="358" y="800" on="0"/>
        <pt x="341" y="800" on="1"/>
        <pt x="334" y="800" on="0"/>
        <pt x="334" y="804" on="1"/>
        <pt x="338" y="813" on="1"/>
        <pt x="348" y="821" on="0"/>
        <pt x="388" y="865" on="0"/>
        <pt x="403" y="882" on="1"/>
        <pt x="418" y="900" on="1"/>
        <pt x="424" y="909" on="0"/>
        <pt x="437" y="909" on="1"/>
        <pt x="546" y="909" on="1"/>
        <pt x="554" y="909" on="0"/>
        <pt x="554" y="902" on="1"/>
        <pt x="554" y="901" on="0"/>
        <pt x="550" y="871" on="0"/>
        <pt x="546" y="824" on="0"/>
        <pt x="546" y="804" on="1"/>
        <pt x="546" y="794" on="0"/>
        <pt x="540" y="794" on="1"/>
        <pt x="525" y="794" on="0"/>
        <pt x="491" y="853" on="0"/>
      </contour>
    </TTGlyph>
    <TTGlyph name="Idieresis" xMin="-79" yMin="-44" xMax="594" yMax="900">
      <contour>
        <pt x="522" y="740" on="1"/>
        <pt x="485" y="711" on="0"/>
        <pt x="380" y="538" on="0"/>
        <pt x="253" y="288" on="0"/>
        <pt x="251" y="284" on="1"/>
        <pt x="244" y="272" on="0"/>
        <pt x="208" y="204" on="0"/>
        <pt x="187" y="165" on="0"/>
        <pt x="146" y="98" on="0"/>
        <pt x="114" y="56" on="0"/>
        <pt x="68" y="5" on="0"/>
        <pt x="25" y="-24" on="0"/>
        <pt x="-29" y="-44" on="0"/>
        <pt x="-56" y="-44" on="1"/>
        <pt x="-79" y="-44" on="0"/>
        <pt x="-79" y="-35" on="1"/>
        <pt x="-79" y="-32" on="0"/>
        <pt x="-73" y="-26" on="0"/>
        <pt x="-70" y="-24" on="1"/>
        <pt x="-67" y="-23" on="1"/>
        <pt x="-24" y="4" on="0"/>
        <pt x="102" y="182" on="0"/>
        <pt x="144" y="258" on="1"/>
        <pt x="185" y="333" on="1"/>
        <pt x="231" y="421" on="0"/>
        <pt x="320" y="568" on="0"/>
        <pt x="381" y="650" on="0"/>
        <pt x="428" y="707" on="0"/>
        <pt x="440" y="717" on="1"/>
        <pt x="451" y="727" on="1"/>
        <pt x="454" y="730" on="0"/>
        <pt x="454" y="733" on="1"/>
        <pt x="454" y="742" on="0"/>
        <pt x="424" y="742" on="1"/>
        <pt x="392" y="742" on="0"/>
        <pt x="332" y="710" on="0"/>
        <pt x="291" y="664" on="0"/>
        <pt x="259" y="617" on="0"/>
        <pt x="252" y="601" on="1"/>
        <pt x="244" y="585" on="1"/>
        <pt x="240" y="569" on="0"/>
        <pt x="233" y="569" on="1"/>
        <pt x="216" y="569" on="0"/>
        <pt x="216" y="613" on="1"/>
        <pt x="216" y="667" on="0"/>
        <pt x="287" y="741" on="0"/>
        <pt x="386" y="770" on="0"/>
        <pt x="444" y="770" on="1"/>
        <pt x="479" y="770" on="0"/>
        <pt x="521" y="764" on="1"/>
        <pt x="533" y="762" on="0"/>
        <pt x="533" y="748" on="0"/>
      </contour>
      <contour>
        <pt x="372" y="802" on="1"/>
        <pt x="347" y="802" on="0"/>
        <pt x="347" y="830" on="1"/>
        <pt x="347" y="855" on="0"/>
        <pt x="387" y="900" on="0"/>
        <pt x="408" y="900" on="1"/>
        <pt x="433" y="900" on="0"/>
        <pt x="433" y="873" on="1"/>
        <pt x="433" y="848" on="0"/>
        <pt x="395" y="802" on="0"/>
      </contour>
      <contour>
        <pt x="533" y="802" on="1"/>
        <pt x="508" y="802" on="0"/>
        <pt x="508" y="830" on="1"/>
        <pt x="508" y="856" on="0"/>
        <pt x="548" y="900" on="0"/>
        <pt x="570" y="900" on="1"/>
        <pt x="594" y="900" on="0"/>
        <pt x="594" y="872" on="1"/>
        <pt x="594" y="847" on="0"/>
        <pt x="556" y="802" on="0"/>
      </contour>
    </TTGlyph>
    <TTGlyph name="Igrave" xMin="-79" yMin="-44" xMax="533" yMax="913">
      <contour>
        <pt x="522" y="740" on="1"/>
        <pt x="485" y="711" on="0"/>
        <pt x="380" y="538" on="0"/>
        <pt x="253" y="288" on="0"/>
        <pt x="251" y="284" on="1"/>
        <pt x="244" y="272" on="0"/>
        <pt x="208" y="204" on="0"/>
        <pt x="187" y="165" on="0"/>
        <pt x="146" y="98" on="0"/>
        <pt x="114" y="56" on="0"/>
        <pt x="68" y="5" on="0"/>
        <pt x="25" y="-24" on="0"/>
        <pt x="-29" y="-44" on="0"/>
        <pt x="-56" y="-44" on="1"/>
        <pt x="-79" y="-44" on="0"/>
        <pt x="-79" y="-35" on="1"/>
        <pt x="-79" y="-32" on="0"/>
        <pt x="-73" y="-26" on="0"/>
        <pt x="-70" y="-24" on="1"/>
        <pt x="-67" y="-23" on="1"/>
        <pt x="-24" y="4" on="0"/>
        <pt x="102" y="182" on="0"/>
        <pt x="144" y="258" on="1"/>
        <pt x="185" y="333" on="1"/>
        <pt x="231" y="421" on="0"/>
        <pt x="320" y="568" on="0"/>
        <pt x="381" y="650" on="0"/>
        <pt x="428" y="707" on="0"/>
        <pt x="440" y="717" on="1"/>
        <pt x="451" y="727" on="1"/>
        <pt x="454" y="730" on="0"/>
        <pt x="454" y="733" on="1"/>
        <pt x="454" y="742" on="0"/>
        <pt x="424" y="742" on="1"/>
        <pt x="392" y="742" on="0"/>
        <pt x="332" y="710" on="0"/>
        <pt x="291" y="664" on="0"/>
        <pt x="259" y="617" on="0"/>
        <pt x="252" y="601" on="1"/>
        <pt x="244" y="585" on="1"/>
        <pt x="240" y="569" on="0"/>
        <pt x="233" y="569" on="1"/>
        <pt x="216" y="569" on="0"/>
        <pt x="216" y="613" on="1"/>
        <pt x="216" y="667" on="0"/>
        <pt x="287" y="741" on="0"/>
        <pt x="386" y="770" on="0"/>
        <pt x="444" y="770" on="1"/>
        <pt x="479" y="770" on="0"/>
        <pt x="521" y="764" on="1"/>
        <pt x="533" y="762" on="0"/>
        <pt x="533" y="748" on="0"/>
      </contour>
      <contour>
        <pt x="513" y="804" on="1"/>
        <pt x="513" y="798" on="0"/>
        <pt x="508" y="798" on="1"/>
        <pt x="504" y="798" on="0"/>
        <pt x="495" y="804" on="1"/>
        <pt x="477" y="816" on="0"/>
        <pt x="447" y="866" on="0"/>
        <pt x="441" y="884" on="1"/>
        <pt x="435" y="903" on="1"/>
        <pt x="435" y="913" on="0"/>
        <pt x="443" y="913" on="1"/>
        <pt x="497" y="913" on="1"/>
        <pt x="508" y="913" on="0"/>
        <pt x="508" y="902" on="1"/>
        <pt x="508" y="880" on="1"/>
        <pt x="508" y="838" on="0"/>
      </contour>
    </TTGlyph>
    <TTGlyph name="J" xMin="-110" yMin="-193" xMax="596" yMax="770">
      <contour>
        <pt x="580" y="740" on="1"/>
        <pt x="542" y="721" on="0"/>
        <pt x="389" y="479" on="0"/>
        <pt x="332" y="368" on="1"/>
        <pt x="274" y="256" on="1"/>
        <pt x="134" y="-20" on="0"/>
        <pt x="75" y="-90" on="1"/>
        <pt x="-14" y="-193" on="0"/>
        <pt x="-87" y="-193" on="1"/>
        <pt x="-110" y="-193" on="0"/>
        <pt x="-110" y="-185" on="1"/>
        <pt x="-110" y="-182" on="0"/>
        <pt x="-102" y="-173" on="0"/>
        <pt x="-98" y="-170" on="1"/>
        <pt x="-95" y="-168" on="1"/>
        <pt x="-51" y="-135" on="0"/>
        <pt x="94" y="90" on="0"/>
        <pt x="144" y="186" on="1"/>
        <pt x="194" y="281" on="1"/>
        <pt x="253" y="390" on="0"/>
        <pt x="362" y="562" on="0"/>
        <pt x="432" y="652" on="0"/>
        <pt x="485" y="711" on="0"/>
        <pt x="497" y="719" on="1"/>
        <pt x="509" y="727" on="1"/>
        <pt x="512" y="730" on="0"/>
        <pt x="512" y="733" on="1"/>
        <pt x="512" y="743" on="0"/>
        <pt x="480" y="743" on="1"/>
        <pt x="450" y="743" on="0"/>
        <pt x="391" y="710" on="0"/>
        <pt x="350" y="664" on="0"/>
        <pt x="318" y="618" on="0"/>
        <pt x="310" y="602" on="1"/>
        <pt x="302" y="585" on="1"/>
        <pt x="297" y="569" on="0"/>
        <pt x="290" y="569" on="1"/>
        <pt x="273" y="569" on="0"/>
        <pt x="273" y="613" on="1"/>
        <pt x="273" y="689" on="0"/>
        <pt x="405" y="770" on="0"/>
        <pt x="502" y="770" on="1"/>
        <pt x="596" y="770" on="0"/>
        <pt x="596" y="753" on="1"/>
        <pt x="596" y="747" on="0"/>
      </contour>
    </TTGlyph>
    <TTGlyph name="K" xMin="-57" yMin="-52" xMax="750" yMax="774">
      <contour>
        <pt x="663" y="696" on="1"/>
        <pt x="618" y="696" on="0"/>
        <pt x="540" y="626" on="1"/>
        <pt x="513" y="604" on="0"/>
        <pt x="508" y="590" on="1"/>
        <pt x="476" y="506" on="0"/>
        <pt x="414" y="143" on="0"/>
        <pt x="414" y="56" on="1"/>
        <pt x="414" y="28" on="0"/>
        <pt x="418" y="-15" on="0"/>
        <pt x="420" y="-22" on="1"/>
        <pt x="422" y="-30" on="1"/>
        <pt x="424" y="-40" on="0"/>
        <pt x="424" y="-41" on="1"/>
        <pt x="424" y="-52" on="0"/>
        <pt x="414" y="-52" on="1"/>
        <pt x="403" y="-52" on="0"/>
        <pt x="371" y="-27" on="0"/>
        <pt x="358" y="-5" on="1"/>
        <pt x="333" y="39" on="0"/>
        <pt x="333" y="128" on="1"/>
        <pt x="333" y="265" on="0"/>
        <pt x="398" y="463" on="1"/>
        <pt x="401" y="475" on="0"/>
        <pt x="401" y="479" on="1"/>
        <pt x="401" y="486" on="0"/>
        <pt x="397" y="486" on="1"/>
        <pt x="384" y="478" on="1"/>
        <pt x="311" y="419" on="0"/>
        <pt x="224" y="305" on="1"/>
        <pt x="193" y="265" on="0"/>
        <pt x="135" y="173" on="0"/>
        <pt x="122" y="147" on="1"/>
        <pt x="109" y="121" on="1"/>
        <pt x="85" y="69" on="0"/>
        <pt x="-13" y="-45" on="0"/>
        <pt x="-46" y="-45" on="1"/>
        <pt x="-57" y="-45" on="0"/>
        <pt x="-57" y="-34" on="1"/>
        <pt x="-54" y="-21" on="1"/>
        <pt x="-43" y="10" on="0"/>
        <pt x="121" y="331" on="0"/>
        <pt x="170" y="416" on="1"/>
        <pt x="217" y="497" on="0"/>
        <pt x="307" y="641" on="0"/>
        <pt x="329" y="672" on="1"/>
        <pt x="351" y="704" on="1"/>
        <pt x="356" y="711" on="0"/>
        <pt x="372" y="732" on="0"/>
        <pt x="422" y="768" on="0"/>
        <pt x="446" y="769" on="1"/>
        <pt x="457" y="769" on="0"/>
        <pt x="457" y="758" on="1"/>
        <pt x="457" y="751" on="0"/>
        <pt x="452" y="742" on="1"/>
        <pt x="324" y="537" on="0"/>
        <pt x="269" y="423" on="1"/>
        <pt x="268" y="417" on="0"/>
        <pt x="268" y="413" on="1"/>
        <pt x="268" y="407" on="0"/>
        <pt x="271" y="407" on="1"/>
        <pt x="275" y="407" on="0"/>
        <pt x="283" y="415" on="1"/>
        <pt x="385" y="518" on="1"/>
        <pt x="646" y="773" on="0"/>
        <pt x="722" y="774" on="1"/>
        <pt x="750" y="774" on="0"/>
        <pt x="750" y="741" on="1"/>
        <pt x="750" y="715" on="0"/>
        <pt x="719" y="660" on="0"/>
        <pt x="705" y="660" on="1"/>
        <pt x="699" y="660" on="0"/>
        <pt x="698" y="668" on="1"/>
        <pt x="697" y="671" on="0"/>
        <pt x="694" y="680" on="0"/>
        <pt x="676" y="696" on="0"/>
      </contour>
    </TTGlyph>
    <TTGlyph name="L" xMin="-32" yMin="-22" xMax="447" yMax="769">
      <contour>
        <pt x="311" y="-2" on="1"/>
        <pt x="301" y="-12" on="0"/>
        <pt x="286" y="-14" on="1"/>
        <pt x="225" y="-22" on="0"/>
        <pt x="100" y="-22" on="1"/>
        <pt x="-17" y="-20" on="1"/>
        <pt x="-32" y="-19" on="0"/>
        <pt x="-32" y="-6" on="1"/>
        <pt x="-30" y="4" on="1"/>
        <pt x="-16" y="38" on="0"/>
        <pt x="37" y="156" on="0"/>
        <pt x="207" y="473" on="0"/>
        <pt x="296" y="604" on="1"/>
        <pt x="387" y="736" on="0"/>
        <pt x="415" y="758" on="1"/>
        <pt x="428" y="769" on="0"/>
        <pt x="439" y="769" on="1"/>
        <pt x="447" y="769" on="0"/>
        <pt x="447" y="760" on="1"/>
        <pt x="447" y="744" on="0"/>
        <pt x="393" y="634" on="0"/>
        <pt x="373" y="600" on="1"/>
        <pt x="140" y="180" on="0"/>
        <pt x="83" y="30" on="1"/>
        <pt x="82" y="27" on="0"/>
        <pt x="82" y="24" on="1"/>
        <pt x="82" y="7" on="0"/>
        <pt x="117" y="7" on="1"/>
        <pt x="185" y="7" on="0"/>
        <pt x="243" y="51" on="1"/>
        <pt x="329" y="120" on="0"/>
        <pt x="397" y="208" on="1"/>
        <pt x="405" y="216" on="0"/>
        <pt x="421" y="216" on="0"/>
        <pt x="421" y="196" on="0"/>
        <pt x="410" y="171" on="1"/>
        <pt x="345" y="30" on="0"/>
      </contour>
    </TTGlyph>
    <TTGlyph name="Lslash" xMin="-32" yMin="-22" xMax="447" yMax="769">
      <contour>
        <pt x="311" y="-2" on="1"/>
        <pt x="301" y="-12" on="0"/>
        <pt x="286" y="-14" on="1"/>
        <pt x="225" y="-22" on="0"/>
        <pt x="100" y="-22" on="1"/>
        <pt x="-17" y="-20" on="1"/>
        <pt x="-32" y="-19" on="0"/>
        <pt x="-32" y="-6" on="1"/>
        <pt x="-30" y="4" on="1"/>
        <pt x="27" y="144" on="0"/>
        <pt x="127" y="326" on="1"/>
        <pt x="54" y="326" on="1"/>
        <pt x="46" y="326" on="0"/>
        <pt x="46" y="336" on="1"/>
        <pt x="46" y="344" on="0"/>
        <pt x="58" y="371" on="0"/>
        <pt x="64" y="371" on="1"/>
        <pt x="152" y="371" on="1"/>
        <pt x="227" y="503" on="0"/>
        <pt x="296" y="604" on="1"/>
        <pt x="387" y="736" on="0"/>
        <pt x="415" y="758" on="1"/>
        <pt x="428" y="769" on="0"/>
        <pt x="439" y="769" on="1"/>
        <pt x="447" y="769" on="0"/>
        <pt x="447" y="760" on="1"/>
        <pt x="447" y="744" on="0"/>
        <pt x="393" y="634" on="0"/>
        <pt x="373" y="600" on="1"/>
        <pt x="314" y="495" on="0"/>
        <pt x="249" y="371" on="1"/>
        <pt x="337" y="371" on="1"/>
        <pt x="346" y="371" on="0"/>
        <pt x="346" y="362" on="1"/>
        <pt x="346" y="352" on="0"/>
        <pt x="334" y="328" on="0"/>
        <pt x="328" y="326" on="1"/>
        <pt x="225" y="326" on="1"/>
        <pt x="114" y="111" on="0"/>
        <pt x="83" y="30" on="1"/>
        <pt x="82" y="27" on="0"/>
        <pt x="82" y="24" on="1"/>
        <pt x="82" y="7" on="0"/>
        <pt x="117" y="7" on="1"/>
        <pt x="185" y="7" on="0"/>
        <pt x="243" y="51" on="1"/>
        <pt x="329" y="120" on="0"/>
        <pt x="397" y="208" on="1"/>
        <pt x="405" y="216" on="0"/>
        <pt x="421" y="216" on="0"/>
        <pt x="421" y="196" on="0"/>
        <pt x="410" y="171" on="1"/>
        <pt x="345" y="30" on="0"/>
      </contour>
    </TTGlyph>
    <TTGlyph name="M" xMin="-70" yMin="-60" xMax="873" yMax="782">
      <contour>
        <pt x="864" y="742" on="1"/>
        <pt x="812" y="667" on="0"/>
        <pt x="684" y="437" on="0"/>
        <pt x="646" y="359" on="1"/>
        <pt x="608" y="281" on="1"/>
        <pt x="505" y="67" on="0"/>
        <pt x="505" y="-26" on="1"/>
        <pt x="505" y="-28" on="0"/>
        <pt x="506" y="-40" on="0"/>
        <pt x="506" y="-44" on="1"/>
        <pt x="506" y="-60" on="0"/>
        <pt x="497" y="-60" on="1"/>
        <pt x="480" y="-60" on="0"/>
        <pt x="440" y="-1" on="0"/>
        <pt x="440" y="48" on="1"/>
        <pt x="440" y="93" on="0"/>
        <pt x="483" y="223" on="0"/>
        <pt x="567" y="390" on="0"/>
        <pt x="624" y="492" on="0"/>
        <pt x="671" y="574" on="1"/>
        <pt x="674" y="580" on="0"/>
        <pt x="674" y="583" on="1"/>
        <pt x="672" y="588" on="0"/>
        <pt x="669" y="588" on="1"/>
        <pt x="663" y="588" on="0"/>
        <pt x="657" y="583" on="1"/>
        <pt x="598" y="535" on="0"/>
        <pt x="406" y="305" on="0"/>
        <pt x="340" y="214" on="1"/>
        <pt x="273" y="123" on="1"/>
        <pt x="257" y="99" on="0"/>
        <pt x="247" y="99" on="1"/>
        <pt x="244" y="99" on="0"/>
        <pt x="240" y="103" on="0"/>
        <pt x="238" y="110" on="0"/>
        <pt x="237" y="116" on="0"/>
        <pt x="237" y="118" on="1"/>
        <pt x="237" y="120" on="1"/>
        <pt x="244" y="182" on="0"/>
        <pt x="271" y="404" on="0"/>
        <pt x="289" y="556" on="0"/>
        <pt x="289" y="558" on="1"/>
        <pt x="289" y="568" on="0"/>
        <pt x="285" y="568" on="1"/>
        <pt x="283" y="568" on="0"/>
        <pt x="276" y="562" on="0"/>
        <pt x="274" y="559" on="1"/>
        <pt x="272" y="556" on="1"/>
        <pt x="229" y="492" on="0"/>
        <pt x="131" y="289" on="0"/>
        <pt x="101" y="211" on="1"/>
        <pt x="79" y="155" on="0"/>
        <pt x="33" y="62" on="0"/>
        <pt x="-2" y="11" on="0"/>
        <pt x="-31" y="-24" on="0"/>
        <pt x="-39" y="-30" on="1"/>
        <pt x="-47" y="-36" on="1"/>
        <pt x="-58" y="-45" on="0"/>
        <pt x="-70" y="-45" on="0"/>
        <pt x="-70" y="-35" on="1"/>
        <pt x="-69" y="-26" on="1"/>
        <pt x="-59" y="27" on="0"/>
        <pt x="96" y="325" on="0"/>
        <pt x="169" y="448" on="1"/>
        <pt x="242" y="570" on="1"/>
        <pt x="297" y="665" on="1"/>
        <pt x="338" y="782" on="0"/>
        <pt x="360" y="782" on="1"/>
        <pt x="375" y="782" on="0"/>
        <pt x="375" y="731" on="1"/>
        <pt x="344" y="359" on="0"/>
        <pt x="344" y="306" on="1"/>
        <pt x="344" y="291" on="0"/>
        <pt x="356" y="291" on="0"/>
        <pt x="364" y="302" on="1"/>
        <pt x="377" y="319" on="0"/>
        <pt x="423" y="377" on="0"/>
        <pt x="553" y="527" on="0"/>
        <pt x="668" y="647" on="0"/>
        <pt x="804" y="757" on="0"/>
        <pt x="848" y="769" on="1"/>
        <pt x="858" y="771" on="0"/>
        <pt x="861" y="771" on="1"/>
        <pt x="873" y="771" on="0"/>
        <pt x="873" y="762" on="1"/>
        <pt x="873" y="754" on="0"/>
      </contour>
    </TTGlyph>
    <TTGlyph name="N" xMin="-78" yMin="-51" xMax="801" yMax="787">
      <contour>
        <pt x="670" y="607" on="1"/>
        <pt x="570" y="475" on="0"/>
        <pt x="396" y="163" on="0"/>
        <pt x="359" y="73" on="1"/>
        <pt x="322" y="-17" on="1"/>
        <pt x="306" y="-51" on="0"/>
        <pt x="294" y="-51" on="1"/>
        <pt x="288" y="-51" on="0"/>
        <pt x="279" y="-37" on="0"/>
        <pt x="277" y="-30" on="1"/>
        <pt x="275" y="-23" on="1"/>
        <pt x="262" y="58" on="0"/>
        <pt x="262" y="147" on="1"/>
        <pt x="262" y="218" on="0"/>
        <pt x="282" y="489" on="0"/>
        <pt x="282" y="551" on="1"/>
        <pt x="282" y="561" on="0"/>
        <pt x="278" y="561" on="1"/>
        <pt x="276" y="561" on="0"/>
        <pt x="269" y="555" on="0"/>
        <pt x="267" y="552" on="1"/>
        <pt x="265" y="549" on="1"/>
        <pt x="226" y="493" on="0"/>
        <pt x="125" y="286" on="0"/>
        <pt x="96" y="211" on="1"/>
        <pt x="74" y="154" on="0"/>
        <pt x="27" y="62" on="0"/>
        <pt x="-9" y="10" on="0"/>
        <pt x="-39" y="-25" on="0"/>
        <pt x="-47" y="-31" on="1"/>
        <pt x="-55" y="-37" on="1"/>
        <pt x="-67" y="-46" on="0"/>
        <pt x="-72" y="-46" on="1"/>
        <pt x="-78" y="-46" on="0"/>
        <pt x="-78" y="-36" on="1"/>
        <pt x="-78" y="58" on="0"/>
        <pt x="211" y="532" on="1"/>
        <pt x="235" y="571" on="0"/>
        <pt x="274" y="637" on="0"/>
        <pt x="281" y="650" on="1"/>
        <pt x="288" y="664" on="1"/>
        <pt x="330" y="781" on="0"/>
        <pt x="352" y="781" on="1"/>
        <pt x="367" y="781" on="0"/>
        <pt x="367" y="731" on="1"/>
        <pt x="374" y="490" on="0"/>
        <pt x="374" y="326" on="1"/>
        <pt x="374" y="255" on="0"/>
        <pt x="373" y="229" on="1"/>
        <pt x="375" y="213" on="0"/>
        <pt x="382" y="213" on="1"/>
        <pt x="390" y="213" on="0"/>
        <pt x="402" y="236" on="1"/>
        <pt x="509" y="440" on="0"/>
        <pt x="537" y="500" on="1"/>
        <pt x="672" y="787" on="0"/>
        <pt x="787" y="787" on="1"/>
        <pt x="801" y="787" on="0"/>
        <pt x="801" y="779" on="1"/>
        <pt x="801" y="773" on="0"/>
        <pt x="791" y="763" on="1"/>
        <pt x="765" y="733" on="0"/>
      </contour>
    </TTGlyph>
    <TTGlyph name="Ntilde" xMin="-78" yMin="-51" xMax="801" yMax="877">
      <contour>
        <pt x="670" y="607" on="1"/>
        <pt x="570" y="475" on="0"/>
        <pt x="396" y="163" on="0"/>
        <pt x="359" y="73" on="1"/>
        <pt x="322" y="-17" on="1"/>
        <pt x="306" y="-51" on="0"/>
        <pt x="294" y="-51" on="1"/>
        <pt x="288" y="-51" on="0"/>
        <pt x="279" y="-37" on="0"/>
        <pt x="277" y="-30" on="1"/>
        <pt x="275" y="-23" on="1"/>
        <pt x="262" y="58" on="0"/>
        <pt x="262" y="147" on="1"/>
        <pt x="262" y="218" on="0"/>
        <pt x="282" y="489" on="0"/>
        <pt x="282" y="551" on="1"/>
        <pt x="282" y="561" on="0"/>
        <pt x="278" y="561" on="1"/>
        <pt x="276" y="561" on="0"/>
        <pt x="269" y="555" on="0"/>
        <pt x="267" y="552" on="1"/>
        <pt x="265" y="549" on="1"/>
        <pt x="226" y="493" on="0"/>
        <pt x="125" y="286" on="0"/>
        <pt x="96" y="211" on="1"/>
        <pt x="74" y="154" on="0"/>
        <pt x="27" y="62" on="0"/>
        <pt x="-9" y="10" on="0"/>
        <pt x="-39" y="-25" on="0"/>
        <pt x="-47" y="-31" on="1"/>
        <pt x="-55" y="-37" on="1"/>
        <pt x="-67" y="-46" on="0"/>
        <pt x="-72" y="-46" on="1"/>
        <pt x="-78" y="-46" on="0"/>
        <pt x="-78" y="-36" on="1"/>
        <pt x="-78" y="58" on="0"/>
        <pt x="211" y="532" on="1"/>
        <pt x="235" y="571" on="0"/>
        <pt x="274" y="637" on="0"/>
        <pt x="281" y="650" on="1"/>
        <pt x="288" y="664" on="1"/>
        <pt x="330" y="781" on="0"/>
        <pt x="352" y="781" on="1"/>
        <pt x="367" y="781" on="0"/>
        <pt x="367" y="731" on="1"/>
        <pt x="374" y="490" on="0"/>
        <pt x="374" y="326" on="1"/>
        <pt x="374" y="255" on="0"/>
        <pt x="373" y="229" on="1"/>
        <pt x="375" y="213" on="0"/>
        <pt x="382" y="213" on="1"/>
        <pt x="390" y="213" on="0"/>
        <pt x="402" y="236" on="1"/>
        <pt x="509" y="440" on="0"/>
        <pt x="537" y="500" on="1"/>
        <pt x="672" y="787" on="0"/>
        <pt x="787" y="787" on="1"/>
        <pt x="801" y="787" on="0"/>
        <pt x="801" y="779" on="1"/>
        <pt x="801" y="773" on="0"/>
        <pt x="791" y="763" on="1"/>
        <pt x="765" y="733" on="0"/>
      </contour>
      <contour>
        <pt x="695" y="866" on="1"/>
        <pt x="650" y="787" on="0"/>
        <pt x="593" y="787" on="1"/>
        <pt x="568" y="787" on="0"/>
        <pt x="500" y="832" on="0"/>
        <pt x="474" y="832" on="1"/>
        <pt x="451" y="828" on="1"/>
        <pt x="443" y="826" on="0"/>
        <pt x="441" y="826" on="1"/>
        <pt x="434" y="826" on="0"/>
        <pt x="434" y="833" on="1"/>
        <pt x="436" y="842" on="1"/>
        <pt x="461" y="875" on="0"/>
        <pt x="517" y="875" on="1"/>
        <pt x="538" y="875" on="0"/>
        <pt x="604" y="857" on="0"/>
        <pt x="621" y="857" on="1"/>
        <pt x="656" y="857" on="0"/>
        <pt x="681" y="877" on="1"/>
        <pt x="687" y="877" on="1"/>
        <pt x="697" y="877" on="0"/>
        <pt x="697" y="872" on="1"/>
        <pt x="697" y="870" on="0"/>
      </contour>
    </TTGlyph>
    <TTGlyph name="O" xMin="0" yMin="-30" xMax="643" yMax="764">
      <contour>
        <pt x="519" y="666" on="1"/>
        <pt x="498" y="666" on="0"/>
        <pt x="424" y="606" on="0"/>
        <pt x="378" y="555" on="0"/>
        <pt x="374" y="549" on="1"/>
        <pt x="363" y="534" on="0"/>
        <pt x="355" y="534" on="1"/>
        <pt x="348" y="534" on="0"/>
        <pt x="348" y="545" on="1"/>
        <pt x="348" y="548" on="0"/>
        <pt x="350" y="556" on="1"/>
        <pt x="373" y="625" on="0"/>
        <pt x="520" y="764" on="0"/>
        <pt x="585" y="764" on="1"/>
        <pt x="643" y="764" on="0"/>
        <pt x="643" y="675" on="1"/>
        <pt x="643" y="624" on="0"/>
        <pt x="599" y="477" on="0"/>
        <pt x="569" y="408" on="0"/>
        <pt x="559" y="388" on="1"/>
        <pt x="532" y="335" on="0"/>
        <pt x="466" y="230" on="0"/>
        <pt x="371" y="114" on="0"/>
        <pt x="270" y="27" on="0"/>
        <pt x="146" y="-30" on="0"/>
        <pt x="86" y="-30" on="1"/>
        <pt x="0" y="-30" on="0"/>
        <pt x="0" y="91" on="1"/>
        <pt x="0" y="190" on="0"/>
        <pt x="78" y="397" on="0"/>
        <pt x="190" y="550" on="0"/>
        <pt x="309" y="658" on="0"/>
        <pt x="354" y="672" on="1"/>
        <pt x="359" y="674" on="0"/>
        <pt x="375" y="674" on="0"/>
        <pt x="375" y="669" on="1"/>
        <pt x="375" y="663" on="0"/>
        <pt x="367" y="654" on="1"/>
        <pt x="338" y="626" on="0"/>
        <pt x="259" y="521" on="0"/>
        <pt x="166" y="371" on="0"/>
        <pt x="102" y="185" on="0"/>
        <pt x="102" y="103" on="1"/>
        <pt x="102" y="17" on="0"/>
        <pt x="159" y="17" on="1"/>
        <pt x="280" y="17" on="0"/>
        <pt x="424" y="267" on="1"/>
        <pt x="542" y="470" on="0"/>
        <pt x="542" y="635" on="1"/>
        <pt x="542" y="666" on="0"/>
      </contour>
    </TTGlyph>
    <TTGlyph name="OE" xMin="0" yMin="-30" xMax="1016" yMax="764">
      <contour>
        <pt x="519" y="666" on="1"/>
        <pt x="498" y="666" on="0"/>
        <pt x="424" y="606" on="0"/>
        <pt x="378" y="555" on="0"/>
        <pt x="374" y="549" on="1"/>
        <pt x="363" y="534" on="0"/>
        <pt x="355" y="534" on="1"/>
        <pt x="348" y="534" on="0"/>
        <pt x="348" y="545" on="1"/>
        <pt x="348" y="548" on="0"/>
        <pt x="350" y="556" on="1"/>
        <pt x="373" y="625" on="0"/>
        <pt x="520" y="764" on="0"/>
        <pt x="585" y="764" on="1"/>
        <pt x="643" y="764" on="0"/>
        <pt x="643" y="675" on="1"/>
        <pt x="643" y="659" on="0"/>
        <pt x="639" y="627" on="1"/>
        <pt x="645" y="636" on="1"/>
        <pt x="680" y="692" on="0"/>
        <pt x="680" y="720" on="1"/>
        <pt x="680" y="726" on="0"/>
        <pt x="675" y="740" on="0"/>
        <pt x="675" y="742" on="1"/>
        <pt x="675" y="753" on="0"/>
        <pt x="689" y="753" on="1"/>
        <pt x="773" y="759" on="0"/>
        <pt x="869" y="759" on="1"/>
        <pt x="951" y="759" on="0"/>
        <pt x="1001" y="754" on="1"/>
        <pt x="1016" y="754" on="0"/>
        <pt x="1016" y="741" on="1"/>
        <pt x="1016" y="738" on="0"/>
        <pt x="1013" y="730" on="1"/>
        <pt x="980" y="647" on="0"/>
        <pt x="946" y="600" on="1"/>
        <pt x="941" y="595" on="0"/>
        <pt x="935" y="595" on="1"/>
        <pt x="926" y="595" on="0"/>
        <pt x="926" y="608" on="1"/>
        <pt x="931" y="627" on="0"/>
        <pt x="931" y="649" on="1"/>
        <pt x="931" y="731" on="0"/>
        <pt x="849" y="731" on="1"/>
        <pt x="845" y="731" on="1"/>
        <pt x="794" y="731" on="0"/>
        <pt x="772" y="703" on="1"/>
        <pt x="721" y="640" on="0"/>
        <pt x="636" y="486" on="1"/>
        <pt x="626" y="469" on="0"/>
        <pt x="611" y="442" on="1"/>
        <pt x="658" y="443" on="0"/>
        <pt x="761" y="443" on="1"/>
        <pt x="771" y="443" on="0"/>
        <pt x="771" y="431" on="0"/>
        <pt x="754" y="415" on="0"/>
        <pt x="744" y="414" on="1"/>
        <pt x="683" y="411" on="0"/>
        <pt x="606" y="411" on="1"/>
        <pt x="594" y="411" on="1"/>
        <pt x="453" y="155" on="0"/>
        <pt x="426" y="64" on="1"/>
        <pt x="422" y="52" on="0"/>
        <pt x="422" y="42" on="1"/>
        <pt x="422" y="12" on="0"/>
        <pt x="475" y="12" on="1"/>
        <pt x="497" y="12" on="0"/>
        <pt x="549" y="29" on="0"/>
        <pt x="624" y="72" on="0"/>
        <pt x="718" y="166" on="0"/>
        <pt x="767" y="233" on="1"/>
        <pt x="773" y="244" on="0"/>
        <pt x="785" y="244" on="1"/>
        <pt x="793" y="244" on="0"/>
        <pt x="793" y="236" on="1"/>
        <pt x="793" y="234" on="0"/>
        <pt x="791" y="228" on="1"/>
        <pt x="743" y="105" on="0"/>
        <pt x="669" y="8" on="1"/>
        <pt x="663" y="-6" on="0"/>
        <pt x="639" y="-10" on="1"/>
        <pt x="557" y="-14" on="0"/>
        <pt x="466" y="-14" on="1"/>
        <pt x="355" y="-14" on="0"/>
        <pt x="299" y="-8" on="1"/>
        <pt x="289" y="-7" on="0"/>
        <pt x="289" y="6" on="1"/>
        <pt x="289" y="13" on="0"/>
        <pt x="293" y="24" on="1"/>
        <pt x="309" y="62" on="1"/>
        <pt x="197" y="-30" on="0"/>
        <pt x="86" y="-30" on="1"/>
        <pt x="0" y="-30" on="0"/>
        <pt x="0" y="91" on="1"/>
        <pt x="0" y="190" on="0"/>
        <pt x="78" y="397" on="0"/>
        <pt x="190" y="550" on="0"/>
        <pt x="309" y="658" on="0"/>
        <pt x="354" y="672" on="1"/>
        <pt x="359" y="674" on="0"/>
        <pt x="375" y="674" on="0"/>
        <pt x="375" y="669" on="1"/>
        <pt x="375" y="663" on="0"/>
        <pt x="367" y="654" on="1"/>
        <pt x="338" y="626" on="0"/>
        <pt x="259" y="521" on="0"/>
        <pt x="166" y="371" on="0"/>
        <pt x="102" y="185" on="0"/>
        <pt x="102" y="103" on="1"/>
        <pt x="102" y="17" on="0"/>
        <pt x="159" y="17" on="1"/>
        <pt x="257" y="17" on="0"/>
        <pt x="374" y="187" on="1"/>
        <pt x="425" y="278" on="0"/>
        <pt x="467" y="348" on="1"/>
        <pt x="542" y="505" on="0"/>
        <pt x="542" y="635" on="1"/>
        <pt x="542" y="666" on="0"/>
      </contour>
    </TTGlyph>
    <TTGlyph name="Oacute" xMin="0" yMin="-30" xMax="643" yMax="885">
      <contour>
        <pt x="519" y="666" on="1"/>
        <pt x="498" y="666" on="0"/>
        <pt x="424" y="606" on="0"/>
        <pt x="378" y="555" on="0"/>
        <pt x="374" y="549" on="1"/>
        <pt x="363" y="534" on="0"/>
        <pt x="355" y="534" on="1"/>
        <pt x="348" y="534" on="0"/>
        <pt x="348" y="545" on="1"/>
        <pt x="348" y="548" on="0"/>
        <pt x="350" y="556" on="1"/>
        <pt x="373" y="625" on="0"/>
        <pt x="520" y="764" on="0"/>
        <pt x="585" y="764" on="1"/>
        <pt x="643" y="764" on="0"/>
        <pt x="643" y="675" on="1"/>
        <pt x="643" y="624" on="0"/>
        <pt x="599" y="477" on="0"/>
        <pt x="569" y="408" on="0"/>
        <pt x="559" y="388" on="1"/>
        <pt x="532" y="335" on="0"/>
        <pt x="466" y="230" on="0"/>
        <pt x="371" y="114" on="0"/>
        <pt x="270" y="27" on="0"/>
        <pt x="146" y="-30" on="0"/>
        <pt x="86" y="-30" on="1"/>
        <pt x="0" y="-30" on="0"/>
        <pt x="0" y="91" on="1"/>
        <pt x="0" y="190" on="0"/>
        <pt x="78" y="397" on="0"/>
        <pt x="190" y="550" on="0"/>
        <pt x="309" y="658" on="0"/>
        <pt x="354" y="672" on="1"/>
        <pt x="359" y="674" on="0"/>
        <pt x="375" y="674" on="0"/>
        <pt x="375" y="669" on="1"/>
        <pt x="375" y="663" on="0"/>
        <pt x="367" y="654" on="1"/>
        <pt x="338" y="626" on="0"/>
        <pt x="259" y="521" on="0"/>
        <pt x="166" y="371" on="0"/>
        <pt x="102" y="185" on="0"/>
        <pt x="102" y="103" on="1"/>
        <pt x="102" y="17" on="0"/>
        <pt x="159" y="17" on="1"/>
        <pt x="280" y="17" on="0"/>
        <pt x="424" y="267" on="1"/>
        <pt x="542" y="470" on="0"/>
        <pt x="542" y="635" on="1"/>
        <pt x="542" y="666" on="0"/>
      </contour>
      <contour>
        <pt x="603" y="870" on="1"/>
        <pt x="576" y="839" on="0"/>
        <pt x="501" y="792" on="0"/>
        <pt x="478" y="784" on="1"/>
        <pt x="454" y="776" on="1"/>
        <pt x="443" y="776" on="0"/>
        <pt x="443" y="780" on="1"/>
        <pt x="443" y="783" on="0"/>
        <pt x="447" y="789" on="1"/>
        <pt x="457" y="797" on="0"/>
        <pt x="497" y="840" on="0"/>
        <pt x="512" y="858" on="1"/>
        <pt x="527" y="876" on="1"/>
        <pt x="533" y="885" on="0"/>
        <pt x="546" y="885" on="1"/>
        <pt x="595" y="885" on="1"/>
        <pt x="607" y="885" on="0"/>
        <pt x="607" y="878" on="1"/>
        <pt x="607" y="874" on="0"/>
      </contour>
    </TTGlyph>
    <TTGlyph name="Ocircumflex" xMin="0" yMin="-30" xMax="643" yMax="901">
      <contour>
        <pt x="519" y="666" on="1"/>
        <pt x="498" y="666" on="0"/>
        <pt x="424" y="606" on="0"/>
        <pt x="378" y="555" on="0"/>
        <pt x="374" y="549" on="1"/>
        <pt x="363" y="534" on="0"/>
        <pt x="355" y="534" on="1"/>
        <pt x="348" y="534" on="0"/>
        <pt x="348" y="545" on="1"/>
        <pt x="348" y="548" on="0"/>
        <pt x="350" y="556" on="1"/>
        <pt x="373" y="625" on="0"/>
        <pt x="520" y="764" on="0"/>
        <pt x="585" y="764" on="1"/>
        <pt x="643" y="764" on="0"/>
        <pt x="643" y="675" on="1"/>
        <pt x="643" y="624" on="0"/>
        <pt x="599" y="477" on="0"/>
        <pt x="569" y="408" on="0"/>
        <pt x="559" y="388" on="1"/>
        <pt x="532" y="335" on="0"/>
        <pt x="466" y="230" on="0"/>
        <pt x="371" y="114" on="0"/>
        <pt x="270" y="27" on="0"/>
        <pt x="146" y="-30" on="0"/>
        <pt x="86" y="-30" on="1"/>
        <pt x="0" y="-30" on="0"/>
        <pt x="0" y="91" on="1"/>
        <pt x="0" y="190" on="0"/>
        <pt x="78" y="397" on="0"/>
        <pt x="190" y="550" on="0"/>
        <pt x="309" y="658" on="0"/>
        <pt x="354" y="672" on="1"/>
        <pt x="359" y="674" on="0"/>
        <pt x="375" y="674" on="0"/>
        <pt x="375" y="669" on="1"/>
        <pt x="375" y="663" on="0"/>
        <pt x="367" y="654" on="1"/>
        <pt x="338" y="626" on="0"/>
        <pt x="259" y="521" on="0"/>
        <pt x="166" y="371" on="0"/>
        <pt x="102" y="185" on="0"/>
        <pt x="102" y="103" on="1"/>
        <pt x="102" y="17" on="0"/>
        <pt x="159" y="17" on="1"/>
        <pt x="280" y="17" on="0"/>
        <pt x="424" y="267" on="1"/>
        <pt x="542" y="470" on="0"/>
        <pt x="542" y="635" on="1"/>
        <pt x="542" y="666" on="0"/>
      </contour>
      <contour>
        <pt x="562" y="868" on="1"/>
        <pt x="561" y="872" on="0"/>
        <pt x="559" y="872" on="1"/>
        <pt x="553" y="868" on="1"/>
        <pt x="520" y="835" on="0"/>
        <pt x="434" y="792" on="0"/>
        <pt x="417" y="792" on="1"/>
        <pt x="410" y="792" on="0"/>
        <pt x="410" y="796" on="1"/>
        <pt x="414" y="805" on="1"/>
        <pt x="424" y="813" on="0"/>
        <pt x="464" y="857" on="0"/>
        <pt x="479" y="874" on="1"/>
        <pt x="494" y="892" on="1"/>
        <pt x="500" y="901" on="0"/>
        <pt x="513" y="901" on="1"/>
        <pt x="622" y="901" on="1"/>
        <pt x="630" y="901" on="0"/>
        <pt x="630" y="894" on="1"/>
        <pt x="630" y="893" on="0"/>
        <pt x="626" y="863" on="0"/>
        <pt x="622" y="816" on="0"/>
        <pt x="622" y="796" on="1"/>
        <pt x="622" y="786" on="0"/>
        <pt x="616" y="786" on="1"/>
        <pt x="601" y="786" on="0"/>
        <pt x="567" y="845" on="0"/>
      </contour>
    </TTGlyph>
    <TTGlyph name="Odieresis" xMin="0" yMin="-30" xMax="672" yMax="882">
      <contour>
        <pt x="519" y="666" on="1"/>
        <pt x="498" y="666" on="0"/>
        <pt x="424" y="606" on="0"/>
        <pt x="378" y="555" on="0"/>
        <pt x="374" y="549" on="1"/>
        <pt x="363" y="534" on="0"/>
        <pt x="355" y="534" on="1"/>
        <pt x="348" y="534" on="0"/>
        <pt x="348" y="545" on="1"/>
        <pt x="348" y="548" on="0"/>
        <pt x="350" y="556" on="1"/>
        <pt x="373" y="625" on="0"/>
        <pt x="520" y="764" on="0"/>
        <pt x="585" y="764" on="1"/>
        <pt x="643" y="764" on="0"/>
        <pt x="643" y="675" on="1"/>
        <pt x="643" y="624" on="0"/>
        <pt x="599" y="477" on="0"/>
        <pt x="569" y="408" on="0"/>
        <pt x="559" y="388" on="1"/>
        <pt x="532" y="335" on="0"/>
        <pt x="466" y="230" on="0"/>
        <pt x="371" y="114" on="0"/>
        <pt x="270" y="27" on="0"/>
        <pt x="146" y="-30" on="0"/>
        <pt x="86" y="-30" on="1"/>
        <pt x="0" y="-30" on="0"/>
        <pt x="0" y="91" on="1"/>
        <pt x="0" y="190" on="0"/>
        <pt x="78" y="397" on="0"/>
        <pt x="190" y="550" on="0"/>
        <pt x="309" y="658" on="0"/>
        <pt x="354" y="672" on="1"/>
        <pt x="359" y="674" on="0"/>
        <pt x="375" y="674" on="0"/>
        <pt x="375" y="669" on="1"/>
        <pt x="375" y="663" on="0"/>
        <pt x="367" y="654" on="1"/>
        <pt x="338" y="626" on="0"/>
        <pt x="259" y="521" on="0"/>
        <pt x="166" y="371" on="0"/>
        <pt x="102" y="185" on="0"/>
        <pt x="102" y="103" on="1"/>
        <pt x="102" y="17" on="0"/>
        <pt x="159" y="17" on="1"/>
        <pt x="280" y="17" on="0"/>
        <pt x="424" y="267" on="1"/>
        <pt x="542" y="470" on="0"/>
        <pt x="542" y="635" on="1"/>
        <pt x="542" y="666" on="0"/>
      </contour>
      <contour>
        <pt x="450" y="784" on="1"/>
        <pt x="425" y="784" on="0"/>
        <pt x="425" y="812" on="1"/>
        <pt x="425" y="837" on="0"/>
        <pt x="465" y="882" on="0"/>
        <pt x="486" y="882" on="1"/>
        <pt x="511" y="882" on="0"/>
        <pt x="511" y="855" on="1"/>
        <pt x="511" y="830" on="0"/>
        <pt x="473" y="784" on="0"/>
      </contour>
      <contour>
        <pt x="611" y="784" on="1"/>
        <pt x="586" y="784" on="0"/>
        <pt x="586" y="812" on="1"/>
        <pt x="586" y="838" on="0"/>
        <pt x="626" y="882" on="0"/>
        <pt x="648" y="882" on="1"/>
        <pt x="672" y="882" on="0"/>
        <pt x="672" y="854" on="1"/>
        <pt x="672" y="829" on="0"/>
        <pt x="634" y="784" on="0"/>
      </contour>
    </TTGlyph>
    <TTGlyph name="Ograve" xMin="0" yMin="-30" xMax="643" yMax="911">
      <contour>
        <pt x="519" y="666" on="1"/>
        <pt x="498" y="666" on="0"/>
        <pt x="424" y="606" on="0"/>
        <pt x="378" y="555" on="0"/>
        <pt x="374" y="549" on="1"/>
        <pt x="363" y="534" on="0"/>
        <pt x="355" y="534" on="1"/>
        <pt x="348" y="534" on="0"/>
        <pt x="348" y="545" on="1"/>
        <pt x="348" y="548" on="0"/>
        <pt x="350" y="556" on="1"/>
        <pt x="373" y="625" on="0"/>
        <pt x="520" y="764" on="0"/>
        <pt x="585" y="764" on="1"/>
        <pt x="643" y="764" on="0"/>
        <pt x="643" y="675" on="1"/>
        <pt x="643" y="624" on="0"/>
        <pt x="599" y="477" on="0"/>
        <pt x="569" y="408" on="0"/>
        <pt x="559" y="388" on="1"/>
        <pt x="532" y="335" on="0"/>
        <pt x="466" y="230" on="0"/>
        <pt x="371" y="114" on="0"/>
        <pt x="270" y="27" on="0"/>
        <pt x="146" y="-30" on="0"/>
        <pt x="86" y="-30" on="1"/>
        <pt x="0" y="-30" on="0"/>
        <pt x="0" y="91" on="1"/>
        <pt x="0" y="190" on="0"/>
        <pt x="78" y="397" on="0"/>
        <pt x="190" y="550" on="0"/>
        <pt x="309" y="658" on="0"/>
        <pt x="354" y="672" on="1"/>
        <pt x="359" y="674" on="0"/>
        <pt x="375" y="674" on="0"/>
        <pt x="375" y="669" on="1"/>
        <pt x="375" y="663" on="0"/>
        <pt x="367" y="654" on="1"/>
        <pt x="338" y="626" on="0"/>
        <pt x="259" y="521" on="0"/>
        <pt x="166" y="371" on="0"/>
        <pt x="102" y="185" on="0"/>
        <pt x="102" y="103" on="1"/>
        <pt x="102" y="17" on="0"/>
        <pt x="159" y="17" on="1"/>
        <pt x="280" y="17" on="0"/>
        <pt x="424" y="267" on="1"/>
        <pt x="542" y="470" on="0"/>
        <pt x="542" y="635" on="1"/>
        <pt x="542" y="666" on="0"/>
      </contour>
      <contour>
        <pt x="591" y="802" on="1"/>
        <pt x="591" y="796" on="0"/>
        <pt x="586" y="796" on="1"/>
        <pt x="582" y="796" on="0"/>
        <pt x="573" y="802" on="1"/>
        <pt x="555" y="814" on="0"/>
        <pt x="525" y="864" on="0"/>
        <pt x="519" y="882" on="1"/>
        <pt x="513" y="901" on="1"/>
        <pt x="513" y="911" on="0"/>
        <pt x="521" y="911" on="1"/>
        <pt x="575" y="911" on="1"/>
        <pt x="586" y="911" on="0"/>
        <pt x="586" y="900" on="1"/>
        <pt x="586" y="878" on="1"/>
        <pt x="586" y="836" on="0"/>
      </contour>
    </TTGlyph>
    <TTGlyph name="Oslash" xMin="-82" yMin="-30" xMax="755" yMax="792">
      <contour>
        <pt x="752" y="776" on="1"/>
        <pt x="643" y="663" on="1"/>
        <pt x="641" y="613" on="0"/>
        <pt x="599" y="475" on="0"/>
        <pt x="566" y="401" on="0"/>
        <pt x="559" y="388" on="1"/>
        <pt x="532" y="335" on="0"/>
        <pt x="466" y="230" on="0"/>
        <pt x="371" y="114" on="0"/>
        <pt x="270" y="27" on="0"/>
        <pt x="146" y="-30" on="0"/>
        <pt x="86" y="-30" on="1"/>
        <pt x="33" y="-30" on="0"/>
        <pt x="12" y="18" on="1"/>
        <pt x="-22" y="-16" on="1"/>
        <pt x="-36" y="-30" on="0"/>
        <pt x="-71" y="-30" on="1"/>
        <pt x="-82" y="-30" on="0"/>
        <pt x="-82" y="-26" on="1"/>
        <pt x="-77" y="-17" on="1"/>
        <pt x="-46" y="14" on="0"/>
        <pt x="1" y="63" on="1"/>
        <pt x="0" y="72" on="0"/>
        <pt x="0" y="91" on="1"/>
        <pt x="0" y="190" on="0"/>
        <pt x="78" y="397" on="0"/>
        <pt x="190" y="550" on="0"/>
        <pt x="309" y="658" on="0"/>
        <pt x="354" y="672" on="1"/>
        <pt x="359" y="674" on="0"/>
        <pt x="375" y="674" on="0"/>
        <pt x="375" y="669" on="1"/>
        <pt x="375" y="663" on="0"/>
        <pt x="367" y="654" on="1"/>
        <pt x="301" y="590" on="0"/>
        <pt x="129" y="312" on="0"/>
        <pt x="107" y="172" on="1"/>
        <pt x="336" y="405" on="0"/>
        <pt x="541" y="616" on="1"/>
        <pt x="542" y="622" on="0"/>
        <pt x="542" y="635" on="1"/>
        <pt x="542" y="666" on="0"/>
        <pt x="519" y="666" on="1"/>
        <pt x="498" y="666" on="0"/>
        <pt x="424" y="606" on="0"/>
        <pt x="378" y="555" on="0"/>
        <pt x="374" y="549" on="1"/>
        <pt x="363" y="534" on="0"/>
        <pt x="355" y="534" on="1"/>
        <pt x="348" y="534" on="0"/>
        <pt x="348" y="545" on="1"/>
        <pt x="348" y="548" on="0"/>
        <pt x="350" y="556" on="1"/>
        <pt x="373" y="625" on="0"/>
        <pt x="520" y="764" on="0"/>
        <pt x="585" y="764" on="1"/>
        <pt x="627" y="764" on="0"/>
        <pt x="639" y="715" on="1"/>
        <pt x="696" y="773" on="1"/>
        <pt x="715" y="792" on="0"/>
        <pt x="732" y="792" on="1"/>
        <pt x="755" y="792" on="0"/>
        <pt x="755" y="782" on="1"/>
        <pt x="755" y="779" on="0"/>
      </contour>
      <contour>
        <pt x="424" y="267" on="1"/>
        <pt x="514" y="424" on="0"/>
        <pt x="535" y="553" on="1"/>
        <pt x="102" y="110" on="1"/>
        <pt x="102" y="103" on="1"/>
        <pt x="102" y="17" on="0"/>
        <pt x="159" y="17" on="1"/>
        <pt x="280" y="17" on="0"/>
      </contour>
    </TTGlyph>
    <TTGlyph name="Otilde" xMin="0" yMin="-30" xMax="697" yMax="877">
      <contour>
        <pt x="695" y="866" on="1"/>
        <pt x="650" y="787" on="0"/>
        <pt x="593" y="787" on="1"/>
        <pt x="568" y="787" on="0"/>
        <pt x="500" y="832" on="0"/>
        <pt x="474" y="832" on="1"/>
        <pt x="451" y="828" on="1"/>
        <pt x="443" y="826" on="0"/>
        <pt x="441" y="826" on="1"/>
        <pt x="434" y="826" on="0"/>
        <pt x="434" y="833" on="1"/>
        <pt x="436" y="842" on="1"/>
        <pt x="461" y="875" on="0"/>
        <pt x="517" y="875" on="1"/>
        <pt x="538" y="875" on="0"/>
        <pt x="604" y="857" on="0"/>
        <pt x="621" y="857" on="1"/>
        <pt x="656" y="857" on="0"/>
        <pt x="681" y="877" on="1"/>
        <pt x="687" y="877" on="1"/>
        <pt x="697" y="877" on="0"/>
        <pt x="697" y="872" on="1"/>
        <pt x="697" y="870" on="0"/>
      </contour>
      <contour>
        <pt x="519" y="666" on="1"/>
        <pt x="498" y="666" on="0"/>
        <pt x="424" y="606" on="0"/>
        <pt x="378" y="555" on="0"/>
        <pt x="374" y="549" on="1"/>
        <pt x="363" y="534" on="0"/>
        <pt x="355" y="534" on="1"/>
        <pt x="348" y="534" on="0"/>
        <pt x="348" y="545" on="1"/>
        <pt x="348" y="548" on="0"/>
        <pt x="350" y="556" on="1"/>
        <pt x="373" y="625" on="0"/>
        <pt x="520" y="764" on="0"/>
        <pt x="585" y="764" on="1"/>
        <pt x="643" y="764" on="0"/>
        <pt x="643" y="675" on="1"/>
        <pt x="643" y="624" on="0"/>
        <pt x="599" y="477" on="0"/>
        <pt x="569" y="408" on="0"/>
        <pt x="559" y="388" on="1"/>
        <pt x="532" y="335" on="0"/>
        <pt x="466" y="230" on="0"/>
        <pt x="371" y="114" on="0"/>
        <pt x="270" y="27" on="0"/>
        <pt x="146" y="-30" on="0"/>
        <pt x="86" y="-30" on="1"/>
        <pt x="0" y="-30" on="0"/>
        <pt x="0" y="91" on="1"/>
        <pt x="0" y="190" on="0"/>
        <pt x="78" y="397" on="0"/>
        <pt x="190" y="550" on="0"/>
        <pt x="309" y="658" on="0"/>
        <pt x="354" y="672" on="1"/>
        <pt x="359" y="674" on="0"/>
        <pt x="375" y="674" on="0"/>
        <pt x="375" y="669" on="1"/>
        <pt x="375" y="663" on="0"/>
        <pt x="367" y="654" on="1"/>
        <pt x="338" y="626" on="0"/>
        <pt x="259" y="521" on="0"/>
        <pt x="166" y="371" on="0"/>
        <pt x="102" y="185" on="0"/>
        <pt x="102" y="103" on="1"/>
        <pt x="102" y="17" on="0"/>
        <pt x="159" y="17" on="1"/>
        <pt x="280" y="17" on="0"/>
        <pt x="424" y="267" on="1"/>
        <pt x="542" y="470" on="0"/>
        <pt x="542" y="635" on="1"/>
        <pt x="542" y="666" on="0"/>
      </contour>
    </TTGlyph>
    <TTGlyph name="P" xMin="-33" yMin="-57" xMax="623" yMax="759">
      <contour>
        <pt x="244" y="323" on="1"/>
        <pt x="237" y="310" on="0"/>
        <pt x="160" y="154" on="1"/>
        <pt x="109" y="50" on="0"/>
        <pt x="6" y="-57" on="0"/>
        <pt x="-21" y="-57" on="1"/>
        <pt x="-33" y="-57" on="0"/>
        <pt x="-33" y="-46" on="1"/>
        <pt x="-30" y="-34" on="1"/>
        <pt x="-19" y="-4" on="0"/>
        <pt x="96" y="218" on="0"/>
        <pt x="146" y="304" on="1"/>
        <pt x="193" y="386" on="0"/>
        <pt x="283" y="539" on="0"/>
        <pt x="305" y="575" on="1"/>
        <pt x="327" y="611" on="1"/>
        <pt x="329" y="614" on="0"/>
        <pt x="335" y="624" on="0"/>
        <pt x="356" y="650" on="0"/>
        <pt x="378" y="669" on="0"/>
        <pt x="408" y="685" on="0"/>
        <pt x="422" y="685" on="1"/>
        <pt x="435" y="685" on="0"/>
        <pt x="435" y="678" on="1"/>
        <pt x="435" y="669" on="0"/>
        <pt x="423" y="652" on="1"/>
        <pt x="348" y="524" on="0"/>
        <pt x="263" y="361" on="1"/>
        <pt x="262" y="359" on="0"/>
        <pt x="262" y="357" on="1"/>
        <pt x="262" y="354" on="0"/>
        <pt x="266" y="354" on="1"/>
        <pt x="329" y="354" on="0"/>
        <pt x="436" y="402" on="0"/>
        <pt x="503" y="479" on="0"/>
        <pt x="540" y="567" on="0"/>
        <pt x="540" y="610" on="1"/>
        <pt x="540" y="671" on="0"/>
        <pt x="448" y="733" on="0"/>
        <pt x="386" y="733" on="1"/>
        <pt x="339" y="733" on="0"/>
        <pt x="250" y="705" on="0"/>
        <pt x="183" y="637" on="0"/>
        <pt x="183" y="590" on="1"/>
        <pt x="183" y="562" on="0"/>
        <pt x="198" y="536" on="1"/>
        <pt x="203" y="526" on="0"/>
        <pt x="203" y="522" on="1"/>
        <pt x="203" y="516" on="0"/>
        <pt x="195" y="516" on="1"/>
        <pt x="193" y="516" on="0"/>
        <pt x="187" y="518" on="1"/>
        <pt x="184" y="519" on="0"/>
        <pt x="174" y="525" on="0"/>
        <pt x="148" y="543" on="0"/>
        <pt x="128" y="563" on="0"/>
        <pt x="112" y="596" on="0"/>
        <pt x="112" y="613" on="1"/>
        <pt x="112" y="675" on="0"/>
        <pt x="265" y="759" on="0"/>
        <pt x="362" y="759" on="1"/>
        <pt x="409" y="759" on="0"/>
        <pt x="494" y="743" on="0"/>
        <pt x="575" y="708" on="0"/>
        <pt x="623" y="642" on="0"/>
        <pt x="623" y="597" on="1"/>
        <pt x="623" y="530" on="0"/>
        <pt x="554" y="423" on="0"/>
        <pt x="443" y="360" on="0"/>
        <pt x="317" y="327" on="0"/>
        <pt x="253" y="327" on="1"/>
        <pt x="252" y="328" on="0"/>
        <pt x="250" y="328" on="1"/>
        <pt x="246" y="328" on="0"/>
      </contour>
    </TTGlyph>
    <TTGlyph name="Q" xMin="0" yMin="-119" xMax="643" yMax="764">
      <contour>
        <pt x="519" y="666" on="1"/>
        <pt x="498" y="666" on="0"/>
        <pt x="424" y="606" on="0"/>
        <pt x="378" y="555" on="0"/>
        <pt x="374" y="549" on="1"/>
        <pt x="363" y="534" on="0"/>
        <pt x="355" y="534" on="1"/>
        <pt x="348" y="534" on="0"/>
        <pt x="348" y="545" on="1"/>
        <pt x="348" y="548" on="0"/>
        <pt x="350" y="556" on="1"/>
        <pt x="373" y="625" on="0"/>
        <pt x="520" y="764" on="0"/>
        <pt x="585" y="764" on="1"/>
        <pt x="643" y="764" on="0"/>
        <pt x="643" y="675" on="1"/>
        <pt x="643" y="624" on="0"/>
        <pt x="599" y="477" on="0"/>
        <pt x="569" y="408" on="0"/>
        <pt x="559" y="388" on="1"/>
        <pt x="504" y="278" on="0"/>
        <pt x="334" y="66" on="0"/>
        <pt x="236" y="12" on="1"/>
        <pt x="252" y="-52" on="0"/>
        <pt x="293" y="-52" on="1"/>
        <pt x="311" y="-52" on="0"/>
        <pt x="337" y="-38" on="1"/>
        <pt x="341" y="-35" on="0"/>
        <pt x="345" y="-35" on="1"/>
        <pt x="351" y="-35" on="0"/>
        <pt x="351" y="-41" on="1"/>
        <pt x="351" y="-43" on="0"/>
        <pt x="349" y="-47" on="1"/>
        <pt x="344" y="-55" on="0"/>
        <pt x="325" y="-79" on="0"/>
        <pt x="271" y="-119" on="0"/>
        <pt x="247" y="-119" on="1"/>
        <pt x="187" y="-119" on="0"/>
        <pt x="180" y="-13" on="1"/>
        <pt x="134" y="-30" on="0"/>
        <pt x="86" y="-30" on="1"/>
        <pt x="0" y="-30" on="0"/>
        <pt x="0" y="91" on="1"/>
        <pt x="0" y="190" on="0"/>
        <pt x="78" y="397" on="0"/>
        <pt x="190" y="550" on="0"/>
        <pt x="309" y="658" on="0"/>
        <pt x="354" y="672" on="1"/>
        <pt x="359" y="674" on="0"/>
        <pt x="375" y="674" on="0"/>
        <pt x="375" y="669" on="1"/>
        <pt x="375" y="663" on="0"/>
        <pt x="367" y="654" on="1"/>
        <pt x="338" y="626" on="0"/>
        <pt x="259" y="521" on="0"/>
        <pt x="166" y="371" on="0"/>
        <pt x="102" y="185" on="0"/>
        <pt x="102" y="103" on="1"/>
        <pt x="102" y="17" on="0"/>
        <pt x="159" y="17" on="1"/>
        <pt x="173" y="17" on="0"/>
        <pt x="180" y="19" on="1"/>
        <pt x="180" y="76" on="0"/>
        <pt x="194" y="150" on="1"/>
        <pt x="200" y="184" on="0"/>
        <pt x="218" y="248" on="0"/>
        <pt x="224" y="262" on="1"/>
        <pt x="229" y="277" on="1"/>
        <pt x="234" y="289" on="0"/>
        <pt x="242" y="289" on="1"/>
        <pt x="245" y="289" on="0"/>
        <pt x="245" y="284" on="1"/>
        <pt x="245" y="277" on="0"/>
        <pt x="244" y="270" on="1"/>
        <pt x="228" y="183" on="0"/>
        <pt x="228" y="99" on="1"/>
        <pt x="228" y="66" on="0"/>
        <pt x="231" y="38" on="1"/>
        <pt x="322" y="91" on="0"/>
        <pt x="424" y="267" on="1"/>
        <pt x="542" y="470" on="0"/>
        <pt x="542" y="635" on="1"/>
        <pt x="542" y="666" on="0"/>
      </contour>
    </TTGlyph>
    <TTGlyph name="R" xMin="-65" yMin="-56" xMax="634" yMax="765">
      <contour>
        <pt x="355" y="-12" on="1"/>
        <pt x="305" y="69" on="0"/>
        <pt x="305" y="355" on="1"/>
        <pt x="306" y="416" on="1"/>
        <pt x="306" y="422" on="0"/>
        <pt x="312" y="428" on="0"/>
        <pt x="315" y="428" on="1"/>
        <pt x="318" y="429" on="1"/>
        <pt x="401" y="438" on="0"/>
        <pt x="544" y="555" on="0"/>
        <pt x="544" y="631" on="1"/>
        <pt x="544" y="661" on="0"/>
        <pt x="513" y="706" on="0"/>
        <pt x="462" y="729" on="0"/>
        <pt x="409" y="740" on="0"/>
        <pt x="383" y="740" on="1"/>
        <pt x="337" y="740" on="0"/>
        <pt x="247" y="710" on="0"/>
        <pt x="179" y="642" on="0"/>
        <pt x="179" y="596" on="1"/>
        <pt x="179" y="568" on="0"/>
        <pt x="195" y="540" on="1"/>
        <pt x="199" y="530" on="0"/>
        <pt x="199" y="527" on="1"/>
        <pt x="199" y="521" on="0"/>
        <pt x="193" y="521" on="1"/>
        <pt x="184" y="521" on="0"/>
        <pt x="170" y="530" on="1"/>
        <pt x="108" y="567" on="0"/>
        <pt x="108" y="619" on="1"/>
        <pt x="108" y="687" on="0"/>
        <pt x="275" y="765" on="0"/>
        <pt x="388" y="765" on="1"/>
        <pt x="426" y="765" on="0"/>
        <pt x="499" y="755" on="0"/>
        <pt x="583" y="731" on="0"/>
        <pt x="634" y="678" on="0"/>
        <pt x="634" y="640" on="1"/>
        <pt x="634" y="589" on="0"/>
        <pt x="545" y="491" on="0"/>
        <pt x="437" y="431" on="0"/>
        <pt x="389" y="419" on="1"/>
        <pt x="382" y="414" on="0"/>
        <pt x="382" y="408" on="1"/>
        <pt x="382" y="372" on="0"/>
        <pt x="386" y="281" on="0"/>
        <pt x="399" y="118" on="0"/>
        <pt x="436" y="-13" on="0"/>
        <pt x="464" y="-39" on="1"/>
        <pt x="469" y="-44" on="0"/>
        <pt x="469" y="-48" on="1"/>
        <pt x="469" y="-56" on="0"/>
        <pt x="444" y="-56" on="1"/>
        <pt x="415" y="-56" on="0"/>
        <pt x="371" y="-34" on="0"/>
        <pt x="356" y="-16" on="0"/>
      </contour>
      <contour>
        <pt x="128" y="159" on="1"/>
        <pt x="107" y="111" on="0"/>
        <pt x="57" y="33" on="0"/>
        <pt x="15" y="-11" on="0"/>
        <pt x="-21" y="-41" on="0"/>
        <pt x="-32" y="-46" on="1"/>
        <pt x="-42" y="-51" on="1"/>
        <pt x="-48" y="-54" on="0"/>
        <pt x="-54" y="-54" on="1"/>
        <pt x="-65" y="-54" on="0"/>
        <pt x="-65" y="-41" on="1"/>
        <pt x="-62" y="-29" on="1"/>
        <pt x="-52" y="-1" on="0"/>
        <pt x="65" y="226" on="0"/>
        <pt x="117" y="318" on="1"/>
        <pt x="165" y="404" on="0"/>
        <pt x="254" y="553" on="0"/>
        <pt x="274" y="584" on="1"/>
        <pt x="295" y="616" on="1"/>
        <pt x="320" y="650" on="0"/>
        <pt x="372" y="686" on="0"/>
        <pt x="388" y="686" on="1"/>
        <pt x="399" y="686" on="0"/>
        <pt x="399" y="678" on="1"/>
        <pt x="399" y="672" on="0"/>
        <pt x="391" y="657" on="1"/>
        <pt x="384" y="645" on="0"/>
        <pt x="287" y="470" on="0"/>
        <pt x="154" y="219" on="0"/>
      </contour>
    </TTGlyph>
    <TTGlyph name="S" xMin="-37" yMin="-25" xMax="628" yMax="764">
      <contour>
        <pt x="-34" y="69" on="1"/>
        <pt x="-18" y="109" on="0"/>
        <pt x="41" y="215" on="0"/>
        <pt x="63" y="248" on="1"/>
        <pt x="85" y="280" on="1"/>
        <pt x="99" y="300" on="0"/>
        <pt x="113" y="300" on="1"/>
        <pt x="124" y="300" on="0"/>
        <pt x="124" y="289" on="1"/>
        <pt x="121" y="279" on="1"/>
        <pt x="85" y="188" on="0"/>
        <pt x="85" y="122" on="1"/>
        <pt x="85" y="69" on="0"/>
        <pt x="132" y="2" on="0"/>
        <pt x="182" y="2" on="1"/>
        <pt x="257" y="2" on="0"/>
        <pt x="349" y="133" on="0"/>
        <pt x="349" y="209" on="1"/>
        <pt x="349" y="274" on="0"/>
        <pt x="260" y="515" on="0"/>
        <pt x="260" y="558" on="1"/>
        <pt x="260" y="651" on="0"/>
        <pt x="419" y="764" on="0"/>
        <pt x="514" y="764" on="1"/>
        <pt x="531" y="764" on="0"/>
        <pt x="564" y="760" on="0"/>
        <pt x="604" y="751" on="0"/>
        <pt x="628" y="731" on="0"/>
        <pt x="628" y="716" on="1"/>
        <pt x="628" y="696" on="0"/>
        <pt x="572" y="600" on="0"/>
        <pt x="553" y="575" on="1"/>
        <pt x="546" y="570" on="0"/>
        <pt x="541" y="570" on="1"/>
        <pt x="534" y="570" on="0"/>
        <pt x="534" y="582" on="1"/>
        <pt x="534" y="610" on="0"/>
        <pt x="540" y="658" on="1"/>
        <pt x="540" y="736" on="0"/>
        <pt x="480" y="736" on="1"/>
        <pt x="429" y="736" on="0"/>
        <pt x="358" y="666" on="0"/>
        <pt x="358" y="616" on="1"/>
        <pt x="358" y="550" on="0"/>
        <pt x="451" y="314" on="0"/>
        <pt x="451" y="250" on="1"/>
        <pt x="451" y="130" on="0"/>
        <pt x="262" y="-25" on="0"/>
        <pt x="144" y="-25" on="1"/>
        <pt x="124" y="-25" on="0"/>
        <pt x="68" y="-17" on="0"/>
        <pt x="6" y="0" on="0"/>
        <pt x="-37" y="33" on="0"/>
        <pt x="-37" y="54" on="1"/>
        <pt x="-37" y="62" on="0"/>
      </contour>
    </TTGlyph>
    <TTGlyph name="Scaron" xMin="-37" yMin="-25" xMax="675" yMax="922">
      <contour>
        <pt x="-34" y="69" on="1"/>
        <pt x="-18" y="109" on="0"/>
        <pt x="41" y="215" on="0"/>
        <pt x="63" y="248" on="1"/>
        <pt x="85" y="280" on="1"/>
        <pt x="99" y="300" on="0"/>
        <pt x="113" y="300" on="1"/>
        <pt x="124" y="300" on="0"/>
        <pt x="124" y="289" on="1"/>
        <pt x="121" y="279" on="1"/>
        <pt x="85" y="188" on="0"/>
        <pt x="85" y="122" on="1"/>
        <pt x="85" y="69" on="0"/>
        <pt x="132" y="2" on="0"/>
        <pt x="182" y="2" on="1"/>
        <pt x="257" y="2" on="0"/>
        <pt x="349" y="133" on="0"/>
        <pt x="349" y="209" on="1"/>
        <pt x="349" y="274" on="0"/>
        <pt x="260" y="515" on="0"/>
        <pt x="260" y="558" on="1"/>
        <pt x="260" y="651" on="0"/>
        <pt x="419" y="764" on="0"/>
        <pt x="514" y="764" on="1"/>
        <pt x="531" y="764" on="0"/>
        <pt x="564" y="760" on="0"/>
        <pt x="604" y="751" on="0"/>
        <pt x="628" y="731" on="0"/>
        <pt x="628" y="716" on="1"/>
        <pt x="628" y="696" on="0"/>
        <pt x="572" y="600" on="0"/>
        <pt x="553" y="575" on="1"/>
        <pt x="546" y="570" on="0"/>
        <pt x="541" y="570" on="1"/>
        <pt x="534" y="570" on="0"/>
        <pt x="534" y="582" on="1"/>
        <pt x="534" y="610" on="0"/>
        <pt x="540" y="658" on="1"/>
        <pt x="540" y="736" on="0"/>
        <pt x="480" y="736" on="1"/>
        <pt x="429" y="736" on="0"/>
        <pt x="358" y="666" on="0"/>
        <pt x="358" y="616" on="1"/>
        <pt x="358" y="550" on="0"/>
        <pt x="451" y="314" on="0"/>
        <pt x="451" y="250" on="1"/>
        <pt x="451" y="130" on="0"/>
        <pt x="262" y="-25" on="0"/>
        <pt x="144" y="-25" on="1"/>
        <pt x="124" y="-25" on="0"/>
        <pt x="68" y="-17" on="0"/>
        <pt x="6" y="0" on="0"/>
        <pt x="-37" y="33" on="0"/>
        <pt x="-37" y="54" on="1"/>
        <pt x="-37" y="62" on="0"/>
      </contour>
      <contour>
        <pt x="523" y="840" on="1"/>
        <pt x="524" y="836" on="0"/>
        <pt x="526" y="836" on="1"/>
        <pt x="532" y="840" on="1"/>
        <pt x="565" y="873" on="0"/>
        <pt x="651" y="916" on="0"/>
        <pt x="668" y="916" on="1"/>
        <pt x="675" y="916" on="0"/>
        <pt x="675" y="912" on="1"/>
        <pt x="671" y="903" on="1"/>
        <pt x="661" y="895" on="0"/>
        <pt x="621" y="852" on="0"/>
        <pt x="606" y="834" on="1"/>
        <pt x="591" y="816" on="1"/>
        <pt x="585" y="807" on="0"/>
        <pt x="572" y="807" on="1"/>
        <pt x="463" y="807" on="1"/>
        <pt x="455" y="807" on="0"/>
        <pt x="455" y="814" on="1"/>
        <pt x="455" y="815" on="0"/>
        <pt x="459" y="845" on="0"/>
        <pt x="463" y="892" on="0"/>
        <pt x="463" y="912" on="1"/>
        <pt x="463" y="922" on="0"/>
        <pt x="469" y="922" on="1"/>
        <pt x="484" y="922" on="0"/>
        <pt x="518" y="863" on="0"/>
      </contour>
    </TTGlyph>
    <TTGlyph name="T" xMin="0" yMin="-22" xMax="710" yMax="756">
      <contour>
        <pt x="429" y="327" on="1"/>
        <pt x="437" y="327" on="0"/>
        <pt x="452" y="296" on="0"/>
        <pt x="452" y="282" on="1"/>
        <pt x="452" y="270" on="0"/>
        <pt x="445" y="246" on="0"/>
        <pt x="442" y="240" on="1"/>
        <pt x="438" y="233" on="1"/>
        <pt x="389" y="138" on="0"/>
        <pt x="196" y="-22" on="0"/>
        <pt x="99" y="-22" on="1"/>
        <pt x="48" y="-22" on="0"/>
        <pt x="0" y="51" on="0"/>
        <pt x="0" y="108" on="1"/>
        <pt x="0" y="208" on="0"/>
        <pt x="115" y="417" on="0"/>
        <pt x="203" y="503" on="1"/>
        <pt x="165" y="507" on="0"/>
        <pt x="99" y="557" on="0"/>
        <pt x="99" y="593" on="1"/>
        <pt x="99" y="648" on="0"/>
        <pt x="279" y="756" on="0"/>
        <pt x="412" y="756" on="1"/>
        <pt x="454" y="756" on="0"/>
        <pt x="583" y="735" on="0"/>
        <pt x="618" y="735" on="1"/>
        <pt x="674" y="735" on="0"/>
        <pt x="698" y="753" on="1"/>
        <pt x="702" y="754" on="0"/>
        <pt x="705" y="754" on="1"/>
        <pt x="710" y="754" on="0"/>
        <pt x="710" y="746" on="0"/>
        <pt x="706" y="739" on="1"/>
        <pt x="686" y="707" on="0"/>
        <pt x="618" y="667" on="0"/>
        <pt x="577" y="667" on="1"/>
        <pt x="533" y="667" on="0"/>
        <pt x="362" y="713" on="0"/>
        <pt x="315" y="713" on="1"/>
        <pt x="262" y="713" on="0"/>
        <pt x="166" y="653" on="0"/>
        <pt x="166" y="601" on="1"/>
        <pt x="166" y="579" on="0"/>
        <pt x="190" y="537" on="0"/>
        <pt x="202" y="527" on="1"/>
        <pt x="214" y="517" on="1"/>
        <pt x="216" y="515" on="1"/>
        <pt x="333" y="626" on="0"/>
        <pt x="426" y="647" on="1"/>
        <pt x="431" y="648" on="0"/>
        <pt x="438" y="648" on="1"/>
        <pt x="448" y="648" on="0"/>
        <pt x="448" y="642" on="1"/>
        <pt x="448" y="634" on="0"/>
        <pt x="433" y="628" on="1"/>
        <pt x="405" y="617" on="0"/>
        <pt x="301" y="525" on="0"/>
        <pt x="185" y="390" on="0"/>
        <pt x="100" y="203" on="0"/>
        <pt x="100" y="116" on="1"/>
        <pt x="100" y="27" on="0"/>
        <pt x="161" y="27" on="1"/>
        <pt x="205" y="27" on="0"/>
        <pt x="290" y="84" on="0"/>
        <pt x="355" y="176" on="0"/>
        <pt x="403" y="270" on="0"/>
        <pt x="419" y="318" on="1"/>
        <pt x="422" y="327" on="0"/>
      </contour>
    </TTGlyph>
    <TTGlyph name="Thorn" xMin="-32" yMin="-57" xMax="507" yMax="685">
      <contour>
        <pt x="-21" y="-57" on="1"/>
        <pt x="-32" y="-57" on="0"/>
        <pt x="-32" y="-46" on="1"/>
        <pt x="-32" y="-40" on="0"/>
        <pt x="-30" y="-34" on="1"/>
        <pt x="-5" y="31" on="0"/>
        <pt x="212" y="424" on="0"/>
        <pt x="275" y="525" on="1"/>
        <pt x="196" y="525" on="0"/>
        <pt x="67" y="451" on="0"/>
        <pt x="67" y="382" on="1"/>
        <pt x="67" y="354" on="0"/>
        <pt x="82" y="328" on="1"/>
        <pt x="87" y="318" on="0"/>
        <pt x="87" y="314" on="1"/>
        <pt x="87" y="308" on="0"/>
        <pt x="79" y="308" on="1"/>
        <pt x="77" y="308" on="0"/>
        <pt x="71" y="310" on="1"/>
        <pt x="68" y="311" on="0"/>
        <pt x="58" y="317" on="0"/>
        <pt x="32" y="335" on="0"/>
        <pt x="12" y="355" on="0"/>
        <pt x="-4" y="388" on="0"/>
        <pt x="-4" y="405" on="1"/>
        <pt x="-4" y="467" on="0"/>
        <pt x="149" y="551" on="0"/>
        <pt x="246" y="551" on="1"/>
        <pt x="274" y="551" on="0"/>
        <pt x="289" y="549" on="1"/>
        <pt x="327" y="611" on="1"/>
        <pt x="329" y="614" on="0"/>
        <pt x="335" y="624" on="0"/>
        <pt x="356" y="650" on="0"/>
        <pt x="378" y="669" on="0"/>
        <pt x="408" y="685" on="0"/>
        <pt x="422" y="685" on="1"/>
        <pt x="435" y="685" on="0"/>
        <pt x="435" y="678" on="1"/>
        <pt x="435" y="669" on="0"/>
        <pt x="423" y="652" on="1"/>
        <pt x="362" y="537" on="1"/>
        <pt x="507" y="500" on="0"/>
        <pt x="507" y="389" on="1"/>
        <pt x="507" y="323" on="0"/>
        <pt x="439" y="217" on="0"/>
        <pt x="330" y="153" on="0"/>
        <pt x="205" y="119" on="0"/>
        <pt x="142" y="119" on="1"/>
        <pt x="95" y="33" on="0"/>
        <pt x="3" y="-57" on="0"/>
      </contour>
      <contour>
        <pt x="348" y="510" on="1"/>
        <pt x="160" y="154" on="1"/>
        <pt x="159" y="153" on="0"/>
        <pt x="157" y="147" on="0"/>
        <pt x="156" y="146" on="1"/>
        <pt x="276" y="148" on="0"/>
        <pt x="424" y="310" on="0"/>
        <pt x="424" y="402" on="1"/>
        <pt x="424" y="480" on="0"/>
      </contour>
    </TTGlyph>
    <TTGlyph name="U" xMin="0" yMin="-107" xMax="737" yMax="750">
      <contour>
        <pt x="351" y="-96" on="1"/>
        <pt x="351" y="-107" on="0"/>
        <pt x="342" y="-107" on="1"/>
        <pt x="338" y="-107" on="0"/>
        <pt x="330" y="-103" on="1"/>
        <pt x="291" y="-61" on="0"/>
        <pt x="291" y="12" on="1"/>
        <pt x="291" y="70" on="0"/>
        <pt x="340" y="214" on="0"/>
        <pt x="364" y="257" on="1"/>
        <pt x="388" y="300" on="1"/>
        <pt x="390" y="303" on="0"/>
        <pt x="390" y="307" on="1"/>
        <pt x="390" y="309" on="0"/>
        <pt x="388" y="309" on="1"/>
        <pt x="378" y="305" on="1"/>
        <pt x="290" y="191" on="0"/>
        <pt x="136" y="35" on="0"/>
        <pt x="53" y="-20" on="0"/>
        <pt x="33" y="-20" on="1"/>
        <pt x="0" y="-20" on="0"/>
        <pt x="0" y="33" on="1"/>
        <pt x="0" y="102" on="0"/>
        <pt x="88" y="319" on="0"/>
        <pt x="219" y="536" on="0"/>
        <pt x="295" y="652" on="0"/>
        <pt x="319" y="686" on="1"/>
        <pt x="342" y="717" on="0"/>
        <pt x="398" y="750" on="0"/>
        <pt x="418" y="750" on="1"/>
        <pt x="433" y="750" on="0"/>
        <pt x="433" y="741" on="1"/>
        <pt x="433" y="736" on="0"/>
        <pt x="427" y="726" on="1"/>
        <pt x="416" y="702" on="0"/>
        <pt x="369" y="630" on="1"/>
        <pt x="348" y="596" on="0"/>
        <pt x="285" y="487" on="0"/>
        <pt x="158" y="229" on="0"/>
        <pt x="136" y="149" on="1"/>
        <pt x="134" y="140" on="0"/>
        <pt x="134" y="131" on="1"/>
        <pt x="134" y="109" on="0"/>
        <pt x="148" y="109" on="1"/>
        <pt x="159" y="109" on="0"/>
        <pt x="183" y="127" on="1"/>
        <pt x="187" y="130" on="0"/>
        <pt x="202" y="143" on="0"/>
        <pt x="259" y="201" on="0"/>
        <pt x="325" y="277" on="0"/>
        <pt x="435" y="419" on="0"/>
        <pt x="495" y="504" on="1"/>
        <pt x="603" y="682" on="0"/>
        <pt x="650" y="725" on="1"/>
        <pt x="677" y="750" on="0"/>
        <pt x="720" y="750" on="1"/>
        <pt x="737" y="750" on="0"/>
        <pt x="737" y="741" on="1"/>
        <pt x="737" y="733" on="0"/>
        <pt x="731" y="723" on="1"/>
        <pt x="704" y="675" on="0"/>
        <pt x="678" y="639" on="1"/>
        <pt x="657" y="607" on="0"/>
        <pt x="591" y="500" on="0"/>
        <pt x="444" y="232" on="0"/>
        <pt x="404" y="134" on="1"/>
        <pt x="348" y="7" on="0"/>
        <pt x="348" y="-66" on="1"/>
        <pt x="348" y="-73" on="0"/>
        <pt x="351" y="-94" on="0"/>
      </contour>
    </TTGlyph>
    <TTGlyph name="Uacute" xMin="0" yMin="-107" xMax="737" yMax="885">
      <contour>
        <pt x="351" y="-96" on="1"/>
        <pt x="351" y="-107" on="0"/>
        <pt x="342" y="-107" on="1"/>
        <pt x="338" y="-107" on="0"/>
        <pt x="330" y="-103" on="1"/>
        <pt x="291" y="-61" on="0"/>
        <pt x="291" y="12" on="1"/>
        <pt x="291" y="70" on="0"/>
        <pt x="340" y="214" on="0"/>
        <pt x="364" y="257" on="1"/>
        <pt x="388" y="300" on="1"/>
        <pt x="390" y="303" on="0"/>
        <pt x="390" y="307" on="1"/>
        <pt x="390" y="309" on="0"/>
        <pt x="388" y="309" on="1"/>
        <pt x="378" y="305" on="1"/>
        <pt x="290" y="191" on="0"/>
        <pt x="136" y="35" on="0"/>
        <pt x="53" y="-20" on="0"/>
        <pt x="33" y="-20" on="1"/>
        <pt x="0" y="-20" on="0"/>
        <pt x="0" y="33" on="1"/>
        <pt x="0" y="102" on="0"/>
        <pt x="88" y="319" on="0"/>
        <pt x="219" y="536" on="0"/>
        <pt x="295" y="652" on="0"/>
        <pt x="319" y="686" on="1"/>
        <pt x="342" y="717" on="0"/>
        <pt x="398" y="750" on="0"/>
        <pt x="418" y="750" on="1"/>
        <pt x="433" y="750" on="0"/>
        <pt x="433" y="741" on="1"/>
        <pt x="433" y="736" on="0"/>
        <pt x="427" y="726" on="1"/>
        <pt x="416" y="702" on="0"/>
        <pt x="369" y="630" on="1"/>
        <pt x="348" y="596" on="0"/>
        <pt x="285" y="487" on="0"/>
        <pt x="158" y="229" on="0"/>
        <pt x="136" y="149" on="1"/>
        <pt x="134" y="140" on="0"/>
        <pt x="134" y="131" on="1"/>
        <pt x="134" y="109" on="0"/>
        <pt x="148" y="109" on="1"/>
        <pt x="159" y="109" on="0"/>
        <pt x="183" y="127" on="1"/>
        <pt x="187" y="130" on="0"/>
        <pt x="202" y="143" on="0"/>
        <pt x="259" y="201" on="0"/>
        <pt x="325" y="277" on="0"/>
        <pt x="435" y="419" on="0"/>
        <pt x="495" y="504" on="1"/>
        <pt x="603" y="682" on="0"/>
        <pt x="650" y="725" on="1"/>
        <pt x="677" y="750" on="0"/>
        <pt x="720" y="750" on="1"/>
        <pt x="737" y="750" on="0"/>
        <pt x="737" y="741" on="1"/>
        <pt x="737" y="733" on="0"/>
        <pt x="731" y="723" on="1"/>
        <pt x="704" y="675" on="0"/>
        <pt x="678" y="639" on="1"/>
        <pt x="657" y="607" on="0"/>
        <pt x="591" y="500" on="0"/>
        <pt x="444" y="232" on="0"/>
        <pt x="404" y="134" on="1"/>
        <pt x="348" y="7" on="0"/>
        <pt x="348" y="-66" on="1"/>
        <pt x="348" y="-73" on="0"/>
        <pt x="351" y="-94" on="0"/>
      </contour>
      <contour>
        <pt x="691" y="870" on="1"/>
        <pt x="664" y="839" on="0"/>
        <pt x="589" y="792" on="0"/>
        <pt x="566" y="784" on="1"/>
        <pt x="542" y="776" on="1"/>
        <pt x="531" y="776" on="0"/>
        <pt x="531" y="780" on="1"/>
        <pt x="531" y="783" on="0"/>
        <pt x="535" y="789" on="1"/>
        <pt x="545" y="797" on="0"/>
        <pt x="585" y="841" on="0"/>
        <pt x="600" y="858" on="1"/>
        <pt x="615" y="876" on="1"/>
        <pt x="621" y="885" on="0"/>
        <pt x="634" y="885" on="1"/>
        <pt x="683" y="885" on="1"/>
        <pt x="695" y="885" on="0"/>
        <pt x="695" y="878" on="1"/>
        <pt x="695" y="874" on="0"/>
      </contour>
    </TTGlyph>
    <TTGlyph name="Ucircumflex" xMin="0" yMin="-107" xMax="737" yMax="905">
      <contour>
        <pt x="351" y="-96" on="1"/>
        <pt x="351" y="-107" on="0"/>
        <pt x="342" y="-107" on="1"/>
        <pt x="338" y="-107" on="0"/>
        <pt x="330" y="-103" on="1"/>
        <pt x="291" y="-61" on="0"/>
        <pt x="291" y="12" on="1"/>
        <pt x="291" y="70" on="0"/>
        <pt x="340" y="214" on="0"/>
        <pt x="364" y="257" on="1"/>
        <pt x="388" y="300" on="1"/>
        <pt x="390" y="303" on="0"/>
        <pt x="390" y="307" on="1"/>
        <pt x="390" y="309" on="0"/>
        <pt x="388" y="309" on="1"/>
        <pt x="378" y="305" on="1"/>
        <pt x="290" y="191" on="0"/>
        <pt x="136" y="35" on="0"/>
        <pt x="53" y="-20" on="0"/>
        <pt x="33" y="-20" on="1"/>
        <pt x="0" y="-20" on="0"/>
        <pt x="0" y="33" on="1"/>
        <pt x="0" y="102" on="0"/>
        <pt x="88" y="319" on="0"/>
        <pt x="219" y="536" on="0"/>
        <pt x="295" y="652" on="0"/>
        <pt x="319" y="686" on="1"/>
        <pt x="342" y="717" on="0"/>
        <pt x="398" y="750" on="0"/>
        <pt x="418" y="750" on="1"/>
        <pt x="433" y="750" on="0"/>
        <pt x="433" y="741" on="1"/>
        <pt x="433" y="736" on="0"/>
        <pt x="427" y="726" on="1"/>
        <pt x="416" y="702" on="0"/>
        <pt x="369" y="630" on="1"/>
        <pt x="348" y="596" on="0"/>
        <pt x="285" y="487" on="0"/>
        <pt x="158" y="229" on="0"/>
        <pt x="136" y="149" on="1"/>
        <pt x="134" y="140" on="0"/>
        <pt x="134" y="131" on="1"/>
        <pt x="134" y="109" on="0"/>
        <pt x="148" y="109" on="1"/>
        <pt x="159" y="109" on="0"/>
        <pt x="183" y="127" on="1"/>
        <pt x="187" y="130" on="0"/>
        <pt x="202" y="143" on="0"/>
        <pt x="259" y="201" on="0"/>
        <pt x="325" y="277" on="0"/>
        <pt x="435" y="419" on="0"/>
        <pt x="495" y="504" on="1"/>
        <pt x="603" y="682" on="0"/>
        <pt x="650" y="725" on="1"/>
        <pt x="677" y="750" on="0"/>
        <pt x="720" y="750" on="1"/>
        <pt x="737" y="750" on="0"/>
        <pt x="737" y="741" on="1"/>
        <pt x="737" y="733" on="0"/>
        <pt x="731" y="723" on="1"/>
        <pt x="704" y="675" on="0"/>
        <pt x="678" y="639" on="1"/>
        <pt x="657" y="607" on="0"/>
        <pt x="591" y="500" on="0"/>
        <pt x="444" y="232" on="0"/>
        <pt x="404" y="134" on="1"/>
        <pt x="348" y="7" on="0"/>
        <pt x="348" y="-66" on="1"/>
        <pt x="348" y="-73" on="0"/>
        <pt x="351" y="-94" on="0"/>
      </contour>
      <contour>
        <pt x="615" y="872" on="1"/>
        <pt x="614" y="876" on="0"/>
        <pt x="612" y="876" on="1"/>
        <pt x="606" y="872" on="1"/>
        <pt x="573" y="839" on="0"/>
        <pt x="487" y="796" on="0"/>
        <pt x="470" y="796" on="1"/>
        <pt x="463" y="796" on="0"/>
        <pt x="463" y="800" on="1"/>
        <pt x="467" y="809" on="1"/>
        <pt x="477" y="817" on="0"/>
        <pt x="517" y="861" on="0"/>
        <pt x="532" y="878" on="1"/>
        <pt x="547" y="896" on="1"/>
        <pt x="553" y="905" on="0"/>
        <pt x="566" y="905" on="1"/>
        <pt x="675" y="905" on="1"/>
        <pt x="683" y="905" on="0"/>
        <pt x="683" y="898" on="1"/>
        <pt x="683" y="897" on="0"/>
        <pt x="679" y="867" on="0"/>
        <pt x="675" y="820" on="0"/>
        <pt x="675" y="800" on="1"/>
        <pt x="675" y="790" on="0"/>
        <pt x="669" y="790" on="1"/>
        <pt x="654" y="790" on="0"/>
        <pt x="620" y="849" on="0"/>
      </contour>
    </TTGlyph>
    <TTGlyph name="Udieresis" xMin="0" yMin="-107" xMax="737" yMax="877">
      <contour>
        <pt x="351" y="-96" on="1"/>
        <pt x="351" y="-107" on="0"/>
        <pt x="342" y="-107" on="1"/>
        <pt x="338" y="-107" on="0"/>
        <pt x="330" y="-103" on="1"/>
        <pt x="291" y="-61" on="0"/>
        <pt x="291" y="12" on="1"/>
        <pt x="291" y="70" on="0"/>
        <pt x="340" y="214" on="0"/>
        <pt x="364" y="257" on="1"/>
        <pt x="388" y="300" on="1"/>
        <pt x="390" y="303" on="0"/>
        <pt x="390" y="307" on="1"/>
        <pt x="390" y="309" on="0"/>
        <pt x="388" y="309" on="1"/>
        <pt x="378" y="305" on="1"/>
        <pt x="290" y="191" on="0"/>
        <pt x="136" y="35" on="0"/>
        <pt x="53" y="-20" on="0"/>
        <pt x="33" y="-20" on="1"/>
        <pt x="0" y="-20" on="0"/>
        <pt x="0" y="33" on="1"/>
        <pt x="0" y="102" on="0"/>
        <pt x="88" y="319" on="0"/>
        <pt x="219" y="536" on="0"/>
        <pt x="295" y="652" on="0"/>
        <pt x="319" y="686" on="1"/>
        <pt x="342" y="717" on="0"/>
        <pt x="398" y="750" on="0"/>
        <pt x="418" y="750" on="1"/>
        <pt x="433" y="750" on="0"/>
        <pt x="433" y="741" on="1"/>
        <pt x="433" y="736" on="0"/>
        <pt x="427" y="726" on="1"/>
        <pt x="416" y="702" on="0"/>
        <pt x="369" y="630" on="1"/>
        <pt x="348" y="596" on="0"/>
        <pt x="285" y="487" on="0"/>
        <pt x="158" y="229" on="0"/>
        <pt x="136" y="149" on="1"/>
        <pt x="134" y="140" on="0"/>
        <pt x="134" y="131" on="1"/>
        <pt x="134" y="109" on="0"/>
        <pt x="148" y="109" on="1"/>
        <pt x="159" y="109" on="0"/>
        <pt x="183" y="127" on="1"/>
        <pt x="187" y="130" on="0"/>
        <pt x="202" y="143" on="0"/>
        <pt x="259" y="201" on="0"/>
        <pt x="325" y="277" on="0"/>
        <pt x="435" y="419" on="0"/>
        <pt x="495" y="504" on="1"/>
        <pt x="603" y="682" on="0"/>
        <pt x="650" y="725" on="1"/>
        <pt x="677" y="750" on="0"/>
        <pt x="720" y="750" on="1"/>
        <pt x="737" y="750" on="0"/>
        <pt x="737" y="741" on="1"/>
        <pt x="737" y="733" on="0"/>
        <pt x="731" y="723" on="1"/>
        <pt x="704" y="675" on="0"/>
        <pt x="678" y="639" on="1"/>
        <pt x="657" y="607" on="0"/>
        <pt x="591" y="500" on="0"/>
        <pt x="444" y="232" on="0"/>
        <pt x="404" y="134" on="1"/>
        <pt x="348" y="7" on="0"/>
        <pt x="348" y="-66" on="1"/>
        <pt x="348" y="-73" on="0"/>
        <pt x="351" y="-94" on="0"/>
      </contour>
      <contour>
        <pt x="500" y="779" on="1"/>
        <pt x="475" y="779" on="0"/>
        <pt x="475" y="807" on="1"/>
        <pt x="475" y="832" on="0"/>
        <pt x="515" y="877" on="0"/>
        <pt x="536" y="877" on="1"/>
        <pt x="561" y="877" on="0"/>
        <pt x="561" y="850" on="1"/>
        <pt x="561" y="825" on="0"/>
        <pt x="523" y="779" on="0"/>
      </contour>
      <contour>
        <pt x="661" y="779" on="1"/>
        <pt x="636" y="779" on="0"/>
        <pt x="636" y="807" on="1"/>
        <pt x="636" y="833" on="0"/>
        <pt x="676" y="877" on="0"/>
        <pt x="698" y="877" on="1"/>
        <pt x="722" y="877" on="0"/>
        <pt x="722" y="849" on="1"/>
        <pt x="722" y="824" on="0"/>
        <pt x="684" y="779" on="0"/>
      </contour>
    </TTGlyph>
    <TTGlyph name="Ugrave" xMin="0" yMin="-107" xMax="737" yMax="890">
      <contour>
        <pt x="351" y="-96" on="1"/>
        <pt x="351" y="-107" on="0"/>
        <pt x="342" y="-107" on="1"/>
        <pt x="338" y="-107" on="0"/>
        <pt x="330" y="-103" on="1"/>
        <pt x="291" y="-61" on="0"/>
        <pt x="291" y="12" on="1"/>
        <pt x="291" y="70" on="0"/>
        <pt x="340" y="214" on="0"/>
        <pt x="364" y="257" on="1"/>
        <pt x="388" y="300" on="1"/>
        <pt x="390" y="303" on="0"/>
        <pt x="390" y="307" on="1"/>
        <pt x="390" y="309" on="0"/>
        <pt x="388" y="309" on="1"/>
        <pt x="378" y="305" on="1"/>
        <pt x="290" y="191" on="0"/>
        <pt x="136" y="35" on="0"/>
        <pt x="53" y="-20" on="0"/>
        <pt x="33" y="-20" on="1"/>
        <pt x="0" y="-20" on="0"/>
        <pt x="0" y="33" on="1"/>
        <pt x="0" y="102" on="0"/>
        <pt x="88" y="319" on="0"/>
        <pt x="219" y="536" on="0"/>
        <pt x="295" y="652" on="0"/>
        <pt x="319" y="686" on="1"/>
        <pt x="342" y="717" on="0"/>
        <pt x="398" y="750" on="0"/>
        <pt x="418" y="750" on="1"/>
        <pt x="433" y="750" on="0"/>
        <pt x="433" y="741" on="1"/>
        <pt x="433" y="736" on="0"/>
        <pt x="427" y="726" on="1"/>
        <pt x="416" y="702" on="0"/>
        <pt x="369" y="630" on="1"/>
        <pt x="348" y="596" on="0"/>
        <pt x="285" y="487" on="0"/>
        <pt x="158" y="229" on="0"/>
        <pt x="136" y="149" on="1"/>
        <pt x="134" y="140" on="0"/>
        <pt x="134" y="131" on="1"/>
        <pt x="134" y="109" on="0"/>
        <pt x="148" y="109" on="1"/>
        <pt x="159" y="109" on="0"/>
        <pt x="183" y="127" on="1"/>
        <pt x="187" y="130" on="0"/>
        <pt x="202" y="143" on="0"/>
        <pt x="259" y="201" on="0"/>
        <pt x="325" y="277" on="0"/>
        <pt x="435" y="419" on="0"/>
        <pt x="495" y="504" on="1"/>
        <pt x="603" y="682" on="0"/>
        <pt x="650" y="725" on="1"/>
        <pt x="677" y="750" on="0"/>
        <pt x="720" y="750" on="1"/>
        <pt x="737" y="750" on="0"/>
        <pt x="737" y="741" on="1"/>
        <pt x="737" y="733" on="0"/>
        <pt x="731" y="723" on="1"/>
        <pt x="704" y="675" on="0"/>
        <pt x="678" y="639" on="1"/>
        <pt x="657" y="607" on="0"/>
        <pt x="591" y="500" on="0"/>
        <pt x="444" y="232" on="0"/>
        <pt x="404" y="134" on="1"/>
        <pt x="348" y="7" on="0"/>
        <pt x="348" y="-66" on="1"/>
        <pt x="348" y="-73" on="0"/>
        <pt x="351" y="-94" on="0"/>
      </contour>
      <contour>
        <pt x="591" y="781" on="1"/>
        <pt x="591" y="775" on="0"/>
        <pt x="586" y="775" on="1"/>
        <pt x="582" y="775" on="0"/>
        <pt x="573" y="781" on="1"/>
        <pt x="555" y="793" on="0"/>
        <pt x="525" y="843" on="0"/>
        <pt x="519" y="862" on="1"/>
        <pt x="513" y="880" on="1"/>
        <pt x="513" y="890" on="0"/>
        <pt x="521" y="890" on="1"/>
        <pt x="575" y="890" on="1"/>
        <pt x="586" y="890" on="0"/>
        <pt x="586" y="879" on="1"/>
        <pt x="586" y="857" on="1"/>
        <pt x="586" y="815" on="0"/>
      </contour>
    </TTGlyph>
    <TTGlyph name="V" xMin="1" yMin="-38" xMax="677" yMax="771">
      <contour>
        <pt x="677" y="749" on="1"/>
        <pt x="677" y="726" on="0"/>
        <pt x="627" y="640" on="0"/>
        <pt x="525" y="512" on="0"/>
        <pt x="437" y="407" on="0"/>
        <pt x="296" y="243" on="0"/>
        <pt x="263" y="204" on="1"/>
        <pt x="198" y="127" on="0"/>
        <pt x="82" y="10" on="0"/>
        <pt x="56" y="-10" on="1"/>
        <pt x="31" y="-30" on="1"/>
        <pt x="22" y="-38" on="0"/>
        <pt x="13" y="-38" on="1"/>
        <pt x="1" y="-38" on="0"/>
        <pt x="1" y="-19" on="1"/>
        <pt x="1" y="55" on="0"/>
        <pt x="49" y="242" on="1"/>
        <pt x="79" y="359" on="0"/>
        <pt x="163" y="590" on="0"/>
        <pt x="190" y="646" on="1"/>
        <pt x="217" y="703" on="1"/>
        <pt x="232" y="733" on="0"/>
        <pt x="283" y="769" on="0"/>
        <pt x="301" y="769" on="1"/>
        <pt x="315" y="769" on="0"/>
        <pt x="315" y="759" on="1"/>
        <pt x="315" y="757" on="0"/>
        <pt x="313" y="751" on="1"/>
        <pt x="297" y="711" on="0"/>
        <pt x="246" y="577" on="0"/>
        <pt x="144" y="248" on="0"/>
        <pt x="126" y="134" on="1"/>
        <pt x="127" y="118" on="0"/>
        <pt x="136" y="118" on="1"/>
        <pt x="141" y="118" on="0"/>
        <pt x="150" y="127" on="1"/>
        <pt x="233" y="206" on="0"/>
        <pt x="343" y="349" on="1"/>
        <pt x="531" y="595" on="0"/>
        <pt x="551" y="715" on="1"/>
        <pt x="551" y="743" on="0"/>
        <pt x="618" y="771" on="0"/>
        <pt x="648" y="771" on="1"/>
        <pt x="677" y="771" on="0"/>
      </contour>
    </TTGlyph>
    <TTGlyph name="W" xMin="1" yMin="-36" xMax="957" yMax="770">
      <contour>
        <pt x="379" y="349" on="1"/>
        <pt x="380" y="351" on="0"/>
        <pt x="380" y="355" on="1"/>
        <pt x="380" y="358" on="0"/>
        <pt x="377" y="358" on="1"/>
        <pt x="368" y="354" on="1"/>
        <pt x="274" y="237" on="0"/>
        <pt x="266" y="227" on="1"/>
        <pt x="202" y="150" on="0"/>
        <pt x="84" y="23" on="0"/>
        <pt x="57" y="-2" on="1"/>
        <pt x="30" y="-28" on="1"/>
        <pt x="18" y="-36" on="0"/>
        <pt x="11" y="-36" on="1"/>
        <pt x="1" y="-36" on="0"/>
        <pt x="1" y="-17" on="1"/>
        <pt x="8" y="68" on="0"/>
        <pt x="52" y="237" on="1"/>
        <pt x="84" y="356" on="0"/>
        <pt x="170" y="589" on="0"/>
        <pt x="198" y="646" on="1"/>
        <pt x="225" y="704" on="1"/>
        <pt x="240" y="733" on="0"/>
        <pt x="283" y="766" on="0"/>
        <pt x="296" y="768" on="1"/>
        <pt x="310" y="770" on="1"/>
        <pt x="321" y="770" on="0"/>
        <pt x="321" y="761" on="1"/>
        <pt x="321" y="756" on="0"/>
        <pt x="317" y="746" on="1"/>
        <pt x="272" y="648" on="0"/>
        <pt x="124" y="191" on="0"/>
        <pt x="124" y="134" on="1"/>
        <pt x="124" y="120" on="0"/>
        <pt x="131" y="120" on="1"/>
        <pt x="136" y="120" on="0"/>
        <pt x="145" y="129" on="1"/>
        <pt x="263" y="260" on="0"/>
        <pt x="377" y="413" on="1"/>
        <pt x="392" y="433" on="0"/>
        <pt x="422" y="487" on="0"/>
        <pt x="430" y="504" on="1"/>
        <pt x="438" y="521" on="1"/>
        <pt x="457" y="571" on="0"/>
        <pt x="497" y="663" on="0"/>
        <pt x="507" y="684" on="1"/>
        <pt x="517" y="704" on="1"/>
        <pt x="532" y="733" on="0"/>
        <pt x="574" y="766" on="0"/>
        <pt x="588" y="768" on="1"/>
        <pt x="602" y="770" on="1"/>
        <pt x="612" y="770" on="0"/>
        <pt x="612" y="761" on="1"/>
        <pt x="610" y="752" on="1"/>
        <pt x="593" y="712" on="0"/>
        <pt x="541" y="578" on="0"/>
        <pt x="436" y="250" on="0"/>
        <pt x="416" y="136" on="1"/>
        <pt x="417" y="121" on="0"/>
        <pt x="425" y="121" on="1"/>
        <pt x="431" y="121" on="0"/>
        <pt x="439" y="130" on="1"/>
        <pt x="504" y="195" on="0"/>
        <pt x="626" y="351" on="1"/>
        <pt x="703" y="451" on="0"/>
        <pt x="835" y="677" on="0"/>
        <pt x="835" y="717" on="1"/>
        <pt x="835" y="740" on="0"/>
        <pt x="866" y="755" on="1"/>
        <pt x="896" y="770" on="0"/>
        <pt x="932" y="770" on="1"/>
        <pt x="957" y="770" on="0"/>
        <pt x="957" y="752" on="1"/>
        <pt x="957" y="729" on="0"/>
        <pt x="908" y="644" on="0"/>
        <pt x="806" y="514" on="0"/>
        <pt x="721" y="412" on="0"/>
        <pt x="577" y="243" on="0"/>
        <pt x="547" y="207" on="1"/>
        <pt x="483" y="130" on="0"/>
        <pt x="370" y="13" on="0"/>
        <pt x="346" y="-8" on="1"/>
        <pt x="321" y="-28" on="1"/>
        <pt x="310" y="-36" on="0"/>
        <pt x="303" y="-36" on="1"/>
        <pt x="292" y="-36" on="0"/>
        <pt x="292" y="-17" on="1"/>
        <pt x="303" y="109" on="0"/>
      </contour>
    </TTGlyph>
    <TTGlyph name="X" xMin="-69" yMin="-48" xMax="805" yMax="779">
      <contour>
        <pt x="85" y="218" on="1"/>
        <pt x="165" y="285" on="0"/>
        <pt x="298" y="411" on="1"/>
        <pt x="314" y="627" on="0"/>
        <pt x="333" y="704" on="1"/>
        <pt x="342" y="734" on="0"/>
        <pt x="383" y="779" on="0"/>
        <pt x="397" y="779" on="1"/>
        <pt x="408" y="779" on="0"/>
        <pt x="408" y="763" on="1"/>
        <pt x="408" y="757" on="0"/>
        <pt x="407" y="748" on="1"/>
        <pt x="394" y="629" on="0"/>
        <pt x="386" y="495" on="1"/>
        <pt x="490" y="596" on="0"/>
        <pt x="639" y="726" on="0"/>
        <pt x="662" y="740" on="1"/>
        <pt x="684" y="755" on="1"/>
        <pt x="733" y="779" on="0"/>
        <pt x="775" y="779" on="1"/>
        <pt x="805" y="779" on="0"/>
        <pt x="805" y="769" on="1"/>
        <pt x="805" y="762" on="0"/>
        <pt x="774" y="738" on="0"/>
        <pt x="739" y="718" on="0"/>
        <pt x="698" y="696" on="0"/>
        <pt x="696" y="695" on="1"/>
        <pt x="539" y="602" on="0"/>
        <pt x="384" y="454" on="1"/>
        <pt x="380" y="346" on="0"/>
        <pt x="380" y="292" on="1"/>
        <pt x="380" y="57" on="0"/>
        <pt x="427" y="36" on="1"/>
        <pt x="435" y="33" on="0"/>
        <pt x="435" y="24" on="1"/>
        <pt x="435" y="5" on="0"/>
        <pt x="361" y="-31" on="0"/>
        <pt x="342" y="-31" on="1"/>
        <pt x="319" y="-31" on="0"/>
        <pt x="315" y="-14" on="1"/>
        <pt x="292" y="75" on="0"/>
        <pt x="292" y="231" on="1"/>
        <pt x="292" y="298" on="0"/>
        <pt x="295" y="364" on="1"/>
        <pt x="245" y="311" on="0"/>
        <pt x="156" y="203" on="0"/>
        <pt x="136" y="176" on="1"/>
        <pt x="117" y="148" on="1"/>
        <pt x="-31" y="-48" on="0"/>
        <pt x="-61" y="-48" on="1"/>
        <pt x="-69" y="-48" on="0"/>
        <pt x="-69" y="-34" on="1"/>
        <pt x="-69" y="4" on="0"/>
        <pt x="-25" y="95" on="0"/>
        <pt x="34" y="167" on="0"/>
        <pt x="78" y="213" on="0"/>
      </contour>
    </TTGlyph>
    <TTGlyph name="Y" xMin="-45" yMin="-32" xMax="709" yMax="792">
      <contour>
        <pt x="123" y="102" on="0"/>
        <pt x="53" y="-32" on="0"/>
        <pt x="-28" y="-32" on="1"/>
        <pt x="-45" y="-32" on="0"/>
        <pt x="-45" y="-22" on="1"/>
        <pt x="-41" y="-11" on="1"/>
        <pt x="-5" y="44" on="0"/>
        <pt x="74" y="182" on="0"/>
        <pt x="96" y="224" on="1"/>
        <pt x="117" y="266" on="1"/>
        <pt x="149" y="328" on="0"/>
        <pt x="193" y="613" on="0"/>
        <pt x="193" y="703" on="1"/>
        <pt x="190" y="736" on="1"/>
        <pt x="188" y="740" on="0"/>
        <pt x="188" y="745" on="1"/>
        <pt x="188" y="756" on="0"/>
        <pt x="198" y="763" on="1"/>
        <pt x="225" y="781" on="0"/>
        <pt x="267" y="781" on="1"/>
        <pt x="283" y="781" on="0"/>
        <pt x="283" y="754" on="1"/>
        <pt x="276" y="589" on="0"/>
        <pt x="233" y="366" on="1"/>
        <pt x="234" y="358" on="0"/>
        <pt x="239" y="358" on="1"/>
        <pt x="242" y="358" on="0"/>
        <pt x="246" y="362" on="1"/>
        <pt x="429" y="614" on="0"/>
        <pt x="529" y="712" on="1"/>
        <pt x="612" y="792" on="0"/>
        <pt x="696" y="792" on="1"/>
        <pt x="709" y="791" on="0"/>
        <pt x="709" y="784" on="1"/>
        <pt x="709" y="781" on="0"/>
        <pt x="693" y="764" on="0"/>
        <pt x="660" y="737" on="0"/>
        <pt x="630" y="713" on="0"/>
        <pt x="583" y="676" on="0"/>
        <pt x="570" y="666" on="1"/>
        <pt x="561" y="659" on="0"/>
        <pt x="532" y="635" on="0"/>
        <pt x="444" y="552" on="0"/>
        <pt x="361" y="464" on="0"/>
        <pt x="255" y="329" on="0"/>
        <pt x="214" y="262" on="1"/>
      </contour>
    </TTGlyph>
    <TTGlyph name="Yacute" xMin="-45" yMin="-32" xMax="709" yMax="936">
      <contour>
        <pt x="123" y="102" on="0"/>
        <pt x="53" y="-32" on="0"/>
        <pt x="-28" y="-32" on="1"/>
        <pt x="-45" y="-32" on="0"/>
        <pt x="-45" y="-22" on="1"/>
        <pt x="-41" y="-11" on="1"/>
        <pt x="-5" y="44" on="0"/>
        <pt x="74" y="182" on="0"/>
        <pt x="96" y="224" on="1"/>
        <pt x="117" y="266" on="1"/>
        <pt x="149" y="328" on="0"/>
        <pt x="193" y="613" on="0"/>
        <pt x="193" y="703" on="1"/>
        <pt x="190" y="736" on="1"/>
        <pt x="188" y="740" on="0"/>
        <pt x="188" y="745" on="1"/>
        <pt x="188" y="756" on="0"/>
        <pt x="198" y="763" on="1"/>
        <pt x="225" y="781" on="0"/>
        <pt x="267" y="781" on="1"/>
        <pt x="283" y="781" on="0"/>
        <pt x="283" y="754" on="1"/>
        <pt x="276" y="589" on="0"/>
        <pt x="233" y="366" on="1"/>
        <pt x="234" y="358" on="0"/>
        <pt x="239" y="358" on="1"/>
        <pt x="242" y="358" on="0"/>
        <pt x="246" y="362" on="1"/>
        <pt x="429" y="614" on="0"/>
        <pt x="529" y="712" on="1"/>
        <pt x="612" y="792" on="0"/>
        <pt x="696" y="792" on="1"/>
        <pt x="709" y="791" on="0"/>
        <pt x="709" y="784" on="1"/>
        <pt x="709" y="781" on="0"/>
        <pt x="693" y="764" on="0"/>
        <pt x="660" y="737" on="0"/>
        <pt x="630" y="713" on="0"/>
        <pt x="583" y="676" on="0"/>
        <pt x="570" y="666" on="1"/>
        <pt x="561" y="659" on="0"/>
        <pt x="532" y="635" on="0"/>
        <pt x="444" y="552" on="0"/>
        <pt x="361" y="464" on="0"/>
        <pt x="255" y="329" on="0"/>
        <pt x="214" y="262" on="1"/>
      </contour>
      <contour>
        <pt x="601" y="921" on="1"/>
        <pt x="574" y="890" on="0"/>
        <pt x="499" y="843" on="0"/>
        <pt x="476" y="835" on="1"/>
        <pt x="452" y="827" on="1"/>
        <pt x="441" y="827" on="0"/>
        <pt x="441" y="831" on="1"/>
        <pt x="441" y="834" on="0"/>
        <pt x="445" y="840" on="1"/>
        <pt x="455" y="848" on="0"/>
        <pt x="495" y="892" on="0"/>
        <pt x="510" y="910" on="1"/>
        <pt x="525" y="927" on="1"/>
        <pt x="531" y="936" on="0"/>
        <pt x="544" y="936" on="1"/>
        <pt x="593" y="936" on="1"/>
        <pt x="605" y="936" on="0"/>
        <pt x="605" y="929" on="1"/>
        <pt x="605" y="925" on="0"/>
      </contour>
    </TTGlyph>
    <TTGlyph name="Ydieresis" xMin="-45" yMin="-32" xMax="709" yMax="906">
      <contour>
        <pt x="123" y="102" on="0"/>
        <pt x="53" y="-32" on="0"/>
        <pt x="-28" y="-32" on="1"/>
        <pt x="-45" y="-32" on="0"/>
        <pt x="-45" y="-22" on="1"/>
        <pt x="-41" y="-11" on="1"/>
        <pt x="-5" y="44" on="0"/>
        <pt x="74" y="182" on="0"/>
        <pt x="96" y="224" on="1"/>
        <pt x="117" y="266" on="1"/>
        <pt x="149" y="328" on="0"/>
        <pt x="193" y="613" on="0"/>
        <pt x="193" y="703" on="1"/>
        <pt x="190" y="736" on="1"/>
        <pt x="188" y="740" on="0"/>
        <pt x="188" y="745" on="1"/>
        <pt x="188" y="756" on="0"/>
        <pt x="198" y="763" on="1"/>
        <pt x="225" y="781" on="0"/>
        <pt x="267" y="781" on="1"/>
        <pt x="283" y="781" on="0"/>
        <pt x="283" y="754" on="1"/>
        <pt x="276" y="589" on="0"/>
        <pt x="233" y="366" on="1"/>
        <pt x="234" y="358" on="0"/>
        <pt x="239" y="358" on="1"/>
        <pt x="242" y="358" on="0"/>
        <pt x="246" y="362" on="1"/>
        <pt x="429" y="614" on="0"/>
        <pt x="529" y="712" on="1"/>
        <pt x="612" y="792" on="0"/>
        <pt x="696" y="792" on="1"/>
        <pt x="709" y="791" on="0"/>
        <pt x="709" y="784" on="1"/>
        <pt x="709" y="781" on="0"/>
        <pt x="693" y="764" on="0"/>
        <pt x="660" y="737" on="0"/>
        <pt x="630" y="713" on="0"/>
        <pt x="583" y="676" on="0"/>
        <pt x="570" y="666" on="1"/>
        <pt x="561" y="659" on="0"/>
        <pt x="532" y="635" on="0"/>
        <pt x="444" y="552" on="0"/>
        <pt x="361" y="464" on="0"/>
        <pt x="255" y="329" on="0"/>
        <pt x="214" y="262" on="1"/>
      </contour>
      <contour>
        <pt x="371" y="808" on="1"/>
        <pt x="346" y="808" on="0"/>
        <pt x="346" y="836" on="1"/>
        <pt x="346" y="861" on="0"/>
        <pt x="386" y="906" on="0"/>
        <pt x="407" y="906" on="1"/>
        <pt x="432" y="906" on="0"/>
        <pt x="432" y="879" on="1"/>
        <pt x="432" y="854" on="0"/>
        <pt x="394" y="808" on="0"/>
      </contour>
      <contour>
        <pt x="532" y="808" on="1"/>
        <pt x="507" y="808" on="0"/>
        <pt x="507" y="836" on="1"/>
        <pt x="507" y="862" on="0"/>
        <pt x="547" y="906" on="0"/>
        <pt x="569" y="906" on="1"/>
        <pt x="593" y="906" on="0"/>
        <pt x="593" y="878" on="1"/>
        <pt x="593" y="853" on="0"/>
        <pt x="555" y="808" on="0"/>
      </contour>
    </TTGlyph>
    <TTGlyph name="Z" xMin="-64" yMin="-12" xMax="704" yMax="792">
      <contour>
        <pt x="676" y="731" on="1"/>
        <pt x="616" y="656" on="0"/>
        <pt x="444" y="475" on="0"/>
        <pt x="309" y="342" on="0"/>
        <pt x="149" y="151" on="0"/>
        <pt x="89" y="54" on="1"/>
        <pt x="82" y="43" on="0"/>
        <pt x="82" y="36" on="1"/>
        <pt x="82" y="18" on="0"/>
        <pt x="138" y="18" on="1"/>
        <pt x="172" y="18" on="0"/>
        <pt x="239" y="37" on="0"/>
        <pt x="285" y="64" on="0"/>
        <pt x="321" y="91" on="0"/>
        <pt x="330" y="100" on="1"/>
        <pt x="338" y="110" on="1"/>
        <pt x="356" y="130" on="0"/>
        <pt x="408" y="179" on="0"/>
        <pt x="424" y="193" on="1"/>
        <pt x="441" y="207" on="1"/>
        <pt x="456" y="216" on="0"/>
        <pt x="461" y="216" on="1"/>
        <pt x="469" y="216" on="0"/>
        <pt x="469" y="206" on="1"/>
        <pt x="469" y="194" on="0"/>
        <pt x="437" y="131" on="0"/>
        <pt x="401" y="74" on="0"/>
        <pt x="362" y="14" on="0"/>
        <pt x="361" y="13" on="1"/>
        <pt x="349" y="-6" on="0"/>
        <pt x="325" y="-6" on="1"/>
        <pt x="263" y="-12" on="0"/>
        <pt x="147" y="-12" on="1"/>
        <pt x="-45" y="-9" on="1"/>
        <pt x="-64" y="-7" on="0"/>
        <pt x="-64" y="6" on="1"/>
        <pt x="-62" y="14" on="1"/>
        <pt x="13" y="128" on="0"/>
        <pt x="209" y="354" on="0"/>
        <pt x="363" y="501" on="0"/>
        <pt x="535" y="666" on="0"/>
        <pt x="576" y="712" on="1"/>
        <pt x="581" y="717" on="0"/>
        <pt x="581" y="722" on="1"/>
        <pt x="581" y="731" on="0"/>
        <pt x="538" y="731" on="1"/>
        <pt x="498" y="731" on="0"/>
        <pt x="419" y="707" on="0"/>
        <pt x="364" y="672" on="0"/>
        <pt x="320" y="637" on="0"/>
        <pt x="310" y="625" on="1"/>
        <pt x="299" y="613" on="1"/>
        <pt x="288" y="606" on="0"/>
        <pt x="282" y="606" on="1"/>
        <pt x="274" y="606" on="0"/>
        <pt x="274" y="615" on="1"/>
        <pt x="274" y="633" on="0"/>
        <pt x="358" y="755" on="0"/>
        <pt x="379" y="758" on="1"/>
        <pt x="414" y="763" on="0"/>
        <pt x="534" y="763" on="1"/>
        <pt x="550" y="763" on="0"/>
        <pt x="617" y="761" on="0"/>
        <pt x="625" y="761" on="1"/>
        <pt x="637" y="761" on="0"/>
        <pt x="646" y="766" on="1"/>
        <pt x="650" y="768" on="1"/>
        <pt x="686" y="791" on="0"/>
        <pt x="698" y="792" on="1"/>
        <pt x="704" y="792" on="0"/>
        <pt x="704" y="786" on="1"/>
        <pt x="704" y="765" on="0"/>
      </contour>
    </TTGlyph>
    <TTGlyph name="Zcaron" xMin="-64" yMin="-12" xMax="737" yMax="947">
      <contour>
        <pt x="676" y="731" on="1"/>
        <pt x="616" y="656" on="0"/>
        <pt x="444" y="475" on="0"/>
        <pt x="309" y="342" on="0"/>
        <pt x="149" y="151" on="0"/>
        <pt x="89" y="54" on="1"/>
        <pt x="82" y="43" on="0"/>
        <pt x="82" y="36" on="1"/>
        <pt x="82" y="18" on="0"/>
        <pt x="138" y="18" on="1"/>
        <pt x="172" y="18" on="0"/>
        <pt x="239" y="37" on="0"/>
        <pt x="285" y="64" on="0"/>
        <pt x="321" y="91" on="0"/>
        <pt x="330" y="100" on="1"/>
        <pt x="338" y="110" on="1"/>
        <pt x="356" y="130" on="0"/>
        <pt x="408" y="179" on="0"/>
        <pt x="424" y="193" on="1"/>
        <pt x="441" y="207" on="1"/>
        <pt x="456" y="216" on="0"/>
        <pt x="461" y="216" on="1"/>
        <pt x="469" y="216" on="0"/>
        <pt x="469" y="206" on="1"/>
        <pt x="469" y="194" on="0"/>
        <pt x="437" y="131" on="0"/>
        <pt x="401" y="74" on="0"/>
        <pt x="362" y="14" on="0"/>
        <pt x="361" y="13" on="1"/>
        <pt x="349" y="-6" on="0"/>
        <pt x="325" y="-6" on="1"/>
        <pt x="263" y="-12" on="0"/>
        <pt x="147" y="-12" on="1"/>
        <pt x="-45" y="-9" on="1"/>
        <pt x="-64" y="-7" on="0"/>
        <pt x="-64" y="6" on="1"/>
        <pt x="-62" y="14" on="1"/>
        <pt x="13" y="128" on="0"/>
        <pt x="209" y="354" on="0"/>
        <pt x="363" y="501" on="0"/>
        <pt x="535" y="666" on="0"/>
        <pt x="576" y="712" on="1"/>
        <pt x="581" y="717" on="0"/>
        <pt x="581" y="722" on="1"/>
        <pt x="581" y="731" on="0"/>
        <pt x="538" y="731" on="1"/>
        <pt x="498" y="731" on="0"/>
        <pt x="419" y="707" on="0"/>
        <pt x="364" y="672" on="0"/>
        <pt x="320" y="637" on="0"/>
        <pt x="310" y="625" on="1"/>
        <pt x="299" y="613" on="1"/>
        <pt x="288" y="606" on="0"/>
        <pt x="282" y="606" on="1"/>
        <pt x="274" y="606" on="0"/>
        <pt x="274" y="615" on="1"/>
        <pt x="274" y="633" on="0"/>
        <pt x="358" y="755" on="0"/>
        <pt x="379" y="758" on="1"/>
        <pt x="414" y="763" on="0"/>
        <pt x="534" y="763" on="1"/>
        <pt x="550" y="763" on="0"/>
        <pt x="617" y="761" on="0"/>
        <pt x="625" y="761" on="1"/>
        <pt x="637" y="761" on="0"/>
        <pt x="646" y="766" on="1"/>
        <pt x="650" y="768" on="1"/>
        <pt x="686" y="791" on="0"/>
        <pt x="698" y="792" on="1"/>
        <pt x="704" y="792" on="0"/>
        <pt x="704" y="786" on="1"/>
        <pt x="704" y="765" on="0"/>
      </contour>
      <contour>
        <pt x="585" y="865" on="1"/>
        <pt x="586" y="861" on="0"/>
        <pt x="588" y="861" on="1"/>
        <pt x="594" y="865" on="1"/>
        <pt x="627" y="898" on="0"/>
        <pt x="713" y="941" on="0"/>
        <pt x="730" y="941" on="1"/>
        <pt x="737" y="941" on="0"/>
        <pt x="737" y="937" on="1"/>
        <pt x="733" y="928" on="1"/>
        <pt x="723" y="920" on="0"/>
        <pt x="683" y="876" on="0"/>
        <pt x="668" y="858" on="1"/>
        <pt x="653" y="841" on="1"/>
        <pt x="647" y="832" on="0"/>
        <pt x="634" y="832" on="1"/>
        <pt x="525" y="832" on="1"/>
        <pt x="517" y="832" on="0"/>
        <pt x="517" y="839" on="1"/>
        <pt x="517" y="840" on="0"/>
        <pt x="521" y="870" on="0"/>
        <pt x="525" y="917" on="0"/>
        <pt x="525" y="937" on="1"/>
        <pt x="525" y="947" on="0"/>
        <pt x="531" y="947" on="1"/>
        <pt x="546" y="947" on="0"/>
        <pt x="580" y="888" on="0"/>
      </contour>
    </TTGlyph>
    <TTGlyph name="a" xMin="-15" yMin="-13" xMax="472" yMax="440">
      <contour>
        <pt x="291" y="63" on="1"/>
        <pt x="208" y="-13" on="0"/>
        <pt x="177" y="-13" on="1"/>
        <pt x="163" y="-13" on="0"/>
        <pt x="163" y="3" on="1"/>
        <pt x="163" y="23" on="0"/>
        <pt x="198" y="105" on="0"/>
        <pt x="216" y="136" on="1"/>
        <pt x="234" y="167" on="1"/>
        <pt x="238" y="174" on="0"/>
        <pt x="238" y="178" on="0"/>
        <pt x="236" y="178" on="1"/>
        <pt x="232" y="178" on="0"/>
        <pt x="221" y="167" on="1"/>
        <pt x="191" y="134" on="0"/>
        <pt x="114" y="59" on="0"/>
        <pt x="90" y="38" on="1"/>
        <pt x="67" y="18" on="1"/>
        <pt x="28" y="-12" on="0"/>
        <pt x="7" y="-12" on="1"/>
        <pt x="-15" y="-12" on="0"/>
        <pt x="-15" y="22" on="1"/>
        <pt x="-15" y="39" on="0"/>
        <pt x="4" y="109" on="0"/>
        <pt x="9" y="121" on="1"/>
        <pt x="32" y="177" on="0"/>
        <pt x="101" y="283" on="0"/>
        <pt x="195" y="380" on="0"/>
        <pt x="320" y="440" on="0"/>
        <pt x="387" y="440" on="1"/>
        <pt x="443" y="440" on="0"/>
        <pt x="443" y="423" on="1"/>
        <pt x="443" y="413" on="0"/>
        <pt x="418" y="413" on="1"/>
        <pt x="326" y="413" on="0"/>
        <pt x="165" y="256" on="0"/>
        <pt x="115" y="154" on="1"/>
        <pt x="101" y="126" on="0"/>
        <pt x="101" y="107" on="1"/>
        <pt x="101" y="96" on="0"/>
        <pt x="108" y="96" on="1"/>
        <pt x="120" y="96" on="0"/>
        <pt x="139" y="113" on="1"/>
        <pt x="151" y="124" on="0"/>
        <pt x="192" y="160" on="0"/>
        <pt x="284" y="262" on="0"/>
        <pt x="311" y="306" on="1"/>
        <pt x="315" y="314" on="0"/>
        <pt x="332" y="336" on="0"/>
        <pt x="380" y="373" on="0"/>
        <pt x="404" y="373" on="1"/>
        <pt x="417" y="373" on="0"/>
        <pt x="417" y="366" on="1"/>
        <pt x="417" y="364" on="0"/>
        <pt x="414" y="359" on="1"/>
        <pt x="410" y="351" on="0"/>
        <pt x="373" y="287" on="0"/>
        <pt x="341" y="230" on="0"/>
        <pt x="305" y="163" on="0"/>
        <pt x="284" y="115" on="0"/>
        <pt x="284" y="107" on="1"/>
        <pt x="284" y="101" on="0"/>
        <pt x="289" y="101" on="1"/>
        <pt x="304" y="101" on="0"/>
        <pt x="362" y="159" on="1"/>
        <pt x="406" y="205" on="0"/>
        <pt x="465" y="272" on="1"/>
        <pt x="468" y="275" on="0"/>
        <pt x="472" y="275" on="0"/>
        <pt x="472" y="271" on="1"/>
        <pt x="472" y="252" on="0"/>
        <pt x="457" y="234" on="1"/>
        <pt x="359" y="125" on="0"/>
      </contour>
    </TTGlyph>
    <TTGlyph name="aacute" xMin="-15" yMin="-13" xMax="542" yMax="609">
      <contour>
        <pt x="291" y="63" on="1"/>
        <pt x="208" y="-13" on="0"/>
        <pt x="177" y="-13" on="1"/>
        <pt x="163" y="-13" on="0"/>
        <pt x="163" y="3" on="1"/>
        <pt x="163" y="23" on="0"/>
        <pt x="198" y="105" on="0"/>
        <pt x="216" y="136" on="1"/>
        <pt x="234" y="167" on="1"/>
        <pt x="238" y="174" on="0"/>
        <pt x="238" y="178" on="0"/>
        <pt x="236" y="178" on="1"/>
        <pt x="232" y="178" on="0"/>
        <pt x="221" y="167" on="1"/>
        <pt x="191" y="134" on="0"/>
        <pt x="114" y="59" on="0"/>
        <pt x="90" y="38" on="1"/>
        <pt x="67" y="18" on="1"/>
        <pt x="28" y="-12" on="0"/>
        <pt x="7" y="-12" on="1"/>
        <pt x="-15" y="-12" on="0"/>
        <pt x="-15" y="22" on="1"/>
        <pt x="-15" y="39" on="0"/>
        <pt x="4" y="109" on="0"/>
        <pt x="9" y="121" on="1"/>
        <pt x="32" y="177" on="0"/>
        <pt x="101" y="283" on="0"/>
        <pt x="195" y="380" on="0"/>
        <pt x="320" y="440" on="0"/>
        <pt x="387" y="440" on="1"/>
        <pt x="443" y="440" on="0"/>
        <pt x="443" y="423" on="1"/>
        <pt x="443" y="413" on="0"/>
        <pt x="418" y="413" on="1"/>
        <pt x="326" y="413" on="0"/>
        <pt x="165" y="256" on="0"/>
        <pt x="115" y="154" on="1"/>
        <pt x="101" y="126" on="0"/>
        <pt x="101" y="107" on="1"/>
        <pt x="101" y="96" on="0"/>
        <pt x="108" y="96" on="1"/>
        <pt x="120" y="96" on="0"/>
        <pt x="139" y="113" on="1"/>
        <pt x="151" y="124" on="0"/>
        <pt x="192" y="160" on="0"/>
        <pt x="284" y="262" on="0"/>
        <pt x="311" y="306" on="1"/>
        <pt x="315" y="314" on="0"/>
        <pt x="332" y="336" on="0"/>
        <pt x="380" y="373" on="0"/>
        <pt x="404" y="373" on="1"/>
        <pt x="417" y="373" on="0"/>
        <pt x="417" y="366" on="1"/>
        <pt x="417" y="364" on="0"/>
        <pt x="414" y="359" on="1"/>
        <pt x="410" y="351" on="0"/>
        <pt x="373" y="287" on="0"/>
        <pt x="341" y="230" on="0"/>
        <pt x="305" y="163" on="0"/>
        <pt x="284" y="115" on="0"/>
        <pt x="284" y="107" on="1"/>
        <pt x="284" y="101" on="0"/>
        <pt x="289" y="101" on="1"/>
        <pt x="304" y="101" on="0"/>
        <pt x="362" y="159" on="1"/>
        <pt x="406" y="205" on="0"/>
        <pt x="465" y="272" on="1"/>
        <pt x="468" y="275" on="0"/>
        <pt x="472" y="275" on="0"/>
        <pt x="472" y="271" on="1"/>
        <pt x="472" y="252" on="0"/>
        <pt x="457" y="234" on="1"/>
        <pt x="359" y="125" on="0"/>
      </contour>
      <contour>
        <pt x="538" y="594" on="1"/>
        <pt x="511" y="563" on="0"/>
        <pt x="436" y="516" on="0"/>
        <pt x="412" y="508" on="1"/>
        <pt x="389" y="500" on="1"/>
        <pt x="378" y="500" on="0"/>
        <pt x="378" y="504" on="1"/>
        <pt x="378" y="507" on="0"/>
        <pt x="382" y="513" on="1"/>
        <pt x="392" y="521" on="0"/>
        <pt x="432" y="565" on="0"/>
        <pt x="447" y="582" on="1"/>
        <pt x="462" y="600" on="1"/>
        <pt x="468" y="609" on="0"/>
        <pt x="481" y="609" on="1"/>
        <pt x="530" y="609" on="1"/>
        <pt x="542" y="609" on="0"/>
        <pt x="542" y="602" on="1"/>
        <pt x="542" y="598" on="0"/>
      </contour>
    </TTGlyph>
    <TTGlyph name="acircumflex" xMin="-15" yMin="-13" xMax="515" yMax="609">
      <contour>
        <pt x="291" y="63" on="1"/>
        <pt x="208" y="-13" on="0"/>
        <pt x="177" y="-13" on="1"/>
        <pt x="163" y="-13" on="0"/>
        <pt x="163" y="3" on="1"/>
        <pt x="163" y="23" on="0"/>
        <pt x="198" y="105" on="0"/>
        <pt x="216" y="136" on="1"/>
        <pt x="234" y="167" on="1"/>
        <pt x="238" y="174" on="0"/>
        <pt x="238" y="178" on="0"/>
        <pt x="236" y="178" on="1"/>
        <pt x="232" y="178" on="0"/>
        <pt x="221" y="167" on="1"/>
        <pt x="191" y="134" on="0"/>
        <pt x="114" y="59" on="0"/>
        <pt x="90" y="38" on="1"/>
        <pt x="67" y="18" on="1"/>
        <pt x="28" y="-12" on="0"/>
        <pt x="7" y="-12" on="1"/>
        <pt x="-15" y="-12" on="0"/>
        <pt x="-15" y="22" on="1"/>
        <pt x="-15" y="39" on="0"/>
        <pt x="4" y="109" on="0"/>
        <pt x="9" y="121" on="1"/>
        <pt x="32" y="177" on="0"/>
        <pt x="101" y="283" on="0"/>
        <pt x="195" y="380" on="0"/>
        <pt x="320" y="440" on="0"/>
        <pt x="387" y="440" on="1"/>
        <pt x="443" y="440" on="0"/>
        <pt x="443" y="423" on="1"/>
        <pt x="443" y="413" on="0"/>
        <pt x="418" y="413" on="1"/>
        <pt x="326" y="413" on="0"/>
        <pt x="165" y="256" on="0"/>
        <pt x="115" y="154" on="1"/>
        <pt x="101" y="126" on="0"/>
        <pt x="101" y="107" on="1"/>
        <pt x="101" y="96" on="0"/>
        <pt x="108" y="96" on="1"/>
        <pt x="120" y="96" on="0"/>
        <pt x="139" y="113" on="1"/>
        <pt x="151" y="124" on="0"/>
        <pt x="192" y="160" on="0"/>
        <pt x="284" y="262" on="0"/>
        <pt x="311" y="306" on="1"/>
        <pt x="315" y="314" on="0"/>
        <pt x="332" y="336" on="0"/>
        <pt x="380" y="373" on="0"/>
        <pt x="404" y="373" on="1"/>
        <pt x="417" y="373" on="0"/>
        <pt x="417" y="366" on="1"/>
        <pt x="417" y="364" on="0"/>
        <pt x="414" y="359" on="1"/>
        <pt x="410" y="351" on="0"/>
        <pt x="373" y="287" on="0"/>
        <pt x="341" y="230" on="0"/>
        <pt x="305" y="163" on="0"/>
        <pt x="284" y="115" on="0"/>
        <pt x="284" y="107" on="1"/>
        <pt x="284" y="101" on="0"/>
        <pt x="289" y="101" on="1"/>
        <pt x="304" y="101" on="0"/>
        <pt x="362" y="159" on="1"/>
        <pt x="406" y="205" on="0"/>
        <pt x="465" y="272" on="1"/>
        <pt x="468" y="275" on="0"/>
        <pt x="472" y="275" on="0"/>
        <pt x="472" y="271" on="1"/>
        <pt x="472" y="252" on="0"/>
        <pt x="457" y="234" on="1"/>
        <pt x="359" y="125" on="0"/>
      </contour>
      <contour>
        <pt x="447" y="576" on="1"/>
        <pt x="446" y="580" on="0"/>
        <pt x="444" y="580" on="1"/>
        <pt x="438" y="576" on="1"/>
        <pt x="405" y="543" on="0"/>
        <pt x="319" y="500" on="0"/>
        <pt x="302" y="500" on="1"/>
        <pt x="295" y="500" on="0"/>
        <pt x="295" y="504" on="1"/>
        <pt x="299" y="513" on="1"/>
        <pt x="309" y="521" on="0"/>
        <pt x="349" y="565" on="0"/>
        <pt x="364" y="582" on="1"/>
        <pt x="379" y="600" on="1"/>
        <pt x="385" y="609" on="0"/>
        <pt x="398" y="609" on="1"/>
        <pt x="507" y="609" on="1"/>
        <pt x="515" y="609" on="0"/>
        <pt x="515" y="602" on="1"/>
        <pt x="515" y="601" on="0"/>
        <pt x="511" y="571" on="0"/>
        <pt x="507" y="524" on="0"/>
        <pt x="507" y="504" on="1"/>
        <pt x="507" y="494" on="0"/>
        <pt x="501" y="494" on="1"/>
        <pt x="486" y="494" on="0"/>
        <pt x="452" y="553" on="0"/>
      </contour>
    </TTGlyph>
    <TTGlyph name="acute" xMin="401" yMin="500" xMax="565" yMax="609">
      <contour>
        <pt x="561" y="594" on="1"/>
        <pt x="534" y="563" on="0"/>
        <pt x="459" y="516" on="0"/>
        <pt x="436" y="508" on="1"/>
        <pt x="412" y="500" on="1"/>
        <pt x="401" y="500" on="0"/>
        <pt x="401" y="504" on="1"/>
        <pt x="401" y="507" on="0"/>
        <pt x="405" y="513" on="1"/>
        <pt x="415" y="521" on="0"/>
        <pt x="455" y="565" on="0"/>
        <pt x="470" y="582" on="1"/>
        <pt x="485" y="600" on="1"/>
        <pt x="491" y="609" on="0"/>
        <pt x="504" y="609" on="1"/>
        <pt x="553" y="609" on="1"/>
        <pt x="565" y="609" on="0"/>
        <pt x="565" y="602" on="1"/>
        <pt x="565" y="598" on="0"/>
      </contour>
    </TTGlyph>
</ttFont>
